M48
;DRILL file {KiCad 4.0.7} date 03/21/18 18:05:02
;FORMAT={-:-/ absolute / inch / decimal}
FMAT,2
INCH,TZ
T1C0.016
T2C0.020
T3C0.022
T4C0.031
T5C0.039
%
G90
G05
M72
T1
X4.3622Y-4.4173
X4.3622Y-4.5197
X4.4173Y-4.2756
X4.5197Y-4.6299
X4.5276Y-2.9134
X4.5315Y-4.1772
X4.5512Y-2.5512
X4.5591Y-4.1102
X4.5748Y-4.2362
X4.6378Y-3.1575
X4.6378Y-3.4803
X4.6378Y-3.7953
X4.8268Y-2.5512
X4.8504Y-4.685
X4.8661Y-4.5039
X4.9843Y-4.3228
X4.9843Y-4.4803
X5.1024Y-3.9685
X5.1496Y-3.7874
X5.4016Y-4.2835
X5.4724Y-3.6614
X5.5157Y-3.1732
X5.6457Y-4.2913
X5.6693Y-2.4488
X5.7165Y-3.4803
X5.7717Y-2.6772
X5.8583Y-4.2835
X5.8661Y-2.685
X5.8661Y-4.4961
X5.8701Y-4.1969
X5.9764Y-2.4488
X6.0236Y-4.4961
X6.1457Y-3.9803
X6.1496Y-3.4803
X6.3425Y-3.8819
X6.3937Y-2.4488
X6.3937Y-2.7953
X6.3937Y-3.126
X6.3937Y-3.4803
T4
X5.3976Y-3.8181
X5.3976Y-4.1181
X5.4976Y-3.8181
X5.4976Y-4.1181
X5.5976Y-3.8181
X5.5976Y-4.1181
X5.6976Y-3.8181
X5.6976Y-4.1181
X5.7976Y-3.8181
X5.7976Y-4.1181
X5.8976Y-3.8181
X5.8976Y-4.1181
X5.9976Y-3.8181
X5.9976Y-4.1181
X6.0976Y-3.8181
X6.0976Y-4.1181
X6.1976Y-3.8181
X6.1976Y-4.1181
X6.2976Y-3.8181
X6.2976Y-4.1181
T5
X4.374Y-3.9181
X4.374Y-4.0181
X4.374Y-4.1181
X4.3937Y-2.8189
X4.3937Y-2.9189
X4.3937Y-3.2717
X4.3937Y-3.3717
X4.6535Y-3.063
X4.7535Y-3.063
X5.1417Y-4.1559
X5.1417Y-4.2559
X5.1417Y-4.4134
X5.1417Y-4.5134
X5.6142Y-4.7087
X5.6732Y-2.9961
X5.6732Y-3.0961
X5.7142Y-4.7087
X5.8142Y-4.7087
X5.9142Y-4.7087
X6.0142Y-4.7087
X6.1142Y-4.7087
X6.6378Y-2.6417
X6.6378Y-2.7417
X6.6378Y-3.0748
X6.6378Y-3.1748
X6.6378Y-3.4882
X6.6378Y-3.5882
X6.6378Y-3.6882
X6.6378Y-3.7882
X6.6378Y-3.8882
X6.6378Y-3.9882
X6.6378Y-4.0882
X6.6378Y-4.1882
T2
X4.7283Y-4.6959G85X4.7283Y-4.6703
G05
X5.0039Y-4.6959G85X5.0039Y-4.6703
G05
T3
X4.7618Y-4.5768G85X4.7736Y-4.5768
G05
X4.9587Y-4.5768G85X4.9705Y-4.5768
G05
T0
M30
