G04 #@! TF.FileFunction,Copper,L1,Top,Signal*
%FSLAX46Y46*%
G04 Gerber Fmt 4.6, Leading zero omitted, Abs format (unit mm)*
G04 Created by KiCad (PCBNEW 4.0.7) date 03/26/18 17:29:43*
%MOMM*%
%LPD*%
G01*
G04 APERTURE LIST*
%ADD10C,0.100000*%
%ADD11R,1.600000X3.500000*%
%ADD12R,2.500000X4.000000*%
%ADD13R,0.500000X0.600000*%
%ADD14R,1.500000X1.250000*%
%ADD15R,2.500000X2.000000*%
%ADD16R,1.250000X1.500000*%
%ADD17R,1.200000X0.750000*%
%ADD18R,2.550000X2.770000*%
%ADD19R,2.000000X2.500000*%
%ADD20R,1.900000X0.800000*%
%ADD21R,1.700000X1.700000*%
%ADD22O,1.700000X1.700000*%
%ADD23R,0.400000X1.350000*%
%ADD24O,1.250000X0.950000*%
%ADD25O,1.000000X1.550000*%
%ADD26R,4.000000X5.500000*%
%ADD27R,3.000000X3.200000*%
%ADD28R,1.500000X1.300000*%
%ADD29R,1.000000X3.850000*%
%ADD30R,10.950000X9.600000*%
%ADD31R,1.560000X0.650000*%
%ADD32R,1.600000X2.400000*%
%ADD33O,1.600000X2.400000*%
%ADD34R,1.550000X0.600000*%
%ADD35R,1.500000X2.600000*%
%ADD36R,2.600000X1.500000*%
%ADD37R,0.400000X0.600000*%
%ADD38C,0.600000*%
%ADD39C,0.450000*%
%ADD40C,0.400000*%
%ADD41C,0.250000*%
%ADD42C,0.254000*%
G04 APERTURE END LIST*
D10*
D11*
X122600000Y-73300000D03*
X122600000Y-67900000D03*
D12*
X136100000Y-80600000D03*
X136100000Y-88600000D03*
D13*
X137100000Y-106550000D03*
X137100000Y-107650000D03*
D14*
X155350000Y-69600000D03*
X157850000Y-69600000D03*
D15*
X155600000Y-67100000D03*
X155600000Y-63100000D03*
X144100000Y-71600000D03*
X144100000Y-67600000D03*
D16*
X144600000Y-93850000D03*
X144600000Y-91350000D03*
D17*
X118650000Y-113100000D03*
X120550000Y-113100000D03*
D18*
X126100000Y-106320000D03*
X126100000Y-99880000D03*
D19*
X110100000Y-108600000D03*
X114100000Y-108600000D03*
D20*
X125600000Y-77650000D03*
X125600000Y-79550000D03*
X128600000Y-78600000D03*
D17*
X143050000Y-111100000D03*
X141150000Y-111100000D03*
X152850000Y-111200000D03*
X154750000Y-111200000D03*
D20*
X113100000Y-112150000D03*
X113100000Y-114050000D03*
X116100000Y-113100000D03*
D21*
X111600000Y-71600000D03*
D22*
X111600000Y-74140000D03*
D21*
X111600000Y-83100000D03*
D22*
X111600000Y-85640000D03*
D23*
X122300000Y-116250000D03*
X122950000Y-116250000D03*
X123600000Y-116250000D03*
X124250000Y-116250000D03*
X124900000Y-116250000D03*
D24*
X121100000Y-116250000D03*
X126100000Y-116250000D03*
D25*
X120100000Y-118950000D03*
X127100000Y-118950000D03*
D21*
X130600000Y-112100000D03*
D22*
X130600000Y-114640000D03*
D21*
X130600000Y-108100000D03*
D22*
X130600000Y-105560000D03*
D21*
X144100000Y-76100000D03*
D22*
X144100000Y-78640000D03*
D21*
X142600000Y-119600000D03*
D22*
X145140000Y-119600000D03*
X147680000Y-119600000D03*
X150220000Y-119600000D03*
X152760000Y-119600000D03*
X155300000Y-119600000D03*
D21*
X168600000Y-67100000D03*
D22*
X168600000Y-69640000D03*
D21*
X168600000Y-78100000D03*
D22*
X168600000Y-80640000D03*
D21*
X111100000Y-104600000D03*
D22*
X111100000Y-102060000D03*
X111100000Y-99520000D03*
D21*
X168600000Y-88600000D03*
D22*
X168600000Y-91140000D03*
X168600000Y-93680000D03*
X168600000Y-96220000D03*
X168600000Y-98760000D03*
X168600000Y-101300000D03*
X168600000Y-103840000D03*
X168600000Y-106380000D03*
D26*
X123600000Y-92850000D03*
X123600000Y-84350000D03*
D27*
X121550000Y-100775000D03*
X116650000Y-100600000D03*
D28*
X135250000Y-111100000D03*
X137950000Y-111100000D03*
X159450000Y-111100000D03*
X156750000Y-111100000D03*
D29*
X131200000Y-73800000D03*
D30*
X134600000Y-62900000D03*
D29*
X132900000Y-73800000D03*
X134600000Y-73800000D03*
X136300000Y-73800000D03*
X138000000Y-73800000D03*
D31*
X150250000Y-67150000D03*
X150250000Y-68100000D03*
X150250000Y-69050000D03*
X152950000Y-69050000D03*
X152950000Y-67150000D03*
D32*
X137100000Y-104600000D03*
D33*
X159960000Y-96980000D03*
X139640000Y-104600000D03*
X157420000Y-96980000D03*
X142180000Y-104600000D03*
X154880000Y-96980000D03*
X144720000Y-104600000D03*
X152340000Y-96980000D03*
X147260000Y-104600000D03*
X149800000Y-96980000D03*
X149800000Y-104600000D03*
X147260000Y-96980000D03*
X152340000Y-104600000D03*
X144720000Y-96980000D03*
X154880000Y-104600000D03*
X142180000Y-96980000D03*
X157420000Y-104600000D03*
X139640000Y-96980000D03*
X159960000Y-104600000D03*
X137100000Y-96980000D03*
D34*
X122300000Y-110005000D03*
X122300000Y-108735000D03*
X122300000Y-107465000D03*
X122300000Y-106195000D03*
X116900000Y-106195000D03*
X116900000Y-107465000D03*
X116900000Y-108735000D03*
X116900000Y-110005000D03*
D21*
X118200000Y-77800000D03*
D22*
X120740000Y-77800000D03*
D35*
X163700000Y-69600000D03*
X160700000Y-69600000D03*
D36*
X148600000Y-80500000D03*
X148600000Y-83500000D03*
D37*
X166250000Y-69600000D03*
X165350000Y-69600000D03*
X147750000Y-78600000D03*
X148650000Y-78600000D03*
D38*
X115800000Y-104400000D03*
X115000000Y-74000000D03*
X115600000Y-64800000D03*
X122600000Y-64800000D03*
X117800000Y-88400000D03*
X117800000Y-80200000D03*
X144000000Y-62200000D03*
X151800000Y-62200000D03*
X162400000Y-62200000D03*
X162400000Y-71000000D03*
X162400000Y-79400000D03*
X162400000Y-88400000D03*
X156200000Y-88400000D03*
X145200000Y-88400000D03*
X139000000Y-93000000D03*
X130800000Y-96200000D03*
X117800000Y-96400000D03*
X123200000Y-119000000D03*
X114800000Y-117600000D03*
X110800000Y-114800000D03*
X110800000Y-112200000D03*
X126600000Y-113800000D03*
X153000000Y-114200000D03*
X149000000Y-114200000D03*
X148800000Y-108800000D03*
X143400000Y-109000000D03*
X137200000Y-108800000D03*
X146600000Y-68000000D03*
X149000000Y-68200000D03*
X112200000Y-108600000D03*
X116200000Y-107600000D03*
X140100000Y-80600000D03*
X129600000Y-100800000D03*
X126600000Y-109800000D03*
X123600000Y-114400000D03*
X115100000Y-106100000D03*
X156100000Y-101100000D03*
X149100000Y-106600000D03*
X161100000Y-98600000D03*
D39*
X118200000Y-77800000D02*
X115260000Y-77800000D01*
X115260000Y-77800000D02*
X111600000Y-74140000D01*
D40*
X116900000Y-108735000D02*
X116765000Y-108600000D01*
D39*
X116765000Y-108600000D02*
X114100000Y-108600000D01*
X111100000Y-104600000D02*
X114100000Y-104600000D01*
D40*
X114100000Y-104600000D02*
X114100000Y-105100000D01*
X111600000Y-74140000D02*
X114100000Y-76640000D01*
D39*
X114100000Y-76640000D02*
X114100000Y-105100000D01*
D40*
X114100000Y-105100000D02*
X114100000Y-108600000D01*
D39*
X111600000Y-71600000D02*
X111600000Y-74140000D01*
D41*
X122600000Y-67900000D02*
X122600000Y-64800000D01*
X115000000Y-65400000D02*
X115000000Y-74000000D01*
X115600000Y-64800000D02*
X115000000Y-65400000D01*
X117800000Y-88400000D02*
X117800000Y-80200000D01*
X144000000Y-67500000D02*
X144000000Y-62200000D01*
X151800000Y-62200000D02*
X162400000Y-62200000D01*
X162400000Y-71000000D02*
X162400000Y-79400000D01*
X162400000Y-88400000D02*
X156200000Y-88400000D01*
X145200000Y-88400000D02*
X143600000Y-88400000D01*
X143600000Y-88400000D02*
X139000000Y-93000000D01*
X130800000Y-96200000D02*
X118000000Y-96200000D01*
X118000000Y-96200000D02*
X117800000Y-96400000D01*
X123200000Y-119000000D02*
X115200000Y-119000000D01*
X115200000Y-119000000D02*
X114800000Y-117600000D01*
X110800000Y-114800000D02*
X110800000Y-112200000D01*
X126600000Y-114550000D02*
X124900000Y-116250000D01*
X126600000Y-113800000D02*
X126600000Y-114550000D01*
X152850000Y-111200000D02*
X153000000Y-111350000D01*
X153000000Y-111350000D02*
X153000000Y-114200000D01*
X149000000Y-114200000D02*
X149000000Y-109000000D01*
X149000000Y-109000000D02*
X148800000Y-108800000D01*
X143400000Y-109000000D02*
X137400000Y-109000000D01*
X137400000Y-109000000D02*
X137200000Y-108800000D01*
X144100000Y-67600000D02*
X144000000Y-67500000D01*
X133700000Y-62000000D02*
X134600000Y-62900000D01*
X144100000Y-67600000D02*
X144500000Y-68000000D01*
X144500000Y-68000000D02*
X146600000Y-68000000D01*
X149000000Y-68200000D02*
X150150000Y-68200000D01*
X150150000Y-68200000D02*
X150250000Y-68100000D01*
X112400000Y-108400000D02*
X112200000Y-108600000D01*
X116200000Y-107600000D02*
X116765000Y-107600000D01*
X116765000Y-107600000D02*
X116900000Y-107465000D01*
X147750000Y-78600000D02*
X144140000Y-78600000D01*
X144140000Y-78600000D02*
X144100000Y-78640000D01*
D39*
X136100000Y-80600000D02*
X140100000Y-80600000D01*
D41*
X123600000Y-92850000D02*
X123850000Y-92850000D01*
X123850000Y-92850000D02*
X136100000Y-80600000D01*
D39*
X136300000Y-73800000D02*
X136300000Y-80400000D01*
D41*
X136300000Y-80400000D02*
X136100000Y-80600000D01*
D39*
X130600000Y-112100000D02*
X130600000Y-108100000D01*
D41*
X135250000Y-111100000D02*
X131600000Y-111100000D01*
X131600000Y-111100000D02*
X130600000Y-112100000D01*
X137100000Y-104600000D02*
X137100000Y-106550000D01*
X137100000Y-106550000D02*
X137150000Y-106600000D01*
X137150000Y-106600000D02*
X137100000Y-106550000D01*
D39*
X130600000Y-108100000D02*
X133600000Y-108100000D01*
X133600000Y-108100000D02*
X137100000Y-104600000D01*
D41*
X152950000Y-69050000D02*
X153500000Y-69600000D01*
X153500000Y-69600000D02*
X155350000Y-69600000D01*
D39*
X144100000Y-71600000D02*
X144100000Y-76100000D01*
X144100000Y-71600000D02*
X148550000Y-67150000D01*
D40*
X148550000Y-67150000D02*
X150250000Y-67150000D01*
D41*
X144720000Y-96980000D02*
X144600000Y-96860000D01*
X144600000Y-96860000D02*
X144600000Y-93850000D01*
X118650000Y-113100000D02*
X116100000Y-113100000D01*
X116900000Y-110005000D02*
X116100000Y-110805000D01*
X116100000Y-110805000D02*
X116100000Y-113100000D01*
X116650000Y-100600000D02*
X118600000Y-102550000D01*
X118600000Y-109100000D02*
X117600000Y-110100000D01*
X118600000Y-102550000D02*
X118600000Y-109100000D01*
X117600000Y-110100000D02*
X116900000Y-110005000D01*
X120550000Y-113100000D02*
X122300000Y-111350000D01*
X122300000Y-111350000D02*
X122300000Y-110005000D01*
D39*
X126100000Y-106320000D02*
X129840000Y-106320000D01*
D41*
X129840000Y-106320000D02*
X130600000Y-105560000D01*
D39*
X126100000Y-106320000D02*
X122425000Y-106320000D01*
D41*
X122425000Y-106320000D02*
X122300000Y-106195000D01*
D39*
X121550000Y-100775000D02*
X121550000Y-105445000D01*
X121550000Y-105445000D02*
X122300000Y-106195000D01*
D41*
X123600000Y-84350000D02*
X123600000Y-83600000D01*
X123600000Y-83600000D02*
X128600000Y-78600000D01*
X128600000Y-78600000D02*
X130100000Y-78600000D01*
X130100000Y-78600000D02*
X133100000Y-75600000D01*
X133100000Y-75600000D02*
X132900000Y-73800000D01*
X137950000Y-111100000D02*
X141150000Y-111100000D01*
X156750000Y-111100000D02*
X156650000Y-111200000D01*
X156650000Y-111200000D02*
X154750000Y-111200000D01*
D39*
X122300000Y-116250000D02*
X122300000Y-117400000D01*
X126600000Y-117600000D02*
X130600000Y-114640000D01*
X122800000Y-117600000D02*
X126600000Y-117600000D01*
X122300000Y-117400000D02*
X122800000Y-117600000D01*
D41*
X122950000Y-116250000D02*
X122950000Y-113450000D01*
X138400000Y-100800000D02*
X142180000Y-97020000D01*
X129600000Y-100800000D02*
X138400000Y-100800000D01*
X122950000Y-113450000D02*
X126600000Y-109800000D01*
X142180000Y-97020000D02*
X142180000Y-96980000D01*
X123600000Y-116250000D02*
X123600000Y-114400000D01*
X144720000Y-117480000D02*
X144720000Y-104600000D01*
X142600000Y-119600000D02*
X144720000Y-117480000D01*
X147260000Y-96980000D02*
X147260000Y-101140000D01*
X146000000Y-115380000D02*
X150220000Y-119600000D01*
X146000000Y-102400000D02*
X146000000Y-115380000D01*
X147260000Y-101140000D02*
X146000000Y-102400000D01*
X149800000Y-96980000D02*
X151200000Y-98380000D01*
X151200000Y-118040000D02*
X152760000Y-119600000D01*
X151200000Y-98380000D02*
X151200000Y-118040000D01*
D39*
X168600000Y-69640000D02*
X166290000Y-69640000D01*
D41*
X166290000Y-69640000D02*
X166250000Y-69600000D01*
D39*
X155600000Y-67100000D02*
X168600000Y-67100000D01*
X168600000Y-67100000D02*
X168600000Y-69640000D01*
D41*
X152950000Y-67150000D02*
X153000000Y-67100000D01*
D39*
X153000000Y-67100000D02*
X155600000Y-67100000D01*
D41*
X115100000Y-106100000D02*
X116805000Y-106100000D01*
X116805000Y-106100000D02*
X116900000Y-106195000D01*
X163260000Y-91140000D02*
X168600000Y-91140000D01*
X157420000Y-96980000D02*
X163260000Y-91140000D01*
X163260000Y-93680000D02*
X168600000Y-93680000D01*
X159960000Y-96980000D02*
X163260000Y-93680000D01*
X152340000Y-104600000D02*
X155840000Y-101100000D01*
X155840000Y-101100000D02*
X156100000Y-101100000D01*
X149100000Y-106440000D02*
X147260000Y-104600000D01*
X149100000Y-106600000D02*
X149100000Y-106440000D01*
X159450000Y-111100000D02*
X159450000Y-105110000D01*
X159450000Y-105110000D02*
X159960000Y-104600000D01*
X152100000Y-96740000D02*
X152100000Y-91100000D01*
X138000000Y-77000000D02*
X152100000Y-91100000D01*
X138000000Y-77000000D02*
X138000000Y-73800000D01*
X152100000Y-96740000D02*
X152340000Y-96980000D01*
X150250000Y-69050000D02*
X154880000Y-73680000D01*
X154880000Y-73680000D02*
X154880000Y-96980000D01*
X154880000Y-104600000D02*
X160880000Y-98600000D01*
X160880000Y-98600000D02*
X161100000Y-98600000D01*
X165800000Y-96220000D02*
X168600000Y-96220000D01*
X157420000Y-104600000D02*
X165800000Y-96220000D01*
D39*
X120740000Y-77800000D02*
X120740000Y-75160000D01*
X120740000Y-75160000D02*
X122600000Y-73300000D01*
X122600000Y-73300000D02*
X130700000Y-73300000D01*
D40*
X130700000Y-73300000D02*
X131200000Y-73800000D01*
D41*
X165350000Y-69600000D02*
X163700000Y-69600000D01*
X148650000Y-78600000D02*
X148650000Y-80450000D01*
X148650000Y-80450000D02*
X148600000Y-80500000D01*
D42*
G36*
X128490000Y-62614250D02*
X128648750Y-62773000D01*
X134473000Y-62773000D01*
X134473000Y-62753000D01*
X134727000Y-62753000D01*
X134727000Y-62773000D01*
X140551250Y-62773000D01*
X140710000Y-62614250D01*
X140710000Y-61973691D01*
X153715000Y-61973691D01*
X153715000Y-62814250D01*
X153873750Y-62973000D01*
X155473000Y-62973000D01*
X155473000Y-61623750D01*
X155727000Y-61623750D01*
X155727000Y-62973000D01*
X157326250Y-62973000D01*
X157485000Y-62814250D01*
X157485000Y-61973691D01*
X157388327Y-61740302D01*
X157209699Y-61561673D01*
X156976310Y-61465000D01*
X155885750Y-61465000D01*
X155727000Y-61623750D01*
X155473000Y-61623750D01*
X155314250Y-61465000D01*
X154223690Y-61465000D01*
X153990301Y-61561673D01*
X153811673Y-61740302D01*
X153715000Y-61973691D01*
X140710000Y-61973691D01*
X140710000Y-58227000D01*
X167577019Y-58227000D01*
X166877057Y-58516218D01*
X166318181Y-59074120D01*
X166015346Y-59803427D01*
X166014657Y-60593109D01*
X166316218Y-61322943D01*
X166874120Y-61881819D01*
X167603427Y-62184654D01*
X168393109Y-62185343D01*
X169122943Y-61883782D01*
X169681819Y-61325880D01*
X169952402Y-60674244D01*
X169911422Y-65796736D01*
X169701890Y-65653569D01*
X169450000Y-65602560D01*
X167750000Y-65602560D01*
X167514683Y-65646838D01*
X167298559Y-65785910D01*
X167153569Y-65998110D01*
X167104585Y-66240000D01*
X157497440Y-66240000D01*
X157497440Y-66100000D01*
X157453162Y-65864683D01*
X157314090Y-65648559D01*
X157101890Y-65503569D01*
X156850000Y-65452560D01*
X154350000Y-65452560D01*
X154114683Y-65496838D01*
X153898559Y-65635910D01*
X153753569Y-65848110D01*
X153702560Y-66100000D01*
X153702560Y-66177560D01*
X152170000Y-66177560D01*
X151934683Y-66221838D01*
X151718559Y-66360910D01*
X151598767Y-66536232D01*
X151494090Y-66373559D01*
X151281890Y-66228569D01*
X151030000Y-66177560D01*
X149470000Y-66177560D01*
X149234683Y-66221838D01*
X149089905Y-66315000D01*
X148675682Y-66315000D01*
X148550000Y-66290000D01*
X148220892Y-66355464D01*
X147941888Y-66541888D01*
X145985000Y-68498776D01*
X145985000Y-67885750D01*
X145826250Y-67727000D01*
X144227000Y-67727000D01*
X144227000Y-69076250D01*
X144385750Y-69235000D01*
X145248776Y-69235000D01*
X144531216Y-69952560D01*
X142850000Y-69952560D01*
X142614683Y-69996838D01*
X142398559Y-70135910D01*
X142253569Y-70348110D01*
X142202560Y-70600000D01*
X142202560Y-72600000D01*
X142246838Y-72835317D01*
X142385910Y-73051441D01*
X142598110Y-73196431D01*
X142850000Y-73247440D01*
X143240000Y-73247440D01*
X143240000Y-74604442D01*
X143014683Y-74646838D01*
X142798559Y-74785910D01*
X142653569Y-74998110D01*
X142602560Y-75250000D01*
X142602560Y-76950000D01*
X142646838Y-77185317D01*
X142785910Y-77401441D01*
X142998110Y-77546431D01*
X143065541Y-77560086D01*
X143020853Y-77589946D01*
X142698946Y-78071715D01*
X142585907Y-78640000D01*
X142698946Y-79208285D01*
X143020853Y-79690054D01*
X143502622Y-80011961D01*
X144070907Y-80125000D01*
X144129093Y-80125000D01*
X144697378Y-80011961D01*
X145179147Y-79690054D01*
X145399682Y-79360000D01*
X146797935Y-79360000D01*
X146703569Y-79498110D01*
X146652560Y-79750000D01*
X146652560Y-81250000D01*
X146696838Y-81485317D01*
X146835910Y-81701441D01*
X147048110Y-81846431D01*
X147300000Y-81897440D01*
X149900000Y-81897440D01*
X150135317Y-81853162D01*
X150351441Y-81714090D01*
X150496431Y-81501890D01*
X150547440Y-81250000D01*
X150547440Y-79750000D01*
X150503162Y-79514683D01*
X150364090Y-79298559D01*
X150151890Y-79153569D01*
X149900000Y-79102560D01*
X149456421Y-79102560D01*
X149497440Y-78900000D01*
X149497440Y-78300000D01*
X149453162Y-78064683D01*
X149314090Y-77848559D01*
X149101890Y-77703569D01*
X148850000Y-77652560D01*
X148450000Y-77652560D01*
X148214683Y-77696838D01*
X148203021Y-77704342D01*
X148201890Y-77703569D01*
X147950000Y-77652560D01*
X147550000Y-77652560D01*
X147314683Y-77696838D01*
X147098559Y-77835910D01*
X147095764Y-77840000D01*
X145346227Y-77840000D01*
X145179147Y-77589946D01*
X145137548Y-77562150D01*
X145185317Y-77553162D01*
X145401441Y-77414090D01*
X145546431Y-77201890D01*
X145597440Y-76950000D01*
X145597440Y-75250000D01*
X145553162Y-75014683D01*
X145414090Y-74798559D01*
X145201890Y-74653569D01*
X144960000Y-74604585D01*
X144960000Y-73247440D01*
X145350000Y-73247440D01*
X145585317Y-73203162D01*
X145801441Y-73064090D01*
X145946431Y-72851890D01*
X145997440Y-72600000D01*
X145997440Y-70918784D01*
X148931224Y-67985000D01*
X149091614Y-67985000D01*
X149218110Y-68071431D01*
X149355120Y-68099176D01*
X149234683Y-68121838D01*
X149071257Y-68227000D01*
X148993750Y-68227000D01*
X148835000Y-68385750D01*
X148835000Y-68551310D01*
X148850268Y-68588171D01*
X148822560Y-68725000D01*
X148822560Y-69375000D01*
X148866838Y-69610317D01*
X149005910Y-69826441D01*
X149218110Y-69971431D01*
X149470000Y-70022440D01*
X150147638Y-70022440D01*
X154120000Y-73994802D01*
X154120000Y-95359168D01*
X153865302Y-95529352D01*
X153610000Y-95911438D01*
X153354698Y-95529352D01*
X152889151Y-95218283D01*
X152860000Y-95212485D01*
X152860000Y-91100000D01*
X152802148Y-90809161D01*
X152802148Y-90809160D01*
X152637401Y-90562599D01*
X145860552Y-83785750D01*
X146665000Y-83785750D01*
X146665000Y-84376309D01*
X146761673Y-84609698D01*
X146940301Y-84788327D01*
X147173690Y-84885000D01*
X148314250Y-84885000D01*
X148473000Y-84726250D01*
X148473000Y-83627000D01*
X148727000Y-83627000D01*
X148727000Y-84726250D01*
X148885750Y-84885000D01*
X150026310Y-84885000D01*
X150259699Y-84788327D01*
X150438327Y-84609698D01*
X150535000Y-84376309D01*
X150535000Y-83785750D01*
X150376250Y-83627000D01*
X148727000Y-83627000D01*
X148473000Y-83627000D01*
X146823750Y-83627000D01*
X146665000Y-83785750D01*
X145860552Y-83785750D01*
X144698493Y-82623691D01*
X146665000Y-82623691D01*
X146665000Y-83214250D01*
X146823750Y-83373000D01*
X148473000Y-83373000D01*
X148473000Y-82273750D01*
X148727000Y-82273750D01*
X148727000Y-83373000D01*
X150376250Y-83373000D01*
X150535000Y-83214250D01*
X150535000Y-82623691D01*
X150438327Y-82390302D01*
X150259699Y-82211673D01*
X150026310Y-82115000D01*
X148885750Y-82115000D01*
X148727000Y-82273750D01*
X148473000Y-82273750D01*
X148314250Y-82115000D01*
X147173690Y-82115000D01*
X146940301Y-82211673D01*
X146761673Y-82390302D01*
X146665000Y-82623691D01*
X144698493Y-82623691D01*
X138760000Y-76685198D01*
X138760000Y-76312279D01*
X138951441Y-76189090D01*
X139096431Y-75976890D01*
X139147440Y-75725000D01*
X139147440Y-71875000D01*
X139103162Y-71639683D01*
X138964090Y-71423559D01*
X138751890Y-71278569D01*
X138500000Y-71227560D01*
X137500000Y-71227560D01*
X137264683Y-71271838D01*
X137150022Y-71345620D01*
X137051890Y-71278569D01*
X136800000Y-71227560D01*
X135800000Y-71227560D01*
X135564683Y-71271838D01*
X135461354Y-71338328D01*
X135459699Y-71336673D01*
X135226310Y-71240000D01*
X134885750Y-71240000D01*
X134727000Y-71398750D01*
X134727000Y-73673000D01*
X134747000Y-73673000D01*
X134747000Y-73927000D01*
X134727000Y-73927000D01*
X134727000Y-76201250D01*
X134885750Y-76360000D01*
X135226310Y-76360000D01*
X135440000Y-76271487D01*
X135440000Y-77952560D01*
X134850000Y-77952560D01*
X134614683Y-77996838D01*
X134398559Y-78135910D01*
X134253569Y-78348110D01*
X134202560Y-78600000D01*
X134202560Y-81422638D01*
X126012137Y-89613061D01*
X125851890Y-89503569D01*
X125600000Y-89452560D01*
X121600000Y-89452560D01*
X121364683Y-89496838D01*
X121148559Y-89635910D01*
X121003569Y-89848110D01*
X120952560Y-90100000D01*
X120952560Y-95600000D01*
X120996838Y-95835317D01*
X121135910Y-96051441D01*
X121348110Y-96196431D01*
X121600000Y-96247440D01*
X125600000Y-96247440D01*
X125835317Y-96203162D01*
X126051441Y-96064090D01*
X126196431Y-95851890D01*
X126247440Y-95600000D01*
X126247440Y-91527362D01*
X128889052Y-88885750D01*
X134215000Y-88885750D01*
X134215000Y-90726309D01*
X134311673Y-90959698D01*
X134490301Y-91138327D01*
X134723690Y-91235000D01*
X135814250Y-91235000D01*
X135973000Y-91076250D01*
X135973000Y-88727000D01*
X136227000Y-88727000D01*
X136227000Y-91076250D01*
X136385750Y-91235000D01*
X137476310Y-91235000D01*
X137709699Y-91138327D01*
X137888327Y-90959698D01*
X137985000Y-90726309D01*
X137985000Y-90473691D01*
X143340000Y-90473691D01*
X143340000Y-91064250D01*
X143498750Y-91223000D01*
X144473000Y-91223000D01*
X144473000Y-90123750D01*
X144727000Y-90123750D01*
X144727000Y-91223000D01*
X145701250Y-91223000D01*
X145860000Y-91064250D01*
X145860000Y-90473691D01*
X145763327Y-90240302D01*
X145584699Y-90061673D01*
X145351310Y-89965000D01*
X144885750Y-89965000D01*
X144727000Y-90123750D01*
X144473000Y-90123750D01*
X144314250Y-89965000D01*
X143848690Y-89965000D01*
X143615301Y-90061673D01*
X143436673Y-90240302D01*
X143340000Y-90473691D01*
X137985000Y-90473691D01*
X137985000Y-88885750D01*
X137826250Y-88727000D01*
X136227000Y-88727000D01*
X135973000Y-88727000D01*
X134373750Y-88727000D01*
X134215000Y-88885750D01*
X128889052Y-88885750D01*
X131301111Y-86473691D01*
X134215000Y-86473691D01*
X134215000Y-88314250D01*
X134373750Y-88473000D01*
X135973000Y-88473000D01*
X135973000Y-86123750D01*
X136227000Y-86123750D01*
X136227000Y-88473000D01*
X137826250Y-88473000D01*
X137985000Y-88314250D01*
X137985000Y-86473691D01*
X137888327Y-86240302D01*
X137709699Y-86061673D01*
X137476310Y-85965000D01*
X136385750Y-85965000D01*
X136227000Y-86123750D01*
X135973000Y-86123750D01*
X135814250Y-85965000D01*
X134723690Y-85965000D01*
X134490301Y-86061673D01*
X134311673Y-86240302D01*
X134215000Y-86473691D01*
X131301111Y-86473691D01*
X134586383Y-83188419D01*
X134598110Y-83196431D01*
X134850000Y-83247440D01*
X137350000Y-83247440D01*
X137585317Y-83203162D01*
X137801441Y-83064090D01*
X137946431Y-82851890D01*
X137997440Y-82600000D01*
X137997440Y-81460000D01*
X139732972Y-81460000D01*
X139913201Y-81534838D01*
X140285167Y-81535162D01*
X140628943Y-81393117D01*
X140892192Y-81130327D01*
X140940115Y-81014917D01*
X151340000Y-91414802D01*
X151340000Y-95519531D01*
X151325302Y-95529352D01*
X151070000Y-95911438D01*
X150814698Y-95529352D01*
X150349151Y-95218283D01*
X149800000Y-95109050D01*
X149250849Y-95218283D01*
X148785302Y-95529352D01*
X148530000Y-95911438D01*
X148274698Y-95529352D01*
X147809151Y-95218283D01*
X147260000Y-95109050D01*
X146710849Y-95218283D01*
X146245302Y-95529352D01*
X145990000Y-95911438D01*
X145734698Y-95529352D01*
X145360000Y-95278986D01*
X145360000Y-95222038D01*
X145460317Y-95203162D01*
X145676441Y-95064090D01*
X145821431Y-94851890D01*
X145872440Y-94600000D01*
X145872440Y-93100000D01*
X145828162Y-92864683D01*
X145689090Y-92648559D01*
X145620994Y-92602031D01*
X145763327Y-92459698D01*
X145860000Y-92226309D01*
X145860000Y-91635750D01*
X145701250Y-91477000D01*
X144727000Y-91477000D01*
X144727000Y-91497000D01*
X144473000Y-91497000D01*
X144473000Y-91477000D01*
X143498750Y-91477000D01*
X143340000Y-91635750D01*
X143340000Y-92226309D01*
X143436673Y-92459698D01*
X143577910Y-92600936D01*
X143523559Y-92635910D01*
X143378569Y-92848110D01*
X143327560Y-93100000D01*
X143327560Y-94600000D01*
X143371838Y-94835317D01*
X143510910Y-95051441D01*
X143723110Y-95196431D01*
X143840000Y-95220102D01*
X143840000Y-95439350D01*
X143705302Y-95529352D01*
X143450000Y-95911438D01*
X143194698Y-95529352D01*
X142729151Y-95218283D01*
X142180000Y-95109050D01*
X141630849Y-95218283D01*
X141165302Y-95529352D01*
X140910000Y-95911438D01*
X140654698Y-95529352D01*
X140189151Y-95218283D01*
X139640000Y-95109050D01*
X139090849Y-95218283D01*
X138625302Y-95529352D01*
X138372493Y-95907707D01*
X138024896Y-95475500D01*
X137531819Y-95205633D01*
X137449039Y-95188096D01*
X137227000Y-95310085D01*
X137227000Y-96853000D01*
X137247000Y-96853000D01*
X137247000Y-97107000D01*
X137227000Y-97107000D01*
X137227000Y-98649915D01*
X137449039Y-98771904D01*
X137531819Y-98754367D01*
X138024896Y-98484500D01*
X138372493Y-98052293D01*
X138625302Y-98430648D01*
X139090849Y-98741717D01*
X139334930Y-98790268D01*
X138085198Y-100040000D01*
X130162463Y-100040000D01*
X130130327Y-100007808D01*
X129786799Y-99865162D01*
X129414833Y-99864838D01*
X129071057Y-100006883D01*
X128807808Y-100269673D01*
X128665162Y-100613201D01*
X128664838Y-100985167D01*
X128806883Y-101328943D01*
X129069673Y-101592192D01*
X129413201Y-101734838D01*
X129785167Y-101735162D01*
X130128943Y-101593117D01*
X130162118Y-101560000D01*
X138400000Y-101560000D01*
X138690839Y-101502148D01*
X138937401Y-101337401D01*
X141572244Y-98702558D01*
X141630849Y-98741717D01*
X142180000Y-98850950D01*
X142729151Y-98741717D01*
X143194698Y-98430648D01*
X143450000Y-98048562D01*
X143705302Y-98430648D01*
X144170849Y-98741717D01*
X144720000Y-98850950D01*
X145269151Y-98741717D01*
X145734698Y-98430648D01*
X145990000Y-98048562D01*
X146245302Y-98430648D01*
X146500000Y-98600832D01*
X146500000Y-100825198D01*
X145462599Y-101862599D01*
X145297852Y-102109161D01*
X145240000Y-102400000D01*
X145240000Y-102832485D01*
X144720000Y-102729050D01*
X144170849Y-102838283D01*
X143705302Y-103149352D01*
X143450000Y-103531438D01*
X143194698Y-103149352D01*
X142729151Y-102838283D01*
X142180000Y-102729050D01*
X141630849Y-102838283D01*
X141165302Y-103149352D01*
X140910000Y-103531438D01*
X140654698Y-103149352D01*
X140189151Y-102838283D01*
X139640000Y-102729050D01*
X139090849Y-102838283D01*
X138625302Y-103149352D01*
X138527749Y-103295350D01*
X138503162Y-103164683D01*
X138364090Y-102948559D01*
X138151890Y-102803569D01*
X137900000Y-102752560D01*
X136300000Y-102752560D01*
X136064683Y-102796838D01*
X135848559Y-102935910D01*
X135703569Y-103148110D01*
X135652560Y-103400000D01*
X135652560Y-104831216D01*
X133243776Y-107240000D01*
X132095558Y-107240000D01*
X132053162Y-107014683D01*
X131914090Y-106798559D01*
X131701890Y-106653569D01*
X131634459Y-106639914D01*
X131679147Y-106610054D01*
X132001054Y-106128285D01*
X132114093Y-105560000D01*
X132001054Y-104991715D01*
X131679147Y-104509946D01*
X131197378Y-104188039D01*
X130629093Y-104075000D01*
X130570907Y-104075000D01*
X130002622Y-104188039D01*
X129520853Y-104509946D01*
X129198946Y-104991715D01*
X129105798Y-105460000D01*
X128022440Y-105460000D01*
X128022440Y-104935000D01*
X127978162Y-104699683D01*
X127839090Y-104483559D01*
X127626890Y-104338569D01*
X127375000Y-104287560D01*
X124825000Y-104287560D01*
X124589683Y-104331838D01*
X124373559Y-104470910D01*
X124228569Y-104683110D01*
X124177560Y-104935000D01*
X124177560Y-105460000D01*
X123549669Y-105460000D01*
X123539090Y-105443559D01*
X123326890Y-105298569D01*
X123075000Y-105247560D01*
X122568784Y-105247560D01*
X122410000Y-105088776D01*
X122410000Y-103022440D01*
X123050000Y-103022440D01*
X123285317Y-102978162D01*
X123501441Y-102839090D01*
X123646431Y-102626890D01*
X123697440Y-102375000D01*
X123697440Y-100165750D01*
X124190000Y-100165750D01*
X124190000Y-101391309D01*
X124286673Y-101624698D01*
X124465301Y-101803327D01*
X124698690Y-101900000D01*
X125814250Y-101900000D01*
X125973000Y-101741250D01*
X125973000Y-100007000D01*
X126227000Y-100007000D01*
X126227000Y-101741250D01*
X126385750Y-101900000D01*
X127501310Y-101900000D01*
X127734699Y-101803327D01*
X127913327Y-101624698D01*
X128010000Y-101391309D01*
X128010000Y-100165750D01*
X127851250Y-100007000D01*
X126227000Y-100007000D01*
X125973000Y-100007000D01*
X124348750Y-100007000D01*
X124190000Y-100165750D01*
X123697440Y-100165750D01*
X123697440Y-99175000D01*
X123653162Y-98939683D01*
X123514090Y-98723559D01*
X123301890Y-98578569D01*
X123050000Y-98527560D01*
X120050000Y-98527560D01*
X119814683Y-98571838D01*
X119598559Y-98710910D01*
X119453569Y-98923110D01*
X119402560Y-99175000D01*
X119402560Y-102375000D01*
X119446838Y-102610317D01*
X119585910Y-102826441D01*
X119798110Y-102971431D01*
X120050000Y-103022440D01*
X120690000Y-103022440D01*
X120690000Y-105445000D01*
X120755464Y-105774108D01*
X120877560Y-105956838D01*
X120877560Y-106495000D01*
X120921838Y-106730317D01*
X120985678Y-106829528D01*
X120928569Y-106913110D01*
X120877560Y-107165000D01*
X120877560Y-107765000D01*
X120921838Y-108000317D01*
X120985678Y-108099528D01*
X120928569Y-108183110D01*
X120877560Y-108435000D01*
X120877560Y-109035000D01*
X120921838Y-109270317D01*
X120985678Y-109369528D01*
X120928569Y-109453110D01*
X120877560Y-109705000D01*
X120877560Y-110305000D01*
X120921838Y-110540317D01*
X121060910Y-110756441D01*
X121273110Y-110901431D01*
X121525000Y-110952440D01*
X121540000Y-110952440D01*
X121540000Y-111035198D01*
X120497638Y-112077560D01*
X119950000Y-112077560D01*
X119714683Y-112121838D01*
X119600022Y-112195620D01*
X119501890Y-112128569D01*
X119250000Y-112077560D01*
X118050000Y-112077560D01*
X117814683Y-112121838D01*
X117598559Y-112260910D01*
X117559151Y-112318586D01*
X117514090Y-112248559D01*
X117301890Y-112103569D01*
X117050000Y-112052560D01*
X116860000Y-112052560D01*
X116860000Y-111119802D01*
X117027362Y-110952440D01*
X117675000Y-110952440D01*
X117910317Y-110908162D01*
X118126441Y-110769090D01*
X118271431Y-110556890D01*
X118285021Y-110489781D01*
X119137401Y-109637401D01*
X119302148Y-109390839D01*
X119360000Y-109100000D01*
X119360000Y-102550000D01*
X119302148Y-102259161D01*
X119302148Y-102259160D01*
X119137401Y-102012599D01*
X118797440Y-101672638D01*
X118797440Y-99000000D01*
X118753162Y-98764683D01*
X118614090Y-98548559D01*
X118401890Y-98403569D01*
X118229658Y-98368691D01*
X124190000Y-98368691D01*
X124190000Y-99594250D01*
X124348750Y-99753000D01*
X125973000Y-99753000D01*
X125973000Y-98018750D01*
X126227000Y-98018750D01*
X126227000Y-99753000D01*
X127851250Y-99753000D01*
X128010000Y-99594250D01*
X128010000Y-98368691D01*
X127913327Y-98135302D01*
X127734699Y-97956673D01*
X127501310Y-97860000D01*
X126385750Y-97860000D01*
X126227000Y-98018750D01*
X125973000Y-98018750D01*
X125814250Y-97860000D01*
X124698690Y-97860000D01*
X124465301Y-97956673D01*
X124286673Y-98135302D01*
X124190000Y-98368691D01*
X118229658Y-98368691D01*
X118150000Y-98352560D01*
X115150000Y-98352560D01*
X114960000Y-98388311D01*
X114960000Y-97107000D01*
X135665000Y-97107000D01*
X135665000Y-97507000D01*
X135822834Y-98046483D01*
X136175104Y-98484500D01*
X136668181Y-98754367D01*
X136750961Y-98771904D01*
X136973000Y-98649915D01*
X136973000Y-97107000D01*
X135665000Y-97107000D01*
X114960000Y-97107000D01*
X114960000Y-96453000D01*
X135665000Y-96453000D01*
X135665000Y-96853000D01*
X136973000Y-96853000D01*
X136973000Y-95310085D01*
X136750961Y-95188096D01*
X136668181Y-95205633D01*
X136175104Y-95475500D01*
X135822834Y-95913517D01*
X135665000Y-96453000D01*
X114960000Y-96453000D01*
X114960000Y-78600327D01*
X115260000Y-78660000D01*
X116704442Y-78660000D01*
X116746838Y-78885317D01*
X116885910Y-79101441D01*
X117098110Y-79246431D01*
X117350000Y-79297440D01*
X119050000Y-79297440D01*
X119285317Y-79253162D01*
X119501441Y-79114090D01*
X119646431Y-78901890D01*
X119660086Y-78834459D01*
X119689946Y-78879147D01*
X120171715Y-79201054D01*
X120740000Y-79314093D01*
X121308285Y-79201054D01*
X121790054Y-78879147D01*
X122111961Y-78397378D01*
X122225000Y-77829093D01*
X122225000Y-77770907D01*
X122111961Y-77202622D01*
X122059221Y-77123690D01*
X124015000Y-77123690D01*
X124015000Y-77364250D01*
X124173750Y-77523000D01*
X125473000Y-77523000D01*
X125473000Y-76773750D01*
X125727000Y-76773750D01*
X125727000Y-77523000D01*
X127026250Y-77523000D01*
X127185000Y-77364250D01*
X127185000Y-77123690D01*
X127088327Y-76890301D01*
X126909698Y-76711673D01*
X126676309Y-76615000D01*
X125885750Y-76615000D01*
X125727000Y-76773750D01*
X125473000Y-76773750D01*
X125314250Y-76615000D01*
X124523691Y-76615000D01*
X124290302Y-76711673D01*
X124111673Y-76890301D01*
X124015000Y-77123690D01*
X122059221Y-77123690D01*
X121790054Y-76720853D01*
X121600000Y-76593863D01*
X121600000Y-75656939D01*
X121800000Y-75697440D01*
X123400000Y-75697440D01*
X123635317Y-75653162D01*
X123851441Y-75514090D01*
X123996431Y-75301890D01*
X124047440Y-75050000D01*
X124047440Y-74160000D01*
X130052560Y-74160000D01*
X130052560Y-75725000D01*
X130096838Y-75960317D01*
X130235910Y-76176441D01*
X130448110Y-76321431D01*
X130700000Y-76372440D01*
X131252758Y-76372440D01*
X129932433Y-77692765D01*
X129801890Y-77603569D01*
X129550000Y-77552560D01*
X127650000Y-77552560D01*
X127414683Y-77596838D01*
X127198559Y-77735910D01*
X127111936Y-77862686D01*
X127026250Y-77777000D01*
X125727000Y-77777000D01*
X125727000Y-77797000D01*
X125473000Y-77797000D01*
X125473000Y-77777000D01*
X124173750Y-77777000D01*
X124015000Y-77935750D01*
X124015000Y-78176310D01*
X124111673Y-78409699D01*
X124290302Y-78588327D01*
X124326747Y-78603423D01*
X124198559Y-78685910D01*
X124053569Y-78898110D01*
X124002560Y-79150000D01*
X124002560Y-79950000D01*
X124046838Y-80185317D01*
X124185910Y-80401441D01*
X124398110Y-80546431D01*
X124650000Y-80597440D01*
X125527758Y-80597440D01*
X125172638Y-80952560D01*
X121600000Y-80952560D01*
X121364683Y-80996838D01*
X121148559Y-81135910D01*
X121003569Y-81348110D01*
X120952560Y-81600000D01*
X120952560Y-87100000D01*
X120996838Y-87335317D01*
X121135910Y-87551441D01*
X121348110Y-87696431D01*
X121600000Y-87747440D01*
X125600000Y-87747440D01*
X125835317Y-87703162D01*
X126051441Y-87564090D01*
X126196431Y-87351890D01*
X126247440Y-87100000D01*
X126247440Y-82027362D01*
X128627362Y-79647440D01*
X129550000Y-79647440D01*
X129785317Y-79603162D01*
X130001441Y-79464090D01*
X130072563Y-79360000D01*
X130100000Y-79360000D01*
X130390839Y-79302148D01*
X130637401Y-79137401D01*
X133402909Y-76371893D01*
X133635317Y-76328162D01*
X133738646Y-76261672D01*
X133740301Y-76263327D01*
X133973690Y-76360000D01*
X134314250Y-76360000D01*
X134473000Y-76201250D01*
X134473000Y-73927000D01*
X134453000Y-73927000D01*
X134453000Y-73673000D01*
X134473000Y-73673000D01*
X134473000Y-71398750D01*
X134314250Y-71240000D01*
X133973690Y-71240000D01*
X133740301Y-71336673D01*
X133738932Y-71338042D01*
X133651890Y-71278569D01*
X133400000Y-71227560D01*
X132400000Y-71227560D01*
X132164683Y-71271838D01*
X132050022Y-71345620D01*
X131951890Y-71278569D01*
X131700000Y-71227560D01*
X130700000Y-71227560D01*
X130464683Y-71271838D01*
X130248559Y-71410910D01*
X130103569Y-71623110D01*
X130052560Y-71875000D01*
X130052560Y-72440000D01*
X124047440Y-72440000D01*
X124047440Y-71550000D01*
X124003162Y-71314683D01*
X123864090Y-71098559D01*
X123651890Y-70953569D01*
X123400000Y-70902560D01*
X121800000Y-70902560D01*
X121564683Y-70946838D01*
X121348559Y-71085910D01*
X121203569Y-71298110D01*
X121152560Y-71550000D01*
X121152560Y-73531216D01*
X120131888Y-74551888D01*
X119945464Y-74830892D01*
X119880000Y-75160000D01*
X119880000Y-76593863D01*
X119689946Y-76720853D01*
X119662150Y-76762452D01*
X119653162Y-76714683D01*
X119514090Y-76498559D01*
X119301890Y-76353569D01*
X119050000Y-76302560D01*
X117350000Y-76302560D01*
X117114683Y-76346838D01*
X116898559Y-76485910D01*
X116753569Y-76698110D01*
X116704585Y-76940000D01*
X115616224Y-76940000D01*
X113064673Y-74388449D01*
X113114093Y-74140000D01*
X113001054Y-73571715D01*
X112679147Y-73089946D01*
X112637548Y-73062150D01*
X112685317Y-73053162D01*
X112901441Y-72914090D01*
X113046431Y-72701890D01*
X113097440Y-72450000D01*
X113097440Y-70750000D01*
X113053162Y-70514683D01*
X112914090Y-70298559D01*
X112701890Y-70153569D01*
X112450000Y-70102560D01*
X110750000Y-70102560D01*
X110514683Y-70146838D01*
X110298559Y-70285910D01*
X110153569Y-70498110D01*
X110102560Y-70750000D01*
X110102560Y-72450000D01*
X110146838Y-72685317D01*
X110285910Y-72901441D01*
X110498110Y-73046431D01*
X110565541Y-73060086D01*
X110520853Y-73089946D01*
X110198946Y-73571715D01*
X110085907Y-74140000D01*
X110198946Y-74708285D01*
X110520853Y-75190054D01*
X111002622Y-75511961D01*
X111570907Y-75625000D01*
X111629093Y-75625000D01*
X111829010Y-75585234D01*
X113240000Y-76996224D01*
X113240000Y-103740000D01*
X112595558Y-103740000D01*
X112553162Y-103514683D01*
X112414090Y-103298559D01*
X112201890Y-103153569D01*
X112134459Y-103139914D01*
X112179147Y-103110054D01*
X112501054Y-102628285D01*
X112614093Y-102060000D01*
X112501054Y-101491715D01*
X112179147Y-101009946D01*
X111838447Y-100782298D01*
X111981358Y-100715183D01*
X112371645Y-100286924D01*
X112541476Y-99876890D01*
X112420155Y-99647000D01*
X111227000Y-99647000D01*
X111227000Y-99667000D01*
X110973000Y-99667000D01*
X110973000Y-99647000D01*
X109779845Y-99647000D01*
X109658524Y-99876890D01*
X109828355Y-100286924D01*
X110218642Y-100715183D01*
X110361553Y-100782298D01*
X110020853Y-101009946D01*
X109698946Y-101491715D01*
X109585907Y-102060000D01*
X109698946Y-102628285D01*
X110020853Y-103110054D01*
X110062452Y-103137850D01*
X110014683Y-103146838D01*
X109798559Y-103285910D01*
X109653569Y-103498110D01*
X109602560Y-103750000D01*
X109602560Y-105450000D01*
X109646838Y-105685317D01*
X109785910Y-105901441D01*
X109998110Y-106046431D01*
X110250000Y-106097440D01*
X111950000Y-106097440D01*
X112185317Y-106053162D01*
X112401441Y-105914090D01*
X112546431Y-105701890D01*
X112595415Y-105460000D01*
X113265000Y-105460000D01*
X113265000Y-106702560D01*
X113100000Y-106702560D01*
X112864683Y-106746838D01*
X112648559Y-106885910D01*
X112503569Y-107098110D01*
X112452560Y-107350000D01*
X112452560Y-109850000D01*
X112496838Y-110085317D01*
X112635910Y-110301441D01*
X112848110Y-110446431D01*
X113100000Y-110497440D01*
X115100000Y-110497440D01*
X115335317Y-110453162D01*
X115487065Y-110355515D01*
X115490754Y-110375122D01*
X115397852Y-110514161D01*
X115340000Y-110805000D01*
X115340000Y-112052560D01*
X115150000Y-112052560D01*
X114914683Y-112096838D01*
X114698559Y-112235910D01*
X114611936Y-112362686D01*
X114526250Y-112277000D01*
X113227000Y-112277000D01*
X113227000Y-112297000D01*
X112973000Y-112297000D01*
X112973000Y-112277000D01*
X111673750Y-112277000D01*
X111515000Y-112435750D01*
X111515000Y-112676310D01*
X111611673Y-112909699D01*
X111790302Y-113088327D01*
X111826747Y-113103423D01*
X111698559Y-113185910D01*
X111553569Y-113398110D01*
X111502560Y-113650000D01*
X111502560Y-114450000D01*
X111546838Y-114685317D01*
X111685910Y-114901441D01*
X111898110Y-115046431D01*
X112150000Y-115097440D01*
X114050000Y-115097440D01*
X114285317Y-115053162D01*
X114501441Y-114914090D01*
X114646431Y-114701890D01*
X114697440Y-114450000D01*
X114697440Y-113959319D01*
X114898110Y-114096431D01*
X115150000Y-114147440D01*
X117050000Y-114147440D01*
X117285317Y-114103162D01*
X117501441Y-113964090D01*
X117557419Y-113882164D01*
X117585910Y-113926441D01*
X117798110Y-114071431D01*
X118050000Y-114122440D01*
X119250000Y-114122440D01*
X119485317Y-114078162D01*
X119599978Y-114004380D01*
X119698110Y-114071431D01*
X119950000Y-114122440D01*
X121150000Y-114122440D01*
X121385317Y-114078162D01*
X121601441Y-113939090D01*
X121746431Y-113726890D01*
X121797440Y-113475000D01*
X121797440Y-112927362D01*
X122837401Y-111887401D01*
X123002148Y-111640839D01*
X123060000Y-111350000D01*
X123060000Y-110952440D01*
X123075000Y-110952440D01*
X123310317Y-110908162D01*
X123526441Y-110769090D01*
X123671431Y-110556890D01*
X123722440Y-110305000D01*
X123722440Y-109705000D01*
X123678162Y-109469683D01*
X123614322Y-109370472D01*
X123671431Y-109286890D01*
X123722440Y-109035000D01*
X123722440Y-108435000D01*
X123678162Y-108199683D01*
X123614322Y-108100472D01*
X123671431Y-108016890D01*
X123722440Y-107765000D01*
X123722440Y-107180000D01*
X124177560Y-107180000D01*
X124177560Y-107705000D01*
X124221838Y-107940317D01*
X124360910Y-108156441D01*
X124573110Y-108301431D01*
X124825000Y-108352440D01*
X127375000Y-108352440D01*
X127610317Y-108308162D01*
X127826441Y-108169090D01*
X127971431Y-107956890D01*
X128022440Y-107705000D01*
X128022440Y-107180000D01*
X129116735Y-107180000D01*
X129102560Y-107250000D01*
X129102560Y-108950000D01*
X129146838Y-109185317D01*
X129285910Y-109401441D01*
X129498110Y-109546431D01*
X129740000Y-109595415D01*
X129740000Y-110604442D01*
X129514683Y-110646838D01*
X129298559Y-110785910D01*
X129153569Y-110998110D01*
X129102560Y-111250000D01*
X129102560Y-112950000D01*
X129146838Y-113185317D01*
X129285910Y-113401441D01*
X129498110Y-113546431D01*
X129565541Y-113560086D01*
X129520853Y-113589946D01*
X129198946Y-114071715D01*
X129085907Y-114640000D01*
X129094675Y-114684079D01*
X127244271Y-116053377D01*
X127319268Y-115952062D01*
X127135552Y-115578179D01*
X126811049Y-115290432D01*
X126401131Y-115148771D01*
X126227000Y-115297437D01*
X126227000Y-116123000D01*
X126247000Y-116123000D01*
X126247000Y-116377000D01*
X126227000Y-116377000D01*
X126227000Y-116397000D01*
X125973000Y-116397000D01*
X125973000Y-116377000D01*
X125953000Y-116377000D01*
X125953000Y-116123000D01*
X125973000Y-116123000D01*
X125973000Y-115297437D01*
X125798869Y-115148771D01*
X125630115Y-115207090D01*
X125459699Y-115036673D01*
X125226310Y-114940000D01*
X125158750Y-114940000D01*
X125000000Y-115098750D01*
X125000000Y-115257067D01*
X124914090Y-115123559D01*
X124701890Y-114978569D01*
X124674215Y-114972965D01*
X124641250Y-114940000D01*
X124573690Y-114940000D01*
X124553247Y-114948468D01*
X124450000Y-114927560D01*
X124393341Y-114927560D01*
X124534838Y-114586799D01*
X124535162Y-114214833D01*
X124393117Y-113871057D01*
X124130327Y-113607808D01*
X123944257Y-113530545D01*
X126739681Y-110735122D01*
X126785167Y-110735162D01*
X127128943Y-110593117D01*
X127392192Y-110330327D01*
X127534838Y-109986799D01*
X127535162Y-109614833D01*
X127393117Y-109271057D01*
X127130327Y-109007808D01*
X126786799Y-108865162D01*
X126414833Y-108864838D01*
X126071057Y-109006883D01*
X125807808Y-109269673D01*
X125665162Y-109613201D01*
X125665121Y-109660076D01*
X122412599Y-112912599D01*
X122247852Y-113159161D01*
X122190000Y-113450000D01*
X122190000Y-114927560D01*
X122100000Y-114927560D01*
X121864683Y-114971838D01*
X121648559Y-115110910D01*
X121580367Y-115210712D01*
X121401131Y-115148771D01*
X121227000Y-115297437D01*
X121227000Y-116123000D01*
X121247000Y-116123000D01*
X121247000Y-116377000D01*
X121227000Y-116377000D01*
X121227000Y-117202563D01*
X121401131Y-117351229D01*
X121440000Y-117337797D01*
X121440000Y-117400000D01*
X121441042Y-117405237D01*
X121440064Y-117410486D01*
X121473741Y-117569627D01*
X121505464Y-117729108D01*
X121508429Y-117733546D01*
X121509535Y-117738771D01*
X121601537Y-117872892D01*
X121691888Y-118008112D01*
X121696328Y-118011079D01*
X121699348Y-118015481D01*
X121835662Y-118104178D01*
X121970892Y-118194536D01*
X121976128Y-118195578D01*
X121980604Y-118198490D01*
X122480604Y-118398490D01*
X122640505Y-118428274D01*
X122800000Y-118460000D01*
X125992974Y-118460000D01*
X125965000Y-118548000D01*
X125965000Y-118823000D01*
X126973000Y-118823000D01*
X126973000Y-118803000D01*
X127227000Y-118803000D01*
X127227000Y-118823000D01*
X128235000Y-118823000D01*
X128235000Y-118548000D01*
X128100002Y-118123322D01*
X127812763Y-117782632D01*
X127804465Y-117778558D01*
X130151689Y-116041612D01*
X130570907Y-116125000D01*
X130629093Y-116125000D01*
X131197378Y-116011961D01*
X131679147Y-115690054D01*
X132001054Y-115208285D01*
X132114093Y-114640000D01*
X132001054Y-114071715D01*
X131679147Y-113589946D01*
X131637548Y-113562150D01*
X131685317Y-113553162D01*
X131901441Y-113414090D01*
X132046431Y-113201890D01*
X132097440Y-112950000D01*
X132097440Y-111860000D01*
X133873258Y-111860000D01*
X133896838Y-111985317D01*
X134035910Y-112201441D01*
X134248110Y-112346431D01*
X134500000Y-112397440D01*
X136000000Y-112397440D01*
X136235317Y-112353162D01*
X136451441Y-112214090D01*
X136596431Y-112001890D01*
X136599081Y-111988803D01*
X136735910Y-112201441D01*
X136948110Y-112346431D01*
X137200000Y-112397440D01*
X138700000Y-112397440D01*
X138935317Y-112353162D01*
X139151441Y-112214090D01*
X139296431Y-112001890D01*
X139325164Y-111860000D01*
X140043156Y-111860000D01*
X140085910Y-111926441D01*
X140298110Y-112071431D01*
X140550000Y-112122440D01*
X141750000Y-112122440D01*
X141985317Y-112078162D01*
X142088646Y-112011671D01*
X142090302Y-112013327D01*
X142323691Y-112110000D01*
X142764250Y-112110000D01*
X142923000Y-111951250D01*
X142923000Y-111227000D01*
X142903000Y-111227000D01*
X142903000Y-110973000D01*
X142923000Y-110973000D01*
X142923000Y-110248750D01*
X142764250Y-110090000D01*
X142323691Y-110090000D01*
X142090302Y-110186673D01*
X142088932Y-110188043D01*
X142001890Y-110128569D01*
X141750000Y-110077560D01*
X140550000Y-110077560D01*
X140314683Y-110121838D01*
X140098559Y-110260910D01*
X140044519Y-110340000D01*
X139326742Y-110340000D01*
X139303162Y-110214683D01*
X139164090Y-109998559D01*
X138951890Y-109853569D01*
X138700000Y-109802560D01*
X137200000Y-109802560D01*
X136964683Y-109846838D01*
X136748559Y-109985910D01*
X136603569Y-110198110D01*
X136600919Y-110211197D01*
X136464090Y-109998559D01*
X136251890Y-109853569D01*
X136000000Y-109802560D01*
X134500000Y-109802560D01*
X134264683Y-109846838D01*
X134048559Y-109985910D01*
X133903569Y-110198110D01*
X133874836Y-110340000D01*
X131600000Y-110340000D01*
X131460000Y-110367848D01*
X131460000Y-109595558D01*
X131685317Y-109553162D01*
X131901441Y-109414090D01*
X132046431Y-109201890D01*
X132095415Y-108960000D01*
X133600000Y-108960000D01*
X133929108Y-108894536D01*
X134208112Y-108708112D01*
X134980474Y-107935750D01*
X136215000Y-107935750D01*
X136215000Y-108076309D01*
X136311673Y-108309698D01*
X136490301Y-108488327D01*
X136723690Y-108585000D01*
X136816250Y-108585000D01*
X136975000Y-108426250D01*
X136975000Y-107777000D01*
X137225000Y-107777000D01*
X137225000Y-108426250D01*
X137383750Y-108585000D01*
X137476310Y-108585000D01*
X137709699Y-108488327D01*
X137888327Y-108309698D01*
X137985000Y-108076309D01*
X137985000Y-107935750D01*
X137826250Y-107777000D01*
X137225000Y-107777000D01*
X136975000Y-107777000D01*
X136373750Y-107777000D01*
X136215000Y-107935750D01*
X134980474Y-107935750D01*
X136202560Y-106713664D01*
X136202560Y-106850000D01*
X136246838Y-107085317D01*
X136262339Y-107109406D01*
X136215000Y-107223691D01*
X136215000Y-107364250D01*
X136373750Y-107523000D01*
X136975000Y-107523000D01*
X136975000Y-107503000D01*
X137225000Y-107503000D01*
X137225000Y-107523000D01*
X137826250Y-107523000D01*
X137985000Y-107364250D01*
X137985000Y-107223691D01*
X137939033Y-107112717D01*
X137946431Y-107101890D01*
X137997440Y-106850000D01*
X137997440Y-106429105D01*
X138135317Y-106403162D01*
X138351441Y-106264090D01*
X138496431Y-106051890D01*
X138526597Y-105902926D01*
X138625302Y-106050648D01*
X139090849Y-106361717D01*
X139640000Y-106470950D01*
X140189151Y-106361717D01*
X140654698Y-106050648D01*
X140910000Y-105668562D01*
X141165302Y-106050648D01*
X141630849Y-106361717D01*
X142180000Y-106470950D01*
X142729151Y-106361717D01*
X143194698Y-106050648D01*
X143450000Y-105668562D01*
X143705302Y-106050648D01*
X143960000Y-106220832D01*
X143960000Y-110166087D01*
X143776309Y-110090000D01*
X143335750Y-110090000D01*
X143177000Y-110248750D01*
X143177000Y-110973000D01*
X143197000Y-110973000D01*
X143197000Y-111227000D01*
X143177000Y-111227000D01*
X143177000Y-111951250D01*
X143335750Y-112110000D01*
X143776309Y-112110000D01*
X143960000Y-112033913D01*
X143960000Y-117165198D01*
X143022638Y-118102560D01*
X141750000Y-118102560D01*
X141514683Y-118146838D01*
X141298559Y-118285910D01*
X141153569Y-118498110D01*
X141102560Y-118750000D01*
X141102560Y-120450000D01*
X141106888Y-120473000D01*
X109227000Y-120473000D01*
X109227000Y-118822981D01*
X109516218Y-119522943D01*
X110074120Y-120081819D01*
X110803427Y-120384654D01*
X111593109Y-120385343D01*
X112322943Y-120083782D01*
X112881819Y-119525880D01*
X113068210Y-119077000D01*
X118965000Y-119077000D01*
X118965000Y-119352000D01*
X119099998Y-119776678D01*
X119387237Y-120117368D01*
X119798126Y-120319119D01*
X119973000Y-120192954D01*
X119973000Y-119077000D01*
X120227000Y-119077000D01*
X120227000Y-120192954D01*
X120401874Y-120319119D01*
X120812763Y-120117368D01*
X121100002Y-119776678D01*
X121235000Y-119352000D01*
X121235000Y-119077000D01*
X125965000Y-119077000D01*
X125965000Y-119352000D01*
X126099998Y-119776678D01*
X126387237Y-120117368D01*
X126798126Y-120319119D01*
X126973000Y-120192954D01*
X126973000Y-119077000D01*
X127227000Y-119077000D01*
X127227000Y-120192954D01*
X127401874Y-120319119D01*
X127812763Y-120117368D01*
X128100002Y-119776678D01*
X128235000Y-119352000D01*
X128235000Y-119077000D01*
X127227000Y-119077000D01*
X126973000Y-119077000D01*
X125965000Y-119077000D01*
X121235000Y-119077000D01*
X120227000Y-119077000D01*
X119973000Y-119077000D01*
X118965000Y-119077000D01*
X113068210Y-119077000D01*
X113184654Y-118796573D01*
X113184870Y-118548000D01*
X118965000Y-118548000D01*
X118965000Y-118823000D01*
X119973000Y-118823000D01*
X119973000Y-117707046D01*
X120227000Y-117707046D01*
X120227000Y-118823000D01*
X121235000Y-118823000D01*
X121235000Y-118548000D01*
X121100002Y-118123322D01*
X120812763Y-117782632D01*
X120401874Y-117580881D01*
X120227000Y-117707046D01*
X119973000Y-117707046D01*
X119798126Y-117580881D01*
X119387237Y-117782632D01*
X119099998Y-118123322D01*
X118965000Y-118548000D01*
X113184870Y-118548000D01*
X113185343Y-118006891D01*
X112883782Y-117277057D01*
X112325880Y-116718181D01*
X111915890Y-116547938D01*
X119880732Y-116547938D01*
X120064448Y-116921821D01*
X120388951Y-117209568D01*
X120798869Y-117351229D01*
X120973000Y-117202563D01*
X120973000Y-116377000D01*
X120007266Y-116377000D01*
X119880732Y-116547938D01*
X111915890Y-116547938D01*
X111596573Y-116415346D01*
X110806891Y-116414657D01*
X110077057Y-116716218D01*
X109518181Y-117274120D01*
X109227000Y-117975361D01*
X109227000Y-115952062D01*
X119880732Y-115952062D01*
X120007266Y-116123000D01*
X120973000Y-116123000D01*
X120973000Y-115297437D01*
X120798869Y-115148771D01*
X120388951Y-115290432D01*
X120064448Y-115578179D01*
X119880732Y-115952062D01*
X109227000Y-115952062D01*
X109227000Y-111623690D01*
X111515000Y-111623690D01*
X111515000Y-111864250D01*
X111673750Y-112023000D01*
X112973000Y-112023000D01*
X112973000Y-111273750D01*
X113227000Y-111273750D01*
X113227000Y-112023000D01*
X114526250Y-112023000D01*
X114685000Y-111864250D01*
X114685000Y-111623690D01*
X114588327Y-111390301D01*
X114409698Y-111211673D01*
X114176309Y-111115000D01*
X113385750Y-111115000D01*
X113227000Y-111273750D01*
X112973000Y-111273750D01*
X112814250Y-111115000D01*
X112023691Y-111115000D01*
X111790302Y-111211673D01*
X111611673Y-111390301D01*
X111515000Y-111623690D01*
X109227000Y-111623690D01*
X109227000Y-110485000D01*
X109814250Y-110485000D01*
X109973000Y-110326250D01*
X109973000Y-108727000D01*
X110227000Y-108727000D01*
X110227000Y-110326250D01*
X110385750Y-110485000D01*
X111226309Y-110485000D01*
X111459698Y-110388327D01*
X111638327Y-110209699D01*
X111735000Y-109976310D01*
X111735000Y-108885750D01*
X111576250Y-108727000D01*
X110227000Y-108727000D01*
X109973000Y-108727000D01*
X109953000Y-108727000D01*
X109953000Y-108473000D01*
X109973000Y-108473000D01*
X109973000Y-106873750D01*
X110227000Y-106873750D01*
X110227000Y-108473000D01*
X111576250Y-108473000D01*
X111735000Y-108314250D01*
X111735000Y-107223690D01*
X111638327Y-106990301D01*
X111459698Y-106811673D01*
X111226309Y-106715000D01*
X110385750Y-106715000D01*
X110227000Y-106873750D01*
X109973000Y-106873750D01*
X109814250Y-106715000D01*
X109227000Y-106715000D01*
X109227000Y-99163110D01*
X109658524Y-99163110D01*
X109779845Y-99393000D01*
X110973000Y-99393000D01*
X110973000Y-98199181D01*
X111227000Y-98199181D01*
X111227000Y-99393000D01*
X112420155Y-99393000D01*
X112541476Y-99163110D01*
X112371645Y-98753076D01*
X111981358Y-98324817D01*
X111456892Y-98078514D01*
X111227000Y-98199181D01*
X110973000Y-98199181D01*
X110743108Y-98078514D01*
X110218642Y-98324817D01*
X109828355Y-98753076D01*
X109658524Y-99163110D01*
X109227000Y-99163110D01*
X109227000Y-85996890D01*
X110158524Y-85996890D01*
X110328355Y-86406924D01*
X110718642Y-86835183D01*
X111243108Y-87081486D01*
X111473000Y-86960819D01*
X111473000Y-85767000D01*
X111727000Y-85767000D01*
X111727000Y-86960819D01*
X111956892Y-87081486D01*
X112481358Y-86835183D01*
X112871645Y-86406924D01*
X113041476Y-85996890D01*
X112920155Y-85767000D01*
X111727000Y-85767000D01*
X111473000Y-85767000D01*
X110279845Y-85767000D01*
X110158524Y-85996890D01*
X109227000Y-85996890D01*
X109227000Y-83385750D01*
X110115000Y-83385750D01*
X110115000Y-84076310D01*
X110211673Y-84309699D01*
X110390302Y-84488327D01*
X110599878Y-84575136D01*
X110328355Y-84873076D01*
X110158524Y-85283110D01*
X110279845Y-85513000D01*
X111473000Y-85513000D01*
X111473000Y-83227000D01*
X111727000Y-83227000D01*
X111727000Y-85513000D01*
X112920155Y-85513000D01*
X113041476Y-85283110D01*
X112871645Y-84873076D01*
X112600122Y-84575136D01*
X112809698Y-84488327D01*
X112988327Y-84309699D01*
X113085000Y-84076310D01*
X113085000Y-83385750D01*
X112926250Y-83227000D01*
X111727000Y-83227000D01*
X111473000Y-83227000D01*
X110273750Y-83227000D01*
X110115000Y-83385750D01*
X109227000Y-83385750D01*
X109227000Y-82123690D01*
X110115000Y-82123690D01*
X110115000Y-82814250D01*
X110273750Y-82973000D01*
X111473000Y-82973000D01*
X111473000Y-81773750D01*
X111727000Y-81773750D01*
X111727000Y-82973000D01*
X112926250Y-82973000D01*
X113085000Y-82814250D01*
X113085000Y-82123690D01*
X112988327Y-81890301D01*
X112809698Y-81711673D01*
X112576309Y-81615000D01*
X111885750Y-81615000D01*
X111727000Y-81773750D01*
X111473000Y-81773750D01*
X111314250Y-81615000D01*
X110623691Y-81615000D01*
X110390302Y-81711673D01*
X110211673Y-81890301D01*
X110115000Y-82123690D01*
X109227000Y-82123690D01*
X109227000Y-68185750D01*
X121165000Y-68185750D01*
X121165000Y-69776309D01*
X121261673Y-70009698D01*
X121440301Y-70188327D01*
X121673690Y-70285000D01*
X122314250Y-70285000D01*
X122473000Y-70126250D01*
X122473000Y-68027000D01*
X122727000Y-68027000D01*
X122727000Y-70126250D01*
X122885750Y-70285000D01*
X123526310Y-70285000D01*
X123759699Y-70188327D01*
X123938327Y-70009698D01*
X124035000Y-69776309D01*
X124035000Y-68185750D01*
X123876250Y-68027000D01*
X122727000Y-68027000D01*
X122473000Y-68027000D01*
X121323750Y-68027000D01*
X121165000Y-68185750D01*
X109227000Y-68185750D01*
X109227000Y-66023691D01*
X121165000Y-66023691D01*
X121165000Y-67614250D01*
X121323750Y-67773000D01*
X122473000Y-67773000D01*
X122473000Y-65673750D01*
X122727000Y-65673750D01*
X122727000Y-67773000D01*
X123876250Y-67773000D01*
X124035000Y-67614250D01*
X124035000Y-66023691D01*
X123938327Y-65790302D01*
X123759699Y-65611673D01*
X123526310Y-65515000D01*
X122885750Y-65515000D01*
X122727000Y-65673750D01*
X122473000Y-65673750D01*
X122314250Y-65515000D01*
X121673690Y-65515000D01*
X121440301Y-65611673D01*
X121261673Y-65790302D01*
X121165000Y-66023691D01*
X109227000Y-66023691D01*
X109227000Y-63185750D01*
X128490000Y-63185750D01*
X128490000Y-67826309D01*
X128586673Y-68059698D01*
X128765301Y-68238327D01*
X128998690Y-68335000D01*
X134314250Y-68335000D01*
X134473000Y-68176250D01*
X134473000Y-63027000D01*
X134727000Y-63027000D01*
X134727000Y-68176250D01*
X134885750Y-68335000D01*
X140201310Y-68335000D01*
X140434699Y-68238327D01*
X140613327Y-68059698D01*
X140685378Y-67885750D01*
X142215000Y-67885750D01*
X142215000Y-68726309D01*
X142311673Y-68959698D01*
X142490301Y-69138327D01*
X142723690Y-69235000D01*
X143814250Y-69235000D01*
X143973000Y-69076250D01*
X143973000Y-67727000D01*
X142373750Y-67727000D01*
X142215000Y-67885750D01*
X140685378Y-67885750D01*
X140710000Y-67826309D01*
X140710000Y-66473691D01*
X142215000Y-66473691D01*
X142215000Y-67314250D01*
X142373750Y-67473000D01*
X143973000Y-67473000D01*
X143973000Y-66123750D01*
X144227000Y-66123750D01*
X144227000Y-67473000D01*
X145826250Y-67473000D01*
X145985000Y-67314250D01*
X145985000Y-66473691D01*
X145888327Y-66240302D01*
X145709699Y-66061673D01*
X145476310Y-65965000D01*
X144385750Y-65965000D01*
X144227000Y-66123750D01*
X143973000Y-66123750D01*
X143814250Y-65965000D01*
X142723690Y-65965000D01*
X142490301Y-66061673D01*
X142311673Y-66240302D01*
X142215000Y-66473691D01*
X140710000Y-66473691D01*
X140710000Y-63385750D01*
X153715000Y-63385750D01*
X153715000Y-64226309D01*
X153811673Y-64459698D01*
X153990301Y-64638327D01*
X154223690Y-64735000D01*
X155314250Y-64735000D01*
X155473000Y-64576250D01*
X155473000Y-63227000D01*
X155727000Y-63227000D01*
X155727000Y-64576250D01*
X155885750Y-64735000D01*
X156976310Y-64735000D01*
X157209699Y-64638327D01*
X157388327Y-64459698D01*
X157485000Y-64226309D01*
X157485000Y-63385750D01*
X157326250Y-63227000D01*
X155727000Y-63227000D01*
X155473000Y-63227000D01*
X153873750Y-63227000D01*
X153715000Y-63385750D01*
X140710000Y-63385750D01*
X140710000Y-63185750D01*
X140551250Y-63027000D01*
X134727000Y-63027000D01*
X134473000Y-63027000D01*
X128648750Y-63027000D01*
X128490000Y-63185750D01*
X109227000Y-63185750D01*
X109227000Y-60622981D01*
X109516218Y-61322943D01*
X110074120Y-61881819D01*
X110803427Y-62184654D01*
X111593109Y-62185343D01*
X112322943Y-61883782D01*
X112881819Y-61325880D01*
X113184654Y-60596573D01*
X113185343Y-59806891D01*
X112883782Y-59077057D01*
X112325880Y-58518181D01*
X111624639Y-58227000D01*
X128490000Y-58227000D01*
X128490000Y-62614250D01*
X128490000Y-62614250D01*
G37*
X128490000Y-62614250D02*
X128648750Y-62773000D01*
X134473000Y-62773000D01*
X134473000Y-62753000D01*
X134727000Y-62753000D01*
X134727000Y-62773000D01*
X140551250Y-62773000D01*
X140710000Y-62614250D01*
X140710000Y-61973691D01*
X153715000Y-61973691D01*
X153715000Y-62814250D01*
X153873750Y-62973000D01*
X155473000Y-62973000D01*
X155473000Y-61623750D01*
X155727000Y-61623750D01*
X155727000Y-62973000D01*
X157326250Y-62973000D01*
X157485000Y-62814250D01*
X157485000Y-61973691D01*
X157388327Y-61740302D01*
X157209699Y-61561673D01*
X156976310Y-61465000D01*
X155885750Y-61465000D01*
X155727000Y-61623750D01*
X155473000Y-61623750D01*
X155314250Y-61465000D01*
X154223690Y-61465000D01*
X153990301Y-61561673D01*
X153811673Y-61740302D01*
X153715000Y-61973691D01*
X140710000Y-61973691D01*
X140710000Y-58227000D01*
X167577019Y-58227000D01*
X166877057Y-58516218D01*
X166318181Y-59074120D01*
X166015346Y-59803427D01*
X166014657Y-60593109D01*
X166316218Y-61322943D01*
X166874120Y-61881819D01*
X167603427Y-62184654D01*
X168393109Y-62185343D01*
X169122943Y-61883782D01*
X169681819Y-61325880D01*
X169952402Y-60674244D01*
X169911422Y-65796736D01*
X169701890Y-65653569D01*
X169450000Y-65602560D01*
X167750000Y-65602560D01*
X167514683Y-65646838D01*
X167298559Y-65785910D01*
X167153569Y-65998110D01*
X167104585Y-66240000D01*
X157497440Y-66240000D01*
X157497440Y-66100000D01*
X157453162Y-65864683D01*
X157314090Y-65648559D01*
X157101890Y-65503569D01*
X156850000Y-65452560D01*
X154350000Y-65452560D01*
X154114683Y-65496838D01*
X153898559Y-65635910D01*
X153753569Y-65848110D01*
X153702560Y-66100000D01*
X153702560Y-66177560D01*
X152170000Y-66177560D01*
X151934683Y-66221838D01*
X151718559Y-66360910D01*
X151598767Y-66536232D01*
X151494090Y-66373559D01*
X151281890Y-66228569D01*
X151030000Y-66177560D01*
X149470000Y-66177560D01*
X149234683Y-66221838D01*
X149089905Y-66315000D01*
X148675682Y-66315000D01*
X148550000Y-66290000D01*
X148220892Y-66355464D01*
X147941888Y-66541888D01*
X145985000Y-68498776D01*
X145985000Y-67885750D01*
X145826250Y-67727000D01*
X144227000Y-67727000D01*
X144227000Y-69076250D01*
X144385750Y-69235000D01*
X145248776Y-69235000D01*
X144531216Y-69952560D01*
X142850000Y-69952560D01*
X142614683Y-69996838D01*
X142398559Y-70135910D01*
X142253569Y-70348110D01*
X142202560Y-70600000D01*
X142202560Y-72600000D01*
X142246838Y-72835317D01*
X142385910Y-73051441D01*
X142598110Y-73196431D01*
X142850000Y-73247440D01*
X143240000Y-73247440D01*
X143240000Y-74604442D01*
X143014683Y-74646838D01*
X142798559Y-74785910D01*
X142653569Y-74998110D01*
X142602560Y-75250000D01*
X142602560Y-76950000D01*
X142646838Y-77185317D01*
X142785910Y-77401441D01*
X142998110Y-77546431D01*
X143065541Y-77560086D01*
X143020853Y-77589946D01*
X142698946Y-78071715D01*
X142585907Y-78640000D01*
X142698946Y-79208285D01*
X143020853Y-79690054D01*
X143502622Y-80011961D01*
X144070907Y-80125000D01*
X144129093Y-80125000D01*
X144697378Y-80011961D01*
X145179147Y-79690054D01*
X145399682Y-79360000D01*
X146797935Y-79360000D01*
X146703569Y-79498110D01*
X146652560Y-79750000D01*
X146652560Y-81250000D01*
X146696838Y-81485317D01*
X146835910Y-81701441D01*
X147048110Y-81846431D01*
X147300000Y-81897440D01*
X149900000Y-81897440D01*
X150135317Y-81853162D01*
X150351441Y-81714090D01*
X150496431Y-81501890D01*
X150547440Y-81250000D01*
X150547440Y-79750000D01*
X150503162Y-79514683D01*
X150364090Y-79298559D01*
X150151890Y-79153569D01*
X149900000Y-79102560D01*
X149456421Y-79102560D01*
X149497440Y-78900000D01*
X149497440Y-78300000D01*
X149453162Y-78064683D01*
X149314090Y-77848559D01*
X149101890Y-77703569D01*
X148850000Y-77652560D01*
X148450000Y-77652560D01*
X148214683Y-77696838D01*
X148203021Y-77704342D01*
X148201890Y-77703569D01*
X147950000Y-77652560D01*
X147550000Y-77652560D01*
X147314683Y-77696838D01*
X147098559Y-77835910D01*
X147095764Y-77840000D01*
X145346227Y-77840000D01*
X145179147Y-77589946D01*
X145137548Y-77562150D01*
X145185317Y-77553162D01*
X145401441Y-77414090D01*
X145546431Y-77201890D01*
X145597440Y-76950000D01*
X145597440Y-75250000D01*
X145553162Y-75014683D01*
X145414090Y-74798559D01*
X145201890Y-74653569D01*
X144960000Y-74604585D01*
X144960000Y-73247440D01*
X145350000Y-73247440D01*
X145585317Y-73203162D01*
X145801441Y-73064090D01*
X145946431Y-72851890D01*
X145997440Y-72600000D01*
X145997440Y-70918784D01*
X148931224Y-67985000D01*
X149091614Y-67985000D01*
X149218110Y-68071431D01*
X149355120Y-68099176D01*
X149234683Y-68121838D01*
X149071257Y-68227000D01*
X148993750Y-68227000D01*
X148835000Y-68385750D01*
X148835000Y-68551310D01*
X148850268Y-68588171D01*
X148822560Y-68725000D01*
X148822560Y-69375000D01*
X148866838Y-69610317D01*
X149005910Y-69826441D01*
X149218110Y-69971431D01*
X149470000Y-70022440D01*
X150147638Y-70022440D01*
X154120000Y-73994802D01*
X154120000Y-95359168D01*
X153865302Y-95529352D01*
X153610000Y-95911438D01*
X153354698Y-95529352D01*
X152889151Y-95218283D01*
X152860000Y-95212485D01*
X152860000Y-91100000D01*
X152802148Y-90809161D01*
X152802148Y-90809160D01*
X152637401Y-90562599D01*
X145860552Y-83785750D01*
X146665000Y-83785750D01*
X146665000Y-84376309D01*
X146761673Y-84609698D01*
X146940301Y-84788327D01*
X147173690Y-84885000D01*
X148314250Y-84885000D01*
X148473000Y-84726250D01*
X148473000Y-83627000D01*
X148727000Y-83627000D01*
X148727000Y-84726250D01*
X148885750Y-84885000D01*
X150026310Y-84885000D01*
X150259699Y-84788327D01*
X150438327Y-84609698D01*
X150535000Y-84376309D01*
X150535000Y-83785750D01*
X150376250Y-83627000D01*
X148727000Y-83627000D01*
X148473000Y-83627000D01*
X146823750Y-83627000D01*
X146665000Y-83785750D01*
X145860552Y-83785750D01*
X144698493Y-82623691D01*
X146665000Y-82623691D01*
X146665000Y-83214250D01*
X146823750Y-83373000D01*
X148473000Y-83373000D01*
X148473000Y-82273750D01*
X148727000Y-82273750D01*
X148727000Y-83373000D01*
X150376250Y-83373000D01*
X150535000Y-83214250D01*
X150535000Y-82623691D01*
X150438327Y-82390302D01*
X150259699Y-82211673D01*
X150026310Y-82115000D01*
X148885750Y-82115000D01*
X148727000Y-82273750D01*
X148473000Y-82273750D01*
X148314250Y-82115000D01*
X147173690Y-82115000D01*
X146940301Y-82211673D01*
X146761673Y-82390302D01*
X146665000Y-82623691D01*
X144698493Y-82623691D01*
X138760000Y-76685198D01*
X138760000Y-76312279D01*
X138951441Y-76189090D01*
X139096431Y-75976890D01*
X139147440Y-75725000D01*
X139147440Y-71875000D01*
X139103162Y-71639683D01*
X138964090Y-71423559D01*
X138751890Y-71278569D01*
X138500000Y-71227560D01*
X137500000Y-71227560D01*
X137264683Y-71271838D01*
X137150022Y-71345620D01*
X137051890Y-71278569D01*
X136800000Y-71227560D01*
X135800000Y-71227560D01*
X135564683Y-71271838D01*
X135461354Y-71338328D01*
X135459699Y-71336673D01*
X135226310Y-71240000D01*
X134885750Y-71240000D01*
X134727000Y-71398750D01*
X134727000Y-73673000D01*
X134747000Y-73673000D01*
X134747000Y-73927000D01*
X134727000Y-73927000D01*
X134727000Y-76201250D01*
X134885750Y-76360000D01*
X135226310Y-76360000D01*
X135440000Y-76271487D01*
X135440000Y-77952560D01*
X134850000Y-77952560D01*
X134614683Y-77996838D01*
X134398559Y-78135910D01*
X134253569Y-78348110D01*
X134202560Y-78600000D01*
X134202560Y-81422638D01*
X126012137Y-89613061D01*
X125851890Y-89503569D01*
X125600000Y-89452560D01*
X121600000Y-89452560D01*
X121364683Y-89496838D01*
X121148559Y-89635910D01*
X121003569Y-89848110D01*
X120952560Y-90100000D01*
X120952560Y-95600000D01*
X120996838Y-95835317D01*
X121135910Y-96051441D01*
X121348110Y-96196431D01*
X121600000Y-96247440D01*
X125600000Y-96247440D01*
X125835317Y-96203162D01*
X126051441Y-96064090D01*
X126196431Y-95851890D01*
X126247440Y-95600000D01*
X126247440Y-91527362D01*
X128889052Y-88885750D01*
X134215000Y-88885750D01*
X134215000Y-90726309D01*
X134311673Y-90959698D01*
X134490301Y-91138327D01*
X134723690Y-91235000D01*
X135814250Y-91235000D01*
X135973000Y-91076250D01*
X135973000Y-88727000D01*
X136227000Y-88727000D01*
X136227000Y-91076250D01*
X136385750Y-91235000D01*
X137476310Y-91235000D01*
X137709699Y-91138327D01*
X137888327Y-90959698D01*
X137985000Y-90726309D01*
X137985000Y-90473691D01*
X143340000Y-90473691D01*
X143340000Y-91064250D01*
X143498750Y-91223000D01*
X144473000Y-91223000D01*
X144473000Y-90123750D01*
X144727000Y-90123750D01*
X144727000Y-91223000D01*
X145701250Y-91223000D01*
X145860000Y-91064250D01*
X145860000Y-90473691D01*
X145763327Y-90240302D01*
X145584699Y-90061673D01*
X145351310Y-89965000D01*
X144885750Y-89965000D01*
X144727000Y-90123750D01*
X144473000Y-90123750D01*
X144314250Y-89965000D01*
X143848690Y-89965000D01*
X143615301Y-90061673D01*
X143436673Y-90240302D01*
X143340000Y-90473691D01*
X137985000Y-90473691D01*
X137985000Y-88885750D01*
X137826250Y-88727000D01*
X136227000Y-88727000D01*
X135973000Y-88727000D01*
X134373750Y-88727000D01*
X134215000Y-88885750D01*
X128889052Y-88885750D01*
X131301111Y-86473691D01*
X134215000Y-86473691D01*
X134215000Y-88314250D01*
X134373750Y-88473000D01*
X135973000Y-88473000D01*
X135973000Y-86123750D01*
X136227000Y-86123750D01*
X136227000Y-88473000D01*
X137826250Y-88473000D01*
X137985000Y-88314250D01*
X137985000Y-86473691D01*
X137888327Y-86240302D01*
X137709699Y-86061673D01*
X137476310Y-85965000D01*
X136385750Y-85965000D01*
X136227000Y-86123750D01*
X135973000Y-86123750D01*
X135814250Y-85965000D01*
X134723690Y-85965000D01*
X134490301Y-86061673D01*
X134311673Y-86240302D01*
X134215000Y-86473691D01*
X131301111Y-86473691D01*
X134586383Y-83188419D01*
X134598110Y-83196431D01*
X134850000Y-83247440D01*
X137350000Y-83247440D01*
X137585317Y-83203162D01*
X137801441Y-83064090D01*
X137946431Y-82851890D01*
X137997440Y-82600000D01*
X137997440Y-81460000D01*
X139732972Y-81460000D01*
X139913201Y-81534838D01*
X140285167Y-81535162D01*
X140628943Y-81393117D01*
X140892192Y-81130327D01*
X140940115Y-81014917D01*
X151340000Y-91414802D01*
X151340000Y-95519531D01*
X151325302Y-95529352D01*
X151070000Y-95911438D01*
X150814698Y-95529352D01*
X150349151Y-95218283D01*
X149800000Y-95109050D01*
X149250849Y-95218283D01*
X148785302Y-95529352D01*
X148530000Y-95911438D01*
X148274698Y-95529352D01*
X147809151Y-95218283D01*
X147260000Y-95109050D01*
X146710849Y-95218283D01*
X146245302Y-95529352D01*
X145990000Y-95911438D01*
X145734698Y-95529352D01*
X145360000Y-95278986D01*
X145360000Y-95222038D01*
X145460317Y-95203162D01*
X145676441Y-95064090D01*
X145821431Y-94851890D01*
X145872440Y-94600000D01*
X145872440Y-93100000D01*
X145828162Y-92864683D01*
X145689090Y-92648559D01*
X145620994Y-92602031D01*
X145763327Y-92459698D01*
X145860000Y-92226309D01*
X145860000Y-91635750D01*
X145701250Y-91477000D01*
X144727000Y-91477000D01*
X144727000Y-91497000D01*
X144473000Y-91497000D01*
X144473000Y-91477000D01*
X143498750Y-91477000D01*
X143340000Y-91635750D01*
X143340000Y-92226309D01*
X143436673Y-92459698D01*
X143577910Y-92600936D01*
X143523559Y-92635910D01*
X143378569Y-92848110D01*
X143327560Y-93100000D01*
X143327560Y-94600000D01*
X143371838Y-94835317D01*
X143510910Y-95051441D01*
X143723110Y-95196431D01*
X143840000Y-95220102D01*
X143840000Y-95439350D01*
X143705302Y-95529352D01*
X143450000Y-95911438D01*
X143194698Y-95529352D01*
X142729151Y-95218283D01*
X142180000Y-95109050D01*
X141630849Y-95218283D01*
X141165302Y-95529352D01*
X140910000Y-95911438D01*
X140654698Y-95529352D01*
X140189151Y-95218283D01*
X139640000Y-95109050D01*
X139090849Y-95218283D01*
X138625302Y-95529352D01*
X138372493Y-95907707D01*
X138024896Y-95475500D01*
X137531819Y-95205633D01*
X137449039Y-95188096D01*
X137227000Y-95310085D01*
X137227000Y-96853000D01*
X137247000Y-96853000D01*
X137247000Y-97107000D01*
X137227000Y-97107000D01*
X137227000Y-98649915D01*
X137449039Y-98771904D01*
X137531819Y-98754367D01*
X138024896Y-98484500D01*
X138372493Y-98052293D01*
X138625302Y-98430648D01*
X139090849Y-98741717D01*
X139334930Y-98790268D01*
X138085198Y-100040000D01*
X130162463Y-100040000D01*
X130130327Y-100007808D01*
X129786799Y-99865162D01*
X129414833Y-99864838D01*
X129071057Y-100006883D01*
X128807808Y-100269673D01*
X128665162Y-100613201D01*
X128664838Y-100985167D01*
X128806883Y-101328943D01*
X129069673Y-101592192D01*
X129413201Y-101734838D01*
X129785167Y-101735162D01*
X130128943Y-101593117D01*
X130162118Y-101560000D01*
X138400000Y-101560000D01*
X138690839Y-101502148D01*
X138937401Y-101337401D01*
X141572244Y-98702558D01*
X141630849Y-98741717D01*
X142180000Y-98850950D01*
X142729151Y-98741717D01*
X143194698Y-98430648D01*
X143450000Y-98048562D01*
X143705302Y-98430648D01*
X144170849Y-98741717D01*
X144720000Y-98850950D01*
X145269151Y-98741717D01*
X145734698Y-98430648D01*
X145990000Y-98048562D01*
X146245302Y-98430648D01*
X146500000Y-98600832D01*
X146500000Y-100825198D01*
X145462599Y-101862599D01*
X145297852Y-102109161D01*
X145240000Y-102400000D01*
X145240000Y-102832485D01*
X144720000Y-102729050D01*
X144170849Y-102838283D01*
X143705302Y-103149352D01*
X143450000Y-103531438D01*
X143194698Y-103149352D01*
X142729151Y-102838283D01*
X142180000Y-102729050D01*
X141630849Y-102838283D01*
X141165302Y-103149352D01*
X140910000Y-103531438D01*
X140654698Y-103149352D01*
X140189151Y-102838283D01*
X139640000Y-102729050D01*
X139090849Y-102838283D01*
X138625302Y-103149352D01*
X138527749Y-103295350D01*
X138503162Y-103164683D01*
X138364090Y-102948559D01*
X138151890Y-102803569D01*
X137900000Y-102752560D01*
X136300000Y-102752560D01*
X136064683Y-102796838D01*
X135848559Y-102935910D01*
X135703569Y-103148110D01*
X135652560Y-103400000D01*
X135652560Y-104831216D01*
X133243776Y-107240000D01*
X132095558Y-107240000D01*
X132053162Y-107014683D01*
X131914090Y-106798559D01*
X131701890Y-106653569D01*
X131634459Y-106639914D01*
X131679147Y-106610054D01*
X132001054Y-106128285D01*
X132114093Y-105560000D01*
X132001054Y-104991715D01*
X131679147Y-104509946D01*
X131197378Y-104188039D01*
X130629093Y-104075000D01*
X130570907Y-104075000D01*
X130002622Y-104188039D01*
X129520853Y-104509946D01*
X129198946Y-104991715D01*
X129105798Y-105460000D01*
X128022440Y-105460000D01*
X128022440Y-104935000D01*
X127978162Y-104699683D01*
X127839090Y-104483559D01*
X127626890Y-104338569D01*
X127375000Y-104287560D01*
X124825000Y-104287560D01*
X124589683Y-104331838D01*
X124373559Y-104470910D01*
X124228569Y-104683110D01*
X124177560Y-104935000D01*
X124177560Y-105460000D01*
X123549669Y-105460000D01*
X123539090Y-105443559D01*
X123326890Y-105298569D01*
X123075000Y-105247560D01*
X122568784Y-105247560D01*
X122410000Y-105088776D01*
X122410000Y-103022440D01*
X123050000Y-103022440D01*
X123285317Y-102978162D01*
X123501441Y-102839090D01*
X123646431Y-102626890D01*
X123697440Y-102375000D01*
X123697440Y-100165750D01*
X124190000Y-100165750D01*
X124190000Y-101391309D01*
X124286673Y-101624698D01*
X124465301Y-101803327D01*
X124698690Y-101900000D01*
X125814250Y-101900000D01*
X125973000Y-101741250D01*
X125973000Y-100007000D01*
X126227000Y-100007000D01*
X126227000Y-101741250D01*
X126385750Y-101900000D01*
X127501310Y-101900000D01*
X127734699Y-101803327D01*
X127913327Y-101624698D01*
X128010000Y-101391309D01*
X128010000Y-100165750D01*
X127851250Y-100007000D01*
X126227000Y-100007000D01*
X125973000Y-100007000D01*
X124348750Y-100007000D01*
X124190000Y-100165750D01*
X123697440Y-100165750D01*
X123697440Y-99175000D01*
X123653162Y-98939683D01*
X123514090Y-98723559D01*
X123301890Y-98578569D01*
X123050000Y-98527560D01*
X120050000Y-98527560D01*
X119814683Y-98571838D01*
X119598559Y-98710910D01*
X119453569Y-98923110D01*
X119402560Y-99175000D01*
X119402560Y-102375000D01*
X119446838Y-102610317D01*
X119585910Y-102826441D01*
X119798110Y-102971431D01*
X120050000Y-103022440D01*
X120690000Y-103022440D01*
X120690000Y-105445000D01*
X120755464Y-105774108D01*
X120877560Y-105956838D01*
X120877560Y-106495000D01*
X120921838Y-106730317D01*
X120985678Y-106829528D01*
X120928569Y-106913110D01*
X120877560Y-107165000D01*
X120877560Y-107765000D01*
X120921838Y-108000317D01*
X120985678Y-108099528D01*
X120928569Y-108183110D01*
X120877560Y-108435000D01*
X120877560Y-109035000D01*
X120921838Y-109270317D01*
X120985678Y-109369528D01*
X120928569Y-109453110D01*
X120877560Y-109705000D01*
X120877560Y-110305000D01*
X120921838Y-110540317D01*
X121060910Y-110756441D01*
X121273110Y-110901431D01*
X121525000Y-110952440D01*
X121540000Y-110952440D01*
X121540000Y-111035198D01*
X120497638Y-112077560D01*
X119950000Y-112077560D01*
X119714683Y-112121838D01*
X119600022Y-112195620D01*
X119501890Y-112128569D01*
X119250000Y-112077560D01*
X118050000Y-112077560D01*
X117814683Y-112121838D01*
X117598559Y-112260910D01*
X117559151Y-112318586D01*
X117514090Y-112248559D01*
X117301890Y-112103569D01*
X117050000Y-112052560D01*
X116860000Y-112052560D01*
X116860000Y-111119802D01*
X117027362Y-110952440D01*
X117675000Y-110952440D01*
X117910317Y-110908162D01*
X118126441Y-110769090D01*
X118271431Y-110556890D01*
X118285021Y-110489781D01*
X119137401Y-109637401D01*
X119302148Y-109390839D01*
X119360000Y-109100000D01*
X119360000Y-102550000D01*
X119302148Y-102259161D01*
X119302148Y-102259160D01*
X119137401Y-102012599D01*
X118797440Y-101672638D01*
X118797440Y-99000000D01*
X118753162Y-98764683D01*
X118614090Y-98548559D01*
X118401890Y-98403569D01*
X118229658Y-98368691D01*
X124190000Y-98368691D01*
X124190000Y-99594250D01*
X124348750Y-99753000D01*
X125973000Y-99753000D01*
X125973000Y-98018750D01*
X126227000Y-98018750D01*
X126227000Y-99753000D01*
X127851250Y-99753000D01*
X128010000Y-99594250D01*
X128010000Y-98368691D01*
X127913327Y-98135302D01*
X127734699Y-97956673D01*
X127501310Y-97860000D01*
X126385750Y-97860000D01*
X126227000Y-98018750D01*
X125973000Y-98018750D01*
X125814250Y-97860000D01*
X124698690Y-97860000D01*
X124465301Y-97956673D01*
X124286673Y-98135302D01*
X124190000Y-98368691D01*
X118229658Y-98368691D01*
X118150000Y-98352560D01*
X115150000Y-98352560D01*
X114960000Y-98388311D01*
X114960000Y-97107000D01*
X135665000Y-97107000D01*
X135665000Y-97507000D01*
X135822834Y-98046483D01*
X136175104Y-98484500D01*
X136668181Y-98754367D01*
X136750961Y-98771904D01*
X136973000Y-98649915D01*
X136973000Y-97107000D01*
X135665000Y-97107000D01*
X114960000Y-97107000D01*
X114960000Y-96453000D01*
X135665000Y-96453000D01*
X135665000Y-96853000D01*
X136973000Y-96853000D01*
X136973000Y-95310085D01*
X136750961Y-95188096D01*
X136668181Y-95205633D01*
X136175104Y-95475500D01*
X135822834Y-95913517D01*
X135665000Y-96453000D01*
X114960000Y-96453000D01*
X114960000Y-78600327D01*
X115260000Y-78660000D01*
X116704442Y-78660000D01*
X116746838Y-78885317D01*
X116885910Y-79101441D01*
X117098110Y-79246431D01*
X117350000Y-79297440D01*
X119050000Y-79297440D01*
X119285317Y-79253162D01*
X119501441Y-79114090D01*
X119646431Y-78901890D01*
X119660086Y-78834459D01*
X119689946Y-78879147D01*
X120171715Y-79201054D01*
X120740000Y-79314093D01*
X121308285Y-79201054D01*
X121790054Y-78879147D01*
X122111961Y-78397378D01*
X122225000Y-77829093D01*
X122225000Y-77770907D01*
X122111961Y-77202622D01*
X122059221Y-77123690D01*
X124015000Y-77123690D01*
X124015000Y-77364250D01*
X124173750Y-77523000D01*
X125473000Y-77523000D01*
X125473000Y-76773750D01*
X125727000Y-76773750D01*
X125727000Y-77523000D01*
X127026250Y-77523000D01*
X127185000Y-77364250D01*
X127185000Y-77123690D01*
X127088327Y-76890301D01*
X126909698Y-76711673D01*
X126676309Y-76615000D01*
X125885750Y-76615000D01*
X125727000Y-76773750D01*
X125473000Y-76773750D01*
X125314250Y-76615000D01*
X124523691Y-76615000D01*
X124290302Y-76711673D01*
X124111673Y-76890301D01*
X124015000Y-77123690D01*
X122059221Y-77123690D01*
X121790054Y-76720853D01*
X121600000Y-76593863D01*
X121600000Y-75656939D01*
X121800000Y-75697440D01*
X123400000Y-75697440D01*
X123635317Y-75653162D01*
X123851441Y-75514090D01*
X123996431Y-75301890D01*
X124047440Y-75050000D01*
X124047440Y-74160000D01*
X130052560Y-74160000D01*
X130052560Y-75725000D01*
X130096838Y-75960317D01*
X130235910Y-76176441D01*
X130448110Y-76321431D01*
X130700000Y-76372440D01*
X131252758Y-76372440D01*
X129932433Y-77692765D01*
X129801890Y-77603569D01*
X129550000Y-77552560D01*
X127650000Y-77552560D01*
X127414683Y-77596838D01*
X127198559Y-77735910D01*
X127111936Y-77862686D01*
X127026250Y-77777000D01*
X125727000Y-77777000D01*
X125727000Y-77797000D01*
X125473000Y-77797000D01*
X125473000Y-77777000D01*
X124173750Y-77777000D01*
X124015000Y-77935750D01*
X124015000Y-78176310D01*
X124111673Y-78409699D01*
X124290302Y-78588327D01*
X124326747Y-78603423D01*
X124198559Y-78685910D01*
X124053569Y-78898110D01*
X124002560Y-79150000D01*
X124002560Y-79950000D01*
X124046838Y-80185317D01*
X124185910Y-80401441D01*
X124398110Y-80546431D01*
X124650000Y-80597440D01*
X125527758Y-80597440D01*
X125172638Y-80952560D01*
X121600000Y-80952560D01*
X121364683Y-80996838D01*
X121148559Y-81135910D01*
X121003569Y-81348110D01*
X120952560Y-81600000D01*
X120952560Y-87100000D01*
X120996838Y-87335317D01*
X121135910Y-87551441D01*
X121348110Y-87696431D01*
X121600000Y-87747440D01*
X125600000Y-87747440D01*
X125835317Y-87703162D01*
X126051441Y-87564090D01*
X126196431Y-87351890D01*
X126247440Y-87100000D01*
X126247440Y-82027362D01*
X128627362Y-79647440D01*
X129550000Y-79647440D01*
X129785317Y-79603162D01*
X130001441Y-79464090D01*
X130072563Y-79360000D01*
X130100000Y-79360000D01*
X130390839Y-79302148D01*
X130637401Y-79137401D01*
X133402909Y-76371893D01*
X133635317Y-76328162D01*
X133738646Y-76261672D01*
X133740301Y-76263327D01*
X133973690Y-76360000D01*
X134314250Y-76360000D01*
X134473000Y-76201250D01*
X134473000Y-73927000D01*
X134453000Y-73927000D01*
X134453000Y-73673000D01*
X134473000Y-73673000D01*
X134473000Y-71398750D01*
X134314250Y-71240000D01*
X133973690Y-71240000D01*
X133740301Y-71336673D01*
X133738932Y-71338042D01*
X133651890Y-71278569D01*
X133400000Y-71227560D01*
X132400000Y-71227560D01*
X132164683Y-71271838D01*
X132050022Y-71345620D01*
X131951890Y-71278569D01*
X131700000Y-71227560D01*
X130700000Y-71227560D01*
X130464683Y-71271838D01*
X130248559Y-71410910D01*
X130103569Y-71623110D01*
X130052560Y-71875000D01*
X130052560Y-72440000D01*
X124047440Y-72440000D01*
X124047440Y-71550000D01*
X124003162Y-71314683D01*
X123864090Y-71098559D01*
X123651890Y-70953569D01*
X123400000Y-70902560D01*
X121800000Y-70902560D01*
X121564683Y-70946838D01*
X121348559Y-71085910D01*
X121203569Y-71298110D01*
X121152560Y-71550000D01*
X121152560Y-73531216D01*
X120131888Y-74551888D01*
X119945464Y-74830892D01*
X119880000Y-75160000D01*
X119880000Y-76593863D01*
X119689946Y-76720853D01*
X119662150Y-76762452D01*
X119653162Y-76714683D01*
X119514090Y-76498559D01*
X119301890Y-76353569D01*
X119050000Y-76302560D01*
X117350000Y-76302560D01*
X117114683Y-76346838D01*
X116898559Y-76485910D01*
X116753569Y-76698110D01*
X116704585Y-76940000D01*
X115616224Y-76940000D01*
X113064673Y-74388449D01*
X113114093Y-74140000D01*
X113001054Y-73571715D01*
X112679147Y-73089946D01*
X112637548Y-73062150D01*
X112685317Y-73053162D01*
X112901441Y-72914090D01*
X113046431Y-72701890D01*
X113097440Y-72450000D01*
X113097440Y-70750000D01*
X113053162Y-70514683D01*
X112914090Y-70298559D01*
X112701890Y-70153569D01*
X112450000Y-70102560D01*
X110750000Y-70102560D01*
X110514683Y-70146838D01*
X110298559Y-70285910D01*
X110153569Y-70498110D01*
X110102560Y-70750000D01*
X110102560Y-72450000D01*
X110146838Y-72685317D01*
X110285910Y-72901441D01*
X110498110Y-73046431D01*
X110565541Y-73060086D01*
X110520853Y-73089946D01*
X110198946Y-73571715D01*
X110085907Y-74140000D01*
X110198946Y-74708285D01*
X110520853Y-75190054D01*
X111002622Y-75511961D01*
X111570907Y-75625000D01*
X111629093Y-75625000D01*
X111829010Y-75585234D01*
X113240000Y-76996224D01*
X113240000Y-103740000D01*
X112595558Y-103740000D01*
X112553162Y-103514683D01*
X112414090Y-103298559D01*
X112201890Y-103153569D01*
X112134459Y-103139914D01*
X112179147Y-103110054D01*
X112501054Y-102628285D01*
X112614093Y-102060000D01*
X112501054Y-101491715D01*
X112179147Y-101009946D01*
X111838447Y-100782298D01*
X111981358Y-100715183D01*
X112371645Y-100286924D01*
X112541476Y-99876890D01*
X112420155Y-99647000D01*
X111227000Y-99647000D01*
X111227000Y-99667000D01*
X110973000Y-99667000D01*
X110973000Y-99647000D01*
X109779845Y-99647000D01*
X109658524Y-99876890D01*
X109828355Y-100286924D01*
X110218642Y-100715183D01*
X110361553Y-100782298D01*
X110020853Y-101009946D01*
X109698946Y-101491715D01*
X109585907Y-102060000D01*
X109698946Y-102628285D01*
X110020853Y-103110054D01*
X110062452Y-103137850D01*
X110014683Y-103146838D01*
X109798559Y-103285910D01*
X109653569Y-103498110D01*
X109602560Y-103750000D01*
X109602560Y-105450000D01*
X109646838Y-105685317D01*
X109785910Y-105901441D01*
X109998110Y-106046431D01*
X110250000Y-106097440D01*
X111950000Y-106097440D01*
X112185317Y-106053162D01*
X112401441Y-105914090D01*
X112546431Y-105701890D01*
X112595415Y-105460000D01*
X113265000Y-105460000D01*
X113265000Y-106702560D01*
X113100000Y-106702560D01*
X112864683Y-106746838D01*
X112648559Y-106885910D01*
X112503569Y-107098110D01*
X112452560Y-107350000D01*
X112452560Y-109850000D01*
X112496838Y-110085317D01*
X112635910Y-110301441D01*
X112848110Y-110446431D01*
X113100000Y-110497440D01*
X115100000Y-110497440D01*
X115335317Y-110453162D01*
X115487065Y-110355515D01*
X115490754Y-110375122D01*
X115397852Y-110514161D01*
X115340000Y-110805000D01*
X115340000Y-112052560D01*
X115150000Y-112052560D01*
X114914683Y-112096838D01*
X114698559Y-112235910D01*
X114611936Y-112362686D01*
X114526250Y-112277000D01*
X113227000Y-112277000D01*
X113227000Y-112297000D01*
X112973000Y-112297000D01*
X112973000Y-112277000D01*
X111673750Y-112277000D01*
X111515000Y-112435750D01*
X111515000Y-112676310D01*
X111611673Y-112909699D01*
X111790302Y-113088327D01*
X111826747Y-113103423D01*
X111698559Y-113185910D01*
X111553569Y-113398110D01*
X111502560Y-113650000D01*
X111502560Y-114450000D01*
X111546838Y-114685317D01*
X111685910Y-114901441D01*
X111898110Y-115046431D01*
X112150000Y-115097440D01*
X114050000Y-115097440D01*
X114285317Y-115053162D01*
X114501441Y-114914090D01*
X114646431Y-114701890D01*
X114697440Y-114450000D01*
X114697440Y-113959319D01*
X114898110Y-114096431D01*
X115150000Y-114147440D01*
X117050000Y-114147440D01*
X117285317Y-114103162D01*
X117501441Y-113964090D01*
X117557419Y-113882164D01*
X117585910Y-113926441D01*
X117798110Y-114071431D01*
X118050000Y-114122440D01*
X119250000Y-114122440D01*
X119485317Y-114078162D01*
X119599978Y-114004380D01*
X119698110Y-114071431D01*
X119950000Y-114122440D01*
X121150000Y-114122440D01*
X121385317Y-114078162D01*
X121601441Y-113939090D01*
X121746431Y-113726890D01*
X121797440Y-113475000D01*
X121797440Y-112927362D01*
X122837401Y-111887401D01*
X123002148Y-111640839D01*
X123060000Y-111350000D01*
X123060000Y-110952440D01*
X123075000Y-110952440D01*
X123310317Y-110908162D01*
X123526441Y-110769090D01*
X123671431Y-110556890D01*
X123722440Y-110305000D01*
X123722440Y-109705000D01*
X123678162Y-109469683D01*
X123614322Y-109370472D01*
X123671431Y-109286890D01*
X123722440Y-109035000D01*
X123722440Y-108435000D01*
X123678162Y-108199683D01*
X123614322Y-108100472D01*
X123671431Y-108016890D01*
X123722440Y-107765000D01*
X123722440Y-107180000D01*
X124177560Y-107180000D01*
X124177560Y-107705000D01*
X124221838Y-107940317D01*
X124360910Y-108156441D01*
X124573110Y-108301431D01*
X124825000Y-108352440D01*
X127375000Y-108352440D01*
X127610317Y-108308162D01*
X127826441Y-108169090D01*
X127971431Y-107956890D01*
X128022440Y-107705000D01*
X128022440Y-107180000D01*
X129116735Y-107180000D01*
X129102560Y-107250000D01*
X129102560Y-108950000D01*
X129146838Y-109185317D01*
X129285910Y-109401441D01*
X129498110Y-109546431D01*
X129740000Y-109595415D01*
X129740000Y-110604442D01*
X129514683Y-110646838D01*
X129298559Y-110785910D01*
X129153569Y-110998110D01*
X129102560Y-111250000D01*
X129102560Y-112950000D01*
X129146838Y-113185317D01*
X129285910Y-113401441D01*
X129498110Y-113546431D01*
X129565541Y-113560086D01*
X129520853Y-113589946D01*
X129198946Y-114071715D01*
X129085907Y-114640000D01*
X129094675Y-114684079D01*
X127244271Y-116053377D01*
X127319268Y-115952062D01*
X127135552Y-115578179D01*
X126811049Y-115290432D01*
X126401131Y-115148771D01*
X126227000Y-115297437D01*
X126227000Y-116123000D01*
X126247000Y-116123000D01*
X126247000Y-116377000D01*
X126227000Y-116377000D01*
X126227000Y-116397000D01*
X125973000Y-116397000D01*
X125973000Y-116377000D01*
X125953000Y-116377000D01*
X125953000Y-116123000D01*
X125973000Y-116123000D01*
X125973000Y-115297437D01*
X125798869Y-115148771D01*
X125630115Y-115207090D01*
X125459699Y-115036673D01*
X125226310Y-114940000D01*
X125158750Y-114940000D01*
X125000000Y-115098750D01*
X125000000Y-115257067D01*
X124914090Y-115123559D01*
X124701890Y-114978569D01*
X124674215Y-114972965D01*
X124641250Y-114940000D01*
X124573690Y-114940000D01*
X124553247Y-114948468D01*
X124450000Y-114927560D01*
X124393341Y-114927560D01*
X124534838Y-114586799D01*
X124535162Y-114214833D01*
X124393117Y-113871057D01*
X124130327Y-113607808D01*
X123944257Y-113530545D01*
X126739681Y-110735122D01*
X126785167Y-110735162D01*
X127128943Y-110593117D01*
X127392192Y-110330327D01*
X127534838Y-109986799D01*
X127535162Y-109614833D01*
X127393117Y-109271057D01*
X127130327Y-109007808D01*
X126786799Y-108865162D01*
X126414833Y-108864838D01*
X126071057Y-109006883D01*
X125807808Y-109269673D01*
X125665162Y-109613201D01*
X125665121Y-109660076D01*
X122412599Y-112912599D01*
X122247852Y-113159161D01*
X122190000Y-113450000D01*
X122190000Y-114927560D01*
X122100000Y-114927560D01*
X121864683Y-114971838D01*
X121648559Y-115110910D01*
X121580367Y-115210712D01*
X121401131Y-115148771D01*
X121227000Y-115297437D01*
X121227000Y-116123000D01*
X121247000Y-116123000D01*
X121247000Y-116377000D01*
X121227000Y-116377000D01*
X121227000Y-117202563D01*
X121401131Y-117351229D01*
X121440000Y-117337797D01*
X121440000Y-117400000D01*
X121441042Y-117405237D01*
X121440064Y-117410486D01*
X121473741Y-117569627D01*
X121505464Y-117729108D01*
X121508429Y-117733546D01*
X121509535Y-117738771D01*
X121601537Y-117872892D01*
X121691888Y-118008112D01*
X121696328Y-118011079D01*
X121699348Y-118015481D01*
X121835662Y-118104178D01*
X121970892Y-118194536D01*
X121976128Y-118195578D01*
X121980604Y-118198490D01*
X122480604Y-118398490D01*
X122640505Y-118428274D01*
X122800000Y-118460000D01*
X125992974Y-118460000D01*
X125965000Y-118548000D01*
X125965000Y-118823000D01*
X126973000Y-118823000D01*
X126973000Y-118803000D01*
X127227000Y-118803000D01*
X127227000Y-118823000D01*
X128235000Y-118823000D01*
X128235000Y-118548000D01*
X128100002Y-118123322D01*
X127812763Y-117782632D01*
X127804465Y-117778558D01*
X130151689Y-116041612D01*
X130570907Y-116125000D01*
X130629093Y-116125000D01*
X131197378Y-116011961D01*
X131679147Y-115690054D01*
X132001054Y-115208285D01*
X132114093Y-114640000D01*
X132001054Y-114071715D01*
X131679147Y-113589946D01*
X131637548Y-113562150D01*
X131685317Y-113553162D01*
X131901441Y-113414090D01*
X132046431Y-113201890D01*
X132097440Y-112950000D01*
X132097440Y-111860000D01*
X133873258Y-111860000D01*
X133896838Y-111985317D01*
X134035910Y-112201441D01*
X134248110Y-112346431D01*
X134500000Y-112397440D01*
X136000000Y-112397440D01*
X136235317Y-112353162D01*
X136451441Y-112214090D01*
X136596431Y-112001890D01*
X136599081Y-111988803D01*
X136735910Y-112201441D01*
X136948110Y-112346431D01*
X137200000Y-112397440D01*
X138700000Y-112397440D01*
X138935317Y-112353162D01*
X139151441Y-112214090D01*
X139296431Y-112001890D01*
X139325164Y-111860000D01*
X140043156Y-111860000D01*
X140085910Y-111926441D01*
X140298110Y-112071431D01*
X140550000Y-112122440D01*
X141750000Y-112122440D01*
X141985317Y-112078162D01*
X142088646Y-112011671D01*
X142090302Y-112013327D01*
X142323691Y-112110000D01*
X142764250Y-112110000D01*
X142923000Y-111951250D01*
X142923000Y-111227000D01*
X142903000Y-111227000D01*
X142903000Y-110973000D01*
X142923000Y-110973000D01*
X142923000Y-110248750D01*
X142764250Y-110090000D01*
X142323691Y-110090000D01*
X142090302Y-110186673D01*
X142088932Y-110188043D01*
X142001890Y-110128569D01*
X141750000Y-110077560D01*
X140550000Y-110077560D01*
X140314683Y-110121838D01*
X140098559Y-110260910D01*
X140044519Y-110340000D01*
X139326742Y-110340000D01*
X139303162Y-110214683D01*
X139164090Y-109998559D01*
X138951890Y-109853569D01*
X138700000Y-109802560D01*
X137200000Y-109802560D01*
X136964683Y-109846838D01*
X136748559Y-109985910D01*
X136603569Y-110198110D01*
X136600919Y-110211197D01*
X136464090Y-109998559D01*
X136251890Y-109853569D01*
X136000000Y-109802560D01*
X134500000Y-109802560D01*
X134264683Y-109846838D01*
X134048559Y-109985910D01*
X133903569Y-110198110D01*
X133874836Y-110340000D01*
X131600000Y-110340000D01*
X131460000Y-110367848D01*
X131460000Y-109595558D01*
X131685317Y-109553162D01*
X131901441Y-109414090D01*
X132046431Y-109201890D01*
X132095415Y-108960000D01*
X133600000Y-108960000D01*
X133929108Y-108894536D01*
X134208112Y-108708112D01*
X134980474Y-107935750D01*
X136215000Y-107935750D01*
X136215000Y-108076309D01*
X136311673Y-108309698D01*
X136490301Y-108488327D01*
X136723690Y-108585000D01*
X136816250Y-108585000D01*
X136975000Y-108426250D01*
X136975000Y-107777000D01*
X137225000Y-107777000D01*
X137225000Y-108426250D01*
X137383750Y-108585000D01*
X137476310Y-108585000D01*
X137709699Y-108488327D01*
X137888327Y-108309698D01*
X137985000Y-108076309D01*
X137985000Y-107935750D01*
X137826250Y-107777000D01*
X137225000Y-107777000D01*
X136975000Y-107777000D01*
X136373750Y-107777000D01*
X136215000Y-107935750D01*
X134980474Y-107935750D01*
X136202560Y-106713664D01*
X136202560Y-106850000D01*
X136246838Y-107085317D01*
X136262339Y-107109406D01*
X136215000Y-107223691D01*
X136215000Y-107364250D01*
X136373750Y-107523000D01*
X136975000Y-107523000D01*
X136975000Y-107503000D01*
X137225000Y-107503000D01*
X137225000Y-107523000D01*
X137826250Y-107523000D01*
X137985000Y-107364250D01*
X137985000Y-107223691D01*
X137939033Y-107112717D01*
X137946431Y-107101890D01*
X137997440Y-106850000D01*
X137997440Y-106429105D01*
X138135317Y-106403162D01*
X138351441Y-106264090D01*
X138496431Y-106051890D01*
X138526597Y-105902926D01*
X138625302Y-106050648D01*
X139090849Y-106361717D01*
X139640000Y-106470950D01*
X140189151Y-106361717D01*
X140654698Y-106050648D01*
X140910000Y-105668562D01*
X141165302Y-106050648D01*
X141630849Y-106361717D01*
X142180000Y-106470950D01*
X142729151Y-106361717D01*
X143194698Y-106050648D01*
X143450000Y-105668562D01*
X143705302Y-106050648D01*
X143960000Y-106220832D01*
X143960000Y-110166087D01*
X143776309Y-110090000D01*
X143335750Y-110090000D01*
X143177000Y-110248750D01*
X143177000Y-110973000D01*
X143197000Y-110973000D01*
X143197000Y-111227000D01*
X143177000Y-111227000D01*
X143177000Y-111951250D01*
X143335750Y-112110000D01*
X143776309Y-112110000D01*
X143960000Y-112033913D01*
X143960000Y-117165198D01*
X143022638Y-118102560D01*
X141750000Y-118102560D01*
X141514683Y-118146838D01*
X141298559Y-118285910D01*
X141153569Y-118498110D01*
X141102560Y-118750000D01*
X141102560Y-120450000D01*
X141106888Y-120473000D01*
X109227000Y-120473000D01*
X109227000Y-118822981D01*
X109516218Y-119522943D01*
X110074120Y-120081819D01*
X110803427Y-120384654D01*
X111593109Y-120385343D01*
X112322943Y-120083782D01*
X112881819Y-119525880D01*
X113068210Y-119077000D01*
X118965000Y-119077000D01*
X118965000Y-119352000D01*
X119099998Y-119776678D01*
X119387237Y-120117368D01*
X119798126Y-120319119D01*
X119973000Y-120192954D01*
X119973000Y-119077000D01*
X120227000Y-119077000D01*
X120227000Y-120192954D01*
X120401874Y-120319119D01*
X120812763Y-120117368D01*
X121100002Y-119776678D01*
X121235000Y-119352000D01*
X121235000Y-119077000D01*
X125965000Y-119077000D01*
X125965000Y-119352000D01*
X126099998Y-119776678D01*
X126387237Y-120117368D01*
X126798126Y-120319119D01*
X126973000Y-120192954D01*
X126973000Y-119077000D01*
X127227000Y-119077000D01*
X127227000Y-120192954D01*
X127401874Y-120319119D01*
X127812763Y-120117368D01*
X128100002Y-119776678D01*
X128235000Y-119352000D01*
X128235000Y-119077000D01*
X127227000Y-119077000D01*
X126973000Y-119077000D01*
X125965000Y-119077000D01*
X121235000Y-119077000D01*
X120227000Y-119077000D01*
X119973000Y-119077000D01*
X118965000Y-119077000D01*
X113068210Y-119077000D01*
X113184654Y-118796573D01*
X113184870Y-118548000D01*
X118965000Y-118548000D01*
X118965000Y-118823000D01*
X119973000Y-118823000D01*
X119973000Y-117707046D01*
X120227000Y-117707046D01*
X120227000Y-118823000D01*
X121235000Y-118823000D01*
X121235000Y-118548000D01*
X121100002Y-118123322D01*
X120812763Y-117782632D01*
X120401874Y-117580881D01*
X120227000Y-117707046D01*
X119973000Y-117707046D01*
X119798126Y-117580881D01*
X119387237Y-117782632D01*
X119099998Y-118123322D01*
X118965000Y-118548000D01*
X113184870Y-118548000D01*
X113185343Y-118006891D01*
X112883782Y-117277057D01*
X112325880Y-116718181D01*
X111915890Y-116547938D01*
X119880732Y-116547938D01*
X120064448Y-116921821D01*
X120388951Y-117209568D01*
X120798869Y-117351229D01*
X120973000Y-117202563D01*
X120973000Y-116377000D01*
X120007266Y-116377000D01*
X119880732Y-116547938D01*
X111915890Y-116547938D01*
X111596573Y-116415346D01*
X110806891Y-116414657D01*
X110077057Y-116716218D01*
X109518181Y-117274120D01*
X109227000Y-117975361D01*
X109227000Y-115952062D01*
X119880732Y-115952062D01*
X120007266Y-116123000D01*
X120973000Y-116123000D01*
X120973000Y-115297437D01*
X120798869Y-115148771D01*
X120388951Y-115290432D01*
X120064448Y-115578179D01*
X119880732Y-115952062D01*
X109227000Y-115952062D01*
X109227000Y-111623690D01*
X111515000Y-111623690D01*
X111515000Y-111864250D01*
X111673750Y-112023000D01*
X112973000Y-112023000D01*
X112973000Y-111273750D01*
X113227000Y-111273750D01*
X113227000Y-112023000D01*
X114526250Y-112023000D01*
X114685000Y-111864250D01*
X114685000Y-111623690D01*
X114588327Y-111390301D01*
X114409698Y-111211673D01*
X114176309Y-111115000D01*
X113385750Y-111115000D01*
X113227000Y-111273750D01*
X112973000Y-111273750D01*
X112814250Y-111115000D01*
X112023691Y-111115000D01*
X111790302Y-111211673D01*
X111611673Y-111390301D01*
X111515000Y-111623690D01*
X109227000Y-111623690D01*
X109227000Y-110485000D01*
X109814250Y-110485000D01*
X109973000Y-110326250D01*
X109973000Y-108727000D01*
X110227000Y-108727000D01*
X110227000Y-110326250D01*
X110385750Y-110485000D01*
X111226309Y-110485000D01*
X111459698Y-110388327D01*
X111638327Y-110209699D01*
X111735000Y-109976310D01*
X111735000Y-108885750D01*
X111576250Y-108727000D01*
X110227000Y-108727000D01*
X109973000Y-108727000D01*
X109953000Y-108727000D01*
X109953000Y-108473000D01*
X109973000Y-108473000D01*
X109973000Y-106873750D01*
X110227000Y-106873750D01*
X110227000Y-108473000D01*
X111576250Y-108473000D01*
X111735000Y-108314250D01*
X111735000Y-107223690D01*
X111638327Y-106990301D01*
X111459698Y-106811673D01*
X111226309Y-106715000D01*
X110385750Y-106715000D01*
X110227000Y-106873750D01*
X109973000Y-106873750D01*
X109814250Y-106715000D01*
X109227000Y-106715000D01*
X109227000Y-99163110D01*
X109658524Y-99163110D01*
X109779845Y-99393000D01*
X110973000Y-99393000D01*
X110973000Y-98199181D01*
X111227000Y-98199181D01*
X111227000Y-99393000D01*
X112420155Y-99393000D01*
X112541476Y-99163110D01*
X112371645Y-98753076D01*
X111981358Y-98324817D01*
X111456892Y-98078514D01*
X111227000Y-98199181D01*
X110973000Y-98199181D01*
X110743108Y-98078514D01*
X110218642Y-98324817D01*
X109828355Y-98753076D01*
X109658524Y-99163110D01*
X109227000Y-99163110D01*
X109227000Y-85996890D01*
X110158524Y-85996890D01*
X110328355Y-86406924D01*
X110718642Y-86835183D01*
X111243108Y-87081486D01*
X111473000Y-86960819D01*
X111473000Y-85767000D01*
X111727000Y-85767000D01*
X111727000Y-86960819D01*
X111956892Y-87081486D01*
X112481358Y-86835183D01*
X112871645Y-86406924D01*
X113041476Y-85996890D01*
X112920155Y-85767000D01*
X111727000Y-85767000D01*
X111473000Y-85767000D01*
X110279845Y-85767000D01*
X110158524Y-85996890D01*
X109227000Y-85996890D01*
X109227000Y-83385750D01*
X110115000Y-83385750D01*
X110115000Y-84076310D01*
X110211673Y-84309699D01*
X110390302Y-84488327D01*
X110599878Y-84575136D01*
X110328355Y-84873076D01*
X110158524Y-85283110D01*
X110279845Y-85513000D01*
X111473000Y-85513000D01*
X111473000Y-83227000D01*
X111727000Y-83227000D01*
X111727000Y-85513000D01*
X112920155Y-85513000D01*
X113041476Y-85283110D01*
X112871645Y-84873076D01*
X112600122Y-84575136D01*
X112809698Y-84488327D01*
X112988327Y-84309699D01*
X113085000Y-84076310D01*
X113085000Y-83385750D01*
X112926250Y-83227000D01*
X111727000Y-83227000D01*
X111473000Y-83227000D01*
X110273750Y-83227000D01*
X110115000Y-83385750D01*
X109227000Y-83385750D01*
X109227000Y-82123690D01*
X110115000Y-82123690D01*
X110115000Y-82814250D01*
X110273750Y-82973000D01*
X111473000Y-82973000D01*
X111473000Y-81773750D01*
X111727000Y-81773750D01*
X111727000Y-82973000D01*
X112926250Y-82973000D01*
X113085000Y-82814250D01*
X113085000Y-82123690D01*
X112988327Y-81890301D01*
X112809698Y-81711673D01*
X112576309Y-81615000D01*
X111885750Y-81615000D01*
X111727000Y-81773750D01*
X111473000Y-81773750D01*
X111314250Y-81615000D01*
X110623691Y-81615000D01*
X110390302Y-81711673D01*
X110211673Y-81890301D01*
X110115000Y-82123690D01*
X109227000Y-82123690D01*
X109227000Y-68185750D01*
X121165000Y-68185750D01*
X121165000Y-69776309D01*
X121261673Y-70009698D01*
X121440301Y-70188327D01*
X121673690Y-70285000D01*
X122314250Y-70285000D01*
X122473000Y-70126250D01*
X122473000Y-68027000D01*
X122727000Y-68027000D01*
X122727000Y-70126250D01*
X122885750Y-70285000D01*
X123526310Y-70285000D01*
X123759699Y-70188327D01*
X123938327Y-70009698D01*
X124035000Y-69776309D01*
X124035000Y-68185750D01*
X123876250Y-68027000D01*
X122727000Y-68027000D01*
X122473000Y-68027000D01*
X121323750Y-68027000D01*
X121165000Y-68185750D01*
X109227000Y-68185750D01*
X109227000Y-66023691D01*
X121165000Y-66023691D01*
X121165000Y-67614250D01*
X121323750Y-67773000D01*
X122473000Y-67773000D01*
X122473000Y-65673750D01*
X122727000Y-65673750D01*
X122727000Y-67773000D01*
X123876250Y-67773000D01*
X124035000Y-67614250D01*
X124035000Y-66023691D01*
X123938327Y-65790302D01*
X123759699Y-65611673D01*
X123526310Y-65515000D01*
X122885750Y-65515000D01*
X122727000Y-65673750D01*
X122473000Y-65673750D01*
X122314250Y-65515000D01*
X121673690Y-65515000D01*
X121440301Y-65611673D01*
X121261673Y-65790302D01*
X121165000Y-66023691D01*
X109227000Y-66023691D01*
X109227000Y-63185750D01*
X128490000Y-63185750D01*
X128490000Y-67826309D01*
X128586673Y-68059698D01*
X128765301Y-68238327D01*
X128998690Y-68335000D01*
X134314250Y-68335000D01*
X134473000Y-68176250D01*
X134473000Y-63027000D01*
X134727000Y-63027000D01*
X134727000Y-68176250D01*
X134885750Y-68335000D01*
X140201310Y-68335000D01*
X140434699Y-68238327D01*
X140613327Y-68059698D01*
X140685378Y-67885750D01*
X142215000Y-67885750D01*
X142215000Y-68726309D01*
X142311673Y-68959698D01*
X142490301Y-69138327D01*
X142723690Y-69235000D01*
X143814250Y-69235000D01*
X143973000Y-69076250D01*
X143973000Y-67727000D01*
X142373750Y-67727000D01*
X142215000Y-67885750D01*
X140685378Y-67885750D01*
X140710000Y-67826309D01*
X140710000Y-66473691D01*
X142215000Y-66473691D01*
X142215000Y-67314250D01*
X142373750Y-67473000D01*
X143973000Y-67473000D01*
X143973000Y-66123750D01*
X144227000Y-66123750D01*
X144227000Y-67473000D01*
X145826250Y-67473000D01*
X145985000Y-67314250D01*
X145985000Y-66473691D01*
X145888327Y-66240302D01*
X145709699Y-66061673D01*
X145476310Y-65965000D01*
X144385750Y-65965000D01*
X144227000Y-66123750D01*
X143973000Y-66123750D01*
X143814250Y-65965000D01*
X142723690Y-65965000D01*
X142490301Y-66061673D01*
X142311673Y-66240302D01*
X142215000Y-66473691D01*
X140710000Y-66473691D01*
X140710000Y-63385750D01*
X153715000Y-63385750D01*
X153715000Y-64226309D01*
X153811673Y-64459698D01*
X153990301Y-64638327D01*
X154223690Y-64735000D01*
X155314250Y-64735000D01*
X155473000Y-64576250D01*
X155473000Y-63227000D01*
X155727000Y-63227000D01*
X155727000Y-64576250D01*
X155885750Y-64735000D01*
X156976310Y-64735000D01*
X157209699Y-64638327D01*
X157388327Y-64459698D01*
X157485000Y-64226309D01*
X157485000Y-63385750D01*
X157326250Y-63227000D01*
X155727000Y-63227000D01*
X155473000Y-63227000D01*
X153873750Y-63227000D01*
X153715000Y-63385750D01*
X140710000Y-63385750D01*
X140710000Y-63185750D01*
X140551250Y-63027000D01*
X134727000Y-63027000D01*
X134473000Y-63027000D01*
X128648750Y-63027000D01*
X128490000Y-63185750D01*
X109227000Y-63185750D01*
X109227000Y-60622981D01*
X109516218Y-61322943D01*
X110074120Y-61881819D01*
X110803427Y-62184654D01*
X111593109Y-62185343D01*
X112322943Y-61883782D01*
X112881819Y-61325880D01*
X113184654Y-60596573D01*
X113185343Y-59806891D01*
X112883782Y-59077057D01*
X112325880Y-58518181D01*
X111624639Y-58227000D01*
X128490000Y-58227000D01*
X128490000Y-62614250D01*
G36*
X167520853Y-97270054D02*
X167850026Y-97490000D01*
X167520853Y-97709946D01*
X167198946Y-98191715D01*
X167085907Y-98760000D01*
X167198946Y-99328285D01*
X167520853Y-99810054D01*
X167850026Y-100030000D01*
X167520853Y-100249946D01*
X167198946Y-100731715D01*
X167085907Y-101300000D01*
X167198946Y-101868285D01*
X167520853Y-102350054D01*
X167850026Y-102570000D01*
X167520853Y-102789946D01*
X167198946Y-103271715D01*
X167085907Y-103840000D01*
X167198946Y-104408285D01*
X167520853Y-104890054D01*
X167850026Y-105110000D01*
X167520853Y-105329946D01*
X167198946Y-105811715D01*
X167085907Y-106380000D01*
X167198946Y-106948285D01*
X167520853Y-107430054D01*
X168002622Y-107751961D01*
X168570907Y-107865000D01*
X168629093Y-107865000D01*
X169197378Y-107751961D01*
X169577814Y-107497762D01*
X169499457Y-117292410D01*
X169125880Y-116918181D01*
X168396573Y-116615346D01*
X167606891Y-116614657D01*
X166877057Y-116916218D01*
X166318181Y-117474120D01*
X166015346Y-118203427D01*
X166014657Y-118993109D01*
X166316218Y-119722943D01*
X166874120Y-120281819D01*
X167334535Y-120473000D01*
X156487797Y-120473000D01*
X156671961Y-120197378D01*
X156785000Y-119629093D01*
X156785000Y-119570907D01*
X156671961Y-119002622D01*
X156350054Y-118520853D01*
X155868285Y-118198946D01*
X155300000Y-118085907D01*
X154731715Y-118198946D01*
X154249946Y-118520853D01*
X154030000Y-118850026D01*
X153810054Y-118520853D01*
X153328285Y-118198946D01*
X152760000Y-118085907D01*
X152393592Y-118158790D01*
X151960000Y-117725198D01*
X151960000Y-112142197D01*
X152123691Y-112210000D01*
X152564250Y-112210000D01*
X152723000Y-112051250D01*
X152723000Y-111327000D01*
X152703000Y-111327000D01*
X152703000Y-111073000D01*
X152723000Y-111073000D01*
X152723000Y-110348750D01*
X152564250Y-110190000D01*
X152123691Y-110190000D01*
X151960000Y-110257803D01*
X151960000Y-106395363D01*
X152340000Y-106470950D01*
X152889151Y-106361717D01*
X153354698Y-106050648D01*
X153610000Y-105668562D01*
X153865302Y-106050648D01*
X154330849Y-106361717D01*
X154880000Y-106470950D01*
X155429151Y-106361717D01*
X155894698Y-106050648D01*
X156150000Y-105668562D01*
X156405302Y-106050648D01*
X156870849Y-106361717D01*
X157420000Y-106470950D01*
X157969151Y-106361717D01*
X158434698Y-106050648D01*
X158690000Y-105668562D01*
X158690000Y-109804442D01*
X158464683Y-109846838D01*
X158248559Y-109985910D01*
X158103569Y-110198110D01*
X158100919Y-110211197D01*
X157964090Y-109998559D01*
X157751890Y-109853569D01*
X157500000Y-109802560D01*
X156000000Y-109802560D01*
X155764683Y-109846838D01*
X155548559Y-109985910D01*
X155409392Y-110189587D01*
X155350000Y-110177560D01*
X154150000Y-110177560D01*
X153914683Y-110221838D01*
X153811354Y-110288329D01*
X153809698Y-110286673D01*
X153576309Y-110190000D01*
X153135750Y-110190000D01*
X152977000Y-110348750D01*
X152977000Y-111073000D01*
X152997000Y-111073000D01*
X152997000Y-111327000D01*
X152977000Y-111327000D01*
X152977000Y-112051250D01*
X153135750Y-112210000D01*
X153576309Y-112210000D01*
X153809698Y-112113327D01*
X153811068Y-112111957D01*
X153898110Y-112171431D01*
X154150000Y-112222440D01*
X155350000Y-112222440D01*
X155527884Y-112188969D01*
X155535910Y-112201441D01*
X155748110Y-112346431D01*
X156000000Y-112397440D01*
X157500000Y-112397440D01*
X157735317Y-112353162D01*
X157951441Y-112214090D01*
X158096431Y-112001890D01*
X158099081Y-111988803D01*
X158235910Y-112201441D01*
X158448110Y-112346431D01*
X158700000Y-112397440D01*
X160200000Y-112397440D01*
X160435317Y-112353162D01*
X160651441Y-112214090D01*
X160796431Y-112001890D01*
X160847440Y-111750000D01*
X160847440Y-110450000D01*
X160803162Y-110214683D01*
X160664090Y-109998559D01*
X160451890Y-109853569D01*
X160210000Y-109804585D01*
X160210000Y-106421222D01*
X160509151Y-106361717D01*
X160974698Y-106050648D01*
X161285767Y-105585101D01*
X161395000Y-105035950D01*
X161395000Y-104164050D01*
X161285767Y-103614899D01*
X160974698Y-103149352D01*
X160509151Y-102838283D01*
X160298433Y-102796369D01*
X166114802Y-96980000D01*
X167327046Y-96980000D01*
X167520853Y-97270054D01*
X167520853Y-97270054D01*
G37*
X167520853Y-97270054D02*
X167850026Y-97490000D01*
X167520853Y-97709946D01*
X167198946Y-98191715D01*
X167085907Y-98760000D01*
X167198946Y-99328285D01*
X167520853Y-99810054D01*
X167850026Y-100030000D01*
X167520853Y-100249946D01*
X167198946Y-100731715D01*
X167085907Y-101300000D01*
X167198946Y-101868285D01*
X167520853Y-102350054D01*
X167850026Y-102570000D01*
X167520853Y-102789946D01*
X167198946Y-103271715D01*
X167085907Y-103840000D01*
X167198946Y-104408285D01*
X167520853Y-104890054D01*
X167850026Y-105110000D01*
X167520853Y-105329946D01*
X167198946Y-105811715D01*
X167085907Y-106380000D01*
X167198946Y-106948285D01*
X167520853Y-107430054D01*
X168002622Y-107751961D01*
X168570907Y-107865000D01*
X168629093Y-107865000D01*
X169197378Y-107751961D01*
X169577814Y-107497762D01*
X169499457Y-117292410D01*
X169125880Y-116918181D01*
X168396573Y-116615346D01*
X167606891Y-116614657D01*
X166877057Y-116916218D01*
X166318181Y-117474120D01*
X166015346Y-118203427D01*
X166014657Y-118993109D01*
X166316218Y-119722943D01*
X166874120Y-120281819D01*
X167334535Y-120473000D01*
X156487797Y-120473000D01*
X156671961Y-120197378D01*
X156785000Y-119629093D01*
X156785000Y-119570907D01*
X156671961Y-119002622D01*
X156350054Y-118520853D01*
X155868285Y-118198946D01*
X155300000Y-118085907D01*
X154731715Y-118198946D01*
X154249946Y-118520853D01*
X154030000Y-118850026D01*
X153810054Y-118520853D01*
X153328285Y-118198946D01*
X152760000Y-118085907D01*
X152393592Y-118158790D01*
X151960000Y-117725198D01*
X151960000Y-112142197D01*
X152123691Y-112210000D01*
X152564250Y-112210000D01*
X152723000Y-112051250D01*
X152723000Y-111327000D01*
X152703000Y-111327000D01*
X152703000Y-111073000D01*
X152723000Y-111073000D01*
X152723000Y-110348750D01*
X152564250Y-110190000D01*
X152123691Y-110190000D01*
X151960000Y-110257803D01*
X151960000Y-106395363D01*
X152340000Y-106470950D01*
X152889151Y-106361717D01*
X153354698Y-106050648D01*
X153610000Y-105668562D01*
X153865302Y-106050648D01*
X154330849Y-106361717D01*
X154880000Y-106470950D01*
X155429151Y-106361717D01*
X155894698Y-106050648D01*
X156150000Y-105668562D01*
X156405302Y-106050648D01*
X156870849Y-106361717D01*
X157420000Y-106470950D01*
X157969151Y-106361717D01*
X158434698Y-106050648D01*
X158690000Y-105668562D01*
X158690000Y-109804442D01*
X158464683Y-109846838D01*
X158248559Y-109985910D01*
X158103569Y-110198110D01*
X158100919Y-110211197D01*
X157964090Y-109998559D01*
X157751890Y-109853569D01*
X157500000Y-109802560D01*
X156000000Y-109802560D01*
X155764683Y-109846838D01*
X155548559Y-109985910D01*
X155409392Y-110189587D01*
X155350000Y-110177560D01*
X154150000Y-110177560D01*
X153914683Y-110221838D01*
X153811354Y-110288329D01*
X153809698Y-110286673D01*
X153576309Y-110190000D01*
X153135750Y-110190000D01*
X152977000Y-110348750D01*
X152977000Y-111073000D01*
X152997000Y-111073000D01*
X152997000Y-111327000D01*
X152977000Y-111327000D01*
X152977000Y-112051250D01*
X153135750Y-112210000D01*
X153576309Y-112210000D01*
X153809698Y-112113327D01*
X153811068Y-112111957D01*
X153898110Y-112171431D01*
X154150000Y-112222440D01*
X155350000Y-112222440D01*
X155527884Y-112188969D01*
X155535910Y-112201441D01*
X155748110Y-112346431D01*
X156000000Y-112397440D01*
X157500000Y-112397440D01*
X157735317Y-112353162D01*
X157951441Y-112214090D01*
X158096431Y-112001890D01*
X158099081Y-111988803D01*
X158235910Y-112201441D01*
X158448110Y-112346431D01*
X158700000Y-112397440D01*
X160200000Y-112397440D01*
X160435317Y-112353162D01*
X160651441Y-112214090D01*
X160796431Y-112001890D01*
X160847440Y-111750000D01*
X160847440Y-110450000D01*
X160803162Y-110214683D01*
X160664090Y-109998559D01*
X160451890Y-109853569D01*
X160210000Y-109804585D01*
X160210000Y-106421222D01*
X160509151Y-106361717D01*
X160974698Y-106050648D01*
X161285767Y-105585101D01*
X161395000Y-105035950D01*
X161395000Y-104164050D01*
X161285767Y-103614899D01*
X160974698Y-103149352D01*
X160509151Y-102838283D01*
X160298433Y-102796369D01*
X166114802Y-96980000D01*
X167327046Y-96980000D01*
X167520853Y-97270054D01*
G36*
X147807000Y-119473000D02*
X147827000Y-119473000D01*
X147827000Y-119727000D01*
X147807000Y-119727000D01*
X147807000Y-119747000D01*
X147553000Y-119747000D01*
X147553000Y-119727000D01*
X147533000Y-119727000D01*
X147533000Y-119473000D01*
X147553000Y-119473000D01*
X147553000Y-119453000D01*
X147807000Y-119453000D01*
X147807000Y-119473000D01*
X147807000Y-119473000D01*
G37*
X147807000Y-119473000D02*
X147827000Y-119473000D01*
X147827000Y-119727000D01*
X147807000Y-119727000D01*
X147807000Y-119747000D01*
X147553000Y-119747000D01*
X147553000Y-119727000D01*
X147533000Y-119727000D01*
X147533000Y-119473000D01*
X147553000Y-119473000D01*
X147553000Y-119453000D01*
X147807000Y-119453000D01*
X147807000Y-119473000D01*
G36*
X150440000Y-118040000D02*
X150458571Y-118133362D01*
X150220000Y-118085907D01*
X149853592Y-118158790D01*
X146760000Y-115065198D01*
X146760000Y-106371494D01*
X147260000Y-106470950D01*
X147809151Y-106361717D01*
X147891734Y-106306536D01*
X148165017Y-106579819D01*
X148164838Y-106785167D01*
X148306883Y-107128943D01*
X148569673Y-107392192D01*
X148913201Y-107534838D01*
X149285167Y-107535162D01*
X149628943Y-107393117D01*
X149892192Y-107130327D01*
X150034838Y-106786799D01*
X150035154Y-106424175D01*
X150349151Y-106361717D01*
X150440000Y-106301014D01*
X150440000Y-118040000D01*
X150440000Y-118040000D01*
G37*
X150440000Y-118040000D02*
X150458571Y-118133362D01*
X150220000Y-118085907D01*
X149853592Y-118158790D01*
X146760000Y-115065198D01*
X146760000Y-106371494D01*
X147260000Y-106470950D01*
X147809151Y-106361717D01*
X147891734Y-106306536D01*
X148165017Y-106579819D01*
X148164838Y-106785167D01*
X148306883Y-107128943D01*
X148569673Y-107392192D01*
X148913201Y-107534838D01*
X149285167Y-107535162D01*
X149628943Y-107393117D01*
X149892192Y-107130327D01*
X150034838Y-106786799D01*
X150035154Y-106424175D01*
X150349151Y-106361717D01*
X150440000Y-106301014D01*
X150440000Y-118040000D01*
G36*
X117027000Y-107338000D02*
X117047000Y-107338000D01*
X117047000Y-107592000D01*
X117027000Y-107592000D01*
X117027000Y-107612000D01*
X116773000Y-107612000D01*
X116773000Y-107592000D01*
X116753000Y-107592000D01*
X116753000Y-107338000D01*
X116773000Y-107338000D01*
X116773000Y-107318000D01*
X117027000Y-107318000D01*
X117027000Y-107338000D01*
X117027000Y-107338000D01*
G37*
X117027000Y-107338000D02*
X117047000Y-107338000D01*
X117047000Y-107592000D01*
X117027000Y-107592000D01*
X117027000Y-107612000D01*
X116773000Y-107612000D01*
X116773000Y-107592000D01*
X116753000Y-107592000D01*
X116753000Y-107338000D01*
X116773000Y-107338000D01*
X116773000Y-107318000D01*
X117027000Y-107318000D01*
X117027000Y-107338000D01*
G36*
X159315000Y-68173690D02*
X159315000Y-69314250D01*
X159473750Y-69473000D01*
X160573000Y-69473000D01*
X160573000Y-69453000D01*
X160827000Y-69453000D01*
X160827000Y-69473000D01*
X161926250Y-69473000D01*
X162085000Y-69314250D01*
X162085000Y-68173690D01*
X161996487Y-67960000D01*
X162413772Y-67960000D01*
X162353569Y-68048110D01*
X162302560Y-68300000D01*
X162302560Y-70900000D01*
X162346838Y-71135317D01*
X162485910Y-71351441D01*
X162698110Y-71496431D01*
X162950000Y-71547440D01*
X164450000Y-71547440D01*
X164685317Y-71503162D01*
X164901441Y-71364090D01*
X165046431Y-71151890D01*
X165097440Y-70900000D01*
X165097440Y-70536796D01*
X165150000Y-70547440D01*
X165550000Y-70547440D01*
X165785317Y-70503162D01*
X165796979Y-70495658D01*
X165798110Y-70496431D01*
X166050000Y-70547440D01*
X166450000Y-70547440D01*
X166685317Y-70503162D01*
X166690231Y-70500000D01*
X167393863Y-70500000D01*
X167520853Y-70690054D01*
X168002622Y-71011961D01*
X168570907Y-71125000D01*
X168629093Y-71125000D01*
X169197378Y-71011961D01*
X169679147Y-70690054D01*
X169874616Y-70397513D01*
X169823988Y-76725963D01*
X169809698Y-76711673D01*
X169576309Y-76615000D01*
X168885750Y-76615000D01*
X168727000Y-76773750D01*
X168727000Y-77973000D01*
X168747000Y-77973000D01*
X168747000Y-78227000D01*
X168727000Y-78227000D01*
X168727000Y-80513000D01*
X168747000Y-80513000D01*
X168747000Y-80767000D01*
X168727000Y-80767000D01*
X168727000Y-81960819D01*
X168956892Y-82081486D01*
X169481358Y-81835183D01*
X169785787Y-81501135D01*
X169740332Y-87182941D01*
X169576309Y-87115000D01*
X168885750Y-87115000D01*
X168727000Y-87273750D01*
X168727000Y-88473000D01*
X168747000Y-88473000D01*
X168747000Y-88727000D01*
X168727000Y-88727000D01*
X168727000Y-88747000D01*
X168473000Y-88747000D01*
X168473000Y-88727000D01*
X167273750Y-88727000D01*
X167115000Y-88885750D01*
X167115000Y-89576310D01*
X167211673Y-89809699D01*
X167390302Y-89988327D01*
X167564777Y-90060597D01*
X167520853Y-90089946D01*
X167327046Y-90380000D01*
X163260000Y-90380000D01*
X162969160Y-90437852D01*
X162722599Y-90602599D01*
X158051734Y-95273464D01*
X157969151Y-95218283D01*
X157420000Y-95109050D01*
X156870849Y-95218283D01*
X156405302Y-95529352D01*
X156150000Y-95911438D01*
X155894698Y-95529352D01*
X155640000Y-95359168D01*
X155640000Y-87623690D01*
X167115000Y-87623690D01*
X167115000Y-88314250D01*
X167273750Y-88473000D01*
X168473000Y-88473000D01*
X168473000Y-87273750D01*
X168314250Y-87115000D01*
X167623691Y-87115000D01*
X167390302Y-87211673D01*
X167211673Y-87390301D01*
X167115000Y-87623690D01*
X155640000Y-87623690D01*
X155640000Y-80996890D01*
X167158524Y-80996890D01*
X167328355Y-81406924D01*
X167718642Y-81835183D01*
X168243108Y-82081486D01*
X168473000Y-81960819D01*
X168473000Y-80767000D01*
X167279845Y-80767000D01*
X167158524Y-80996890D01*
X155640000Y-80996890D01*
X155640000Y-78385750D01*
X167115000Y-78385750D01*
X167115000Y-79076310D01*
X167211673Y-79309699D01*
X167390302Y-79488327D01*
X167599878Y-79575136D01*
X167328355Y-79873076D01*
X167158524Y-80283110D01*
X167279845Y-80513000D01*
X168473000Y-80513000D01*
X168473000Y-78227000D01*
X167273750Y-78227000D01*
X167115000Y-78385750D01*
X155640000Y-78385750D01*
X155640000Y-77123690D01*
X167115000Y-77123690D01*
X167115000Y-77814250D01*
X167273750Y-77973000D01*
X168473000Y-77973000D01*
X168473000Y-76773750D01*
X168314250Y-76615000D01*
X167623691Y-76615000D01*
X167390302Y-76711673D01*
X167211673Y-76890301D01*
X167115000Y-77123690D01*
X155640000Y-77123690D01*
X155640000Y-73680000D01*
X155582148Y-73389161D01*
X155417401Y-73142599D01*
X152297242Y-70022440D01*
X152847638Y-70022440D01*
X152962599Y-70137401D01*
X153209160Y-70302148D01*
X153257414Y-70311746D01*
X153500000Y-70360000D01*
X153977962Y-70360000D01*
X153996838Y-70460317D01*
X154135910Y-70676441D01*
X154348110Y-70821431D01*
X154600000Y-70872440D01*
X156100000Y-70872440D01*
X156335317Y-70828162D01*
X156551441Y-70689090D01*
X156597969Y-70620994D01*
X156740302Y-70763327D01*
X156973691Y-70860000D01*
X157564250Y-70860000D01*
X157723000Y-70701250D01*
X157723000Y-69727000D01*
X157977000Y-69727000D01*
X157977000Y-70701250D01*
X158135750Y-70860000D01*
X158726309Y-70860000D01*
X158959698Y-70763327D01*
X159138327Y-70584699D01*
X159235000Y-70351310D01*
X159235000Y-69885750D01*
X159315000Y-69885750D01*
X159315000Y-71026310D01*
X159411673Y-71259699D01*
X159590302Y-71438327D01*
X159823691Y-71535000D01*
X160414250Y-71535000D01*
X160573000Y-71376250D01*
X160573000Y-69727000D01*
X160827000Y-69727000D01*
X160827000Y-71376250D01*
X160985750Y-71535000D01*
X161576309Y-71535000D01*
X161809698Y-71438327D01*
X161988327Y-71259699D01*
X162085000Y-71026310D01*
X162085000Y-69885750D01*
X161926250Y-69727000D01*
X160827000Y-69727000D01*
X160573000Y-69727000D01*
X159473750Y-69727000D01*
X159315000Y-69885750D01*
X159235000Y-69885750D01*
X159076250Y-69727000D01*
X157977000Y-69727000D01*
X157723000Y-69727000D01*
X157703000Y-69727000D01*
X157703000Y-69473000D01*
X157723000Y-69473000D01*
X157723000Y-68498750D01*
X157977000Y-68498750D01*
X157977000Y-69473000D01*
X159076250Y-69473000D01*
X159235000Y-69314250D01*
X159235000Y-68848690D01*
X159138327Y-68615301D01*
X158959698Y-68436673D01*
X158726309Y-68340000D01*
X158135750Y-68340000D01*
X157977000Y-68498750D01*
X157723000Y-68498750D01*
X157564250Y-68340000D01*
X157448839Y-68340000D01*
X157497440Y-68100000D01*
X157497440Y-67960000D01*
X159403513Y-67960000D01*
X159315000Y-68173690D01*
X159315000Y-68173690D01*
G37*
X159315000Y-68173690D02*
X159315000Y-69314250D01*
X159473750Y-69473000D01*
X160573000Y-69473000D01*
X160573000Y-69453000D01*
X160827000Y-69453000D01*
X160827000Y-69473000D01*
X161926250Y-69473000D01*
X162085000Y-69314250D01*
X162085000Y-68173690D01*
X161996487Y-67960000D01*
X162413772Y-67960000D01*
X162353569Y-68048110D01*
X162302560Y-68300000D01*
X162302560Y-70900000D01*
X162346838Y-71135317D01*
X162485910Y-71351441D01*
X162698110Y-71496431D01*
X162950000Y-71547440D01*
X164450000Y-71547440D01*
X164685317Y-71503162D01*
X164901441Y-71364090D01*
X165046431Y-71151890D01*
X165097440Y-70900000D01*
X165097440Y-70536796D01*
X165150000Y-70547440D01*
X165550000Y-70547440D01*
X165785317Y-70503162D01*
X165796979Y-70495658D01*
X165798110Y-70496431D01*
X166050000Y-70547440D01*
X166450000Y-70547440D01*
X166685317Y-70503162D01*
X166690231Y-70500000D01*
X167393863Y-70500000D01*
X167520853Y-70690054D01*
X168002622Y-71011961D01*
X168570907Y-71125000D01*
X168629093Y-71125000D01*
X169197378Y-71011961D01*
X169679147Y-70690054D01*
X169874616Y-70397513D01*
X169823988Y-76725963D01*
X169809698Y-76711673D01*
X169576309Y-76615000D01*
X168885750Y-76615000D01*
X168727000Y-76773750D01*
X168727000Y-77973000D01*
X168747000Y-77973000D01*
X168747000Y-78227000D01*
X168727000Y-78227000D01*
X168727000Y-80513000D01*
X168747000Y-80513000D01*
X168747000Y-80767000D01*
X168727000Y-80767000D01*
X168727000Y-81960819D01*
X168956892Y-82081486D01*
X169481358Y-81835183D01*
X169785787Y-81501135D01*
X169740332Y-87182941D01*
X169576309Y-87115000D01*
X168885750Y-87115000D01*
X168727000Y-87273750D01*
X168727000Y-88473000D01*
X168747000Y-88473000D01*
X168747000Y-88727000D01*
X168727000Y-88727000D01*
X168727000Y-88747000D01*
X168473000Y-88747000D01*
X168473000Y-88727000D01*
X167273750Y-88727000D01*
X167115000Y-88885750D01*
X167115000Y-89576310D01*
X167211673Y-89809699D01*
X167390302Y-89988327D01*
X167564777Y-90060597D01*
X167520853Y-90089946D01*
X167327046Y-90380000D01*
X163260000Y-90380000D01*
X162969160Y-90437852D01*
X162722599Y-90602599D01*
X158051734Y-95273464D01*
X157969151Y-95218283D01*
X157420000Y-95109050D01*
X156870849Y-95218283D01*
X156405302Y-95529352D01*
X156150000Y-95911438D01*
X155894698Y-95529352D01*
X155640000Y-95359168D01*
X155640000Y-87623690D01*
X167115000Y-87623690D01*
X167115000Y-88314250D01*
X167273750Y-88473000D01*
X168473000Y-88473000D01*
X168473000Y-87273750D01*
X168314250Y-87115000D01*
X167623691Y-87115000D01*
X167390302Y-87211673D01*
X167211673Y-87390301D01*
X167115000Y-87623690D01*
X155640000Y-87623690D01*
X155640000Y-80996890D01*
X167158524Y-80996890D01*
X167328355Y-81406924D01*
X167718642Y-81835183D01*
X168243108Y-82081486D01*
X168473000Y-81960819D01*
X168473000Y-80767000D01*
X167279845Y-80767000D01*
X167158524Y-80996890D01*
X155640000Y-80996890D01*
X155640000Y-78385750D01*
X167115000Y-78385750D01*
X167115000Y-79076310D01*
X167211673Y-79309699D01*
X167390302Y-79488327D01*
X167599878Y-79575136D01*
X167328355Y-79873076D01*
X167158524Y-80283110D01*
X167279845Y-80513000D01*
X168473000Y-80513000D01*
X168473000Y-78227000D01*
X167273750Y-78227000D01*
X167115000Y-78385750D01*
X155640000Y-78385750D01*
X155640000Y-77123690D01*
X167115000Y-77123690D01*
X167115000Y-77814250D01*
X167273750Y-77973000D01*
X168473000Y-77973000D01*
X168473000Y-76773750D01*
X168314250Y-76615000D01*
X167623691Y-76615000D01*
X167390302Y-76711673D01*
X167211673Y-76890301D01*
X167115000Y-77123690D01*
X155640000Y-77123690D01*
X155640000Y-73680000D01*
X155582148Y-73389161D01*
X155417401Y-73142599D01*
X152297242Y-70022440D01*
X152847638Y-70022440D01*
X152962599Y-70137401D01*
X153209160Y-70302148D01*
X153257414Y-70311746D01*
X153500000Y-70360000D01*
X153977962Y-70360000D01*
X153996838Y-70460317D01*
X154135910Y-70676441D01*
X154348110Y-70821431D01*
X154600000Y-70872440D01*
X156100000Y-70872440D01*
X156335317Y-70828162D01*
X156551441Y-70689090D01*
X156597969Y-70620994D01*
X156740302Y-70763327D01*
X156973691Y-70860000D01*
X157564250Y-70860000D01*
X157723000Y-70701250D01*
X157723000Y-69727000D01*
X157977000Y-69727000D01*
X157977000Y-70701250D01*
X158135750Y-70860000D01*
X158726309Y-70860000D01*
X158959698Y-70763327D01*
X159138327Y-70584699D01*
X159235000Y-70351310D01*
X159235000Y-69885750D01*
X159315000Y-69885750D01*
X159315000Y-71026310D01*
X159411673Y-71259699D01*
X159590302Y-71438327D01*
X159823691Y-71535000D01*
X160414250Y-71535000D01*
X160573000Y-71376250D01*
X160573000Y-69727000D01*
X160827000Y-69727000D01*
X160827000Y-71376250D01*
X160985750Y-71535000D01*
X161576309Y-71535000D01*
X161809698Y-71438327D01*
X161988327Y-71259699D01*
X162085000Y-71026310D01*
X162085000Y-69885750D01*
X161926250Y-69727000D01*
X160827000Y-69727000D01*
X160573000Y-69727000D01*
X159473750Y-69727000D01*
X159315000Y-69885750D01*
X159235000Y-69885750D01*
X159076250Y-69727000D01*
X157977000Y-69727000D01*
X157723000Y-69727000D01*
X157703000Y-69727000D01*
X157703000Y-69473000D01*
X157723000Y-69473000D01*
X157723000Y-68498750D01*
X157977000Y-68498750D01*
X157977000Y-69473000D01*
X159076250Y-69473000D01*
X159235000Y-69314250D01*
X159235000Y-68848690D01*
X159138327Y-68615301D01*
X158959698Y-68436673D01*
X158726309Y-68340000D01*
X158135750Y-68340000D01*
X157977000Y-68498750D01*
X157723000Y-68498750D01*
X157564250Y-68340000D01*
X157448839Y-68340000D01*
X157497440Y-68100000D01*
X157497440Y-67960000D01*
X159403513Y-67960000D01*
X159315000Y-68173690D01*
M02*
