M48
;DRILL file {KiCad 4.0.7} date 03/26/18 17:29:37
;FORMAT={2:4/ absolute / inch / suppress trailing zeros}
FMAT,2
INCH,LZ
T1C0.016
T2C0.020
T3C0.022
T4C0.031
T5C0.039
%
G90
G05
M72
T1
X043622Y-044173
X043622Y-045197
X044173Y-042756
X045197Y-046299
X045276Y-029134
X045315Y-041772
X045512Y-025512
X045591Y-041102
X045748Y-042362
X046378Y-031575
X046378Y-034803
X046378Y-037953
X048268Y-025512
X048504Y-04685
X048661Y-045039
X049843Y-043228
X049843Y-044803
X051024Y-039685
X051496Y-037874
X054016Y-042835
X054724Y-036614
X055157Y-031732
X056457Y-042913
X056693Y-024488
X057165Y-034803
X057717Y-026772
X058583Y-042835
X058661Y-02685
X058661Y-044961
X058701Y-041969
X059764Y-024488
X060236Y-044961
X061457Y-039803
X061496Y-034803
X063425Y-038819
X063937Y-024488
X063937Y-027953
X063937Y-03126
X063937Y-034803
T4
X053976Y-038181
X053976Y-041181
X054976Y-038181
X054976Y-041181
X055976Y-038181
X055976Y-041181
X056976Y-038181
X056976Y-041181
X057976Y-038181
X057976Y-041181
X058976Y-038181
X058976Y-041181
X059976Y-038181
X059976Y-041181
X060976Y-038181
X060976Y-041181
X061976Y-038181
X061976Y-041181
X062976Y-038181
X062976Y-041181
T5
X04374Y-039181
X04374Y-040181
X04374Y-041181
X043937Y-028189
X043937Y-029189
X043937Y-032717
X043937Y-033717
X046535Y-03063
X047535Y-03063
X051417Y-041559
X051417Y-042559
X051417Y-044134
X051417Y-045134
X056142Y-047087
X056732Y-029961
X056732Y-030961
X057142Y-047087
X058142Y-047087
X059142Y-047087
X060142Y-047087
X061142Y-047087
X066378Y-026417
X066378Y-027417
X066378Y-030748
X066378Y-031748
X066378Y-034882
X066378Y-035882
X066378Y-036882
X066378Y-037882
X066378Y-038882
X066378Y-039882
X066378Y-040882
X066378Y-041882
T2
X047283Y-046959G85X047283Y-046703
G05
X050039Y-046959G85X050039Y-046703
G05
T3
X047618Y-045768G85X047736Y-045768
G05
X049587Y-045768G85X049705Y-045768
G05
T0
M30
