G04 #@! TF.FileFunction,Soldermask,Bot*
%FSLAX46Y46*%
G04 Gerber Fmt 4.6, Leading zero omitted, Abs format (unit mm)*
G04 Created by KiCad (PCBNEW 4.0.7) date 03/26/18 17:29:43*
%MOMM*%
%LPD*%
G01*
G04 APERTURE LIST*
%ADD10C,0.100000*%
%ADD11R,1.700000X1.700000*%
%ADD12O,1.700000X1.700000*%
%ADD13O,1.250000X0.950000*%
%ADD14O,1.000000X1.550000*%
%ADD15R,1.600000X2.400000*%
%ADD16O,1.600000X2.400000*%
%ADD17C,2.700000*%
G04 APERTURE END LIST*
D10*
D11*
X111600000Y-71600000D03*
D12*
X111600000Y-74140000D03*
D11*
X111600000Y-83100000D03*
D12*
X111600000Y-85640000D03*
D13*
X121100000Y-116250000D03*
X126100000Y-116250000D03*
D14*
X120100000Y-118950000D03*
X127100000Y-118950000D03*
D11*
X130600000Y-112100000D03*
D12*
X130600000Y-114640000D03*
D11*
X130600000Y-108100000D03*
D12*
X130600000Y-105560000D03*
D11*
X144100000Y-76100000D03*
D12*
X144100000Y-78640000D03*
D11*
X142600000Y-119600000D03*
D12*
X145140000Y-119600000D03*
X147680000Y-119600000D03*
X150220000Y-119600000D03*
X152760000Y-119600000D03*
X155300000Y-119600000D03*
D11*
X168600000Y-67100000D03*
D12*
X168600000Y-69640000D03*
D11*
X168600000Y-78100000D03*
D12*
X168600000Y-80640000D03*
D11*
X111100000Y-104600000D03*
D12*
X111100000Y-102060000D03*
X111100000Y-99520000D03*
D11*
X168600000Y-88600000D03*
D12*
X168600000Y-91140000D03*
X168600000Y-93680000D03*
X168600000Y-96220000D03*
X168600000Y-98760000D03*
X168600000Y-101300000D03*
X168600000Y-103840000D03*
X168600000Y-106380000D03*
D15*
X137100000Y-104600000D03*
D16*
X159960000Y-96980000D03*
X139640000Y-104600000D03*
X157420000Y-96980000D03*
X142180000Y-104600000D03*
X154880000Y-96980000D03*
X144720000Y-104600000D03*
X152340000Y-96980000D03*
X147260000Y-104600000D03*
X149800000Y-96980000D03*
X149800000Y-104600000D03*
X147260000Y-96980000D03*
X152340000Y-104600000D03*
X144720000Y-96980000D03*
X154880000Y-104600000D03*
X142180000Y-96980000D03*
X157420000Y-104600000D03*
X139640000Y-96980000D03*
X159960000Y-104600000D03*
X137100000Y-96980000D03*
D17*
X168000000Y-60200000D03*
X111200000Y-60200000D03*
X111200000Y-118400000D03*
X168000000Y-118600000D03*
D11*
X118200000Y-77800000D03*
D12*
X120740000Y-77800000D03*
M02*
