G04 #@! TF.FileFunction,Soldermask,Top*
%FSLAX46Y46*%
G04 Gerber Fmt 4.6, Leading zero omitted, Abs format (unit mm)*
G04 Created by KiCad (PCBNEW 4.0.7) date 03/26/18 17:29:43*
%MOMM*%
%LPD*%
G01*
G04 APERTURE LIST*
%ADD10C,0.100000*%
%ADD11R,1.600000X3.500000*%
%ADD12R,2.500000X4.000000*%
%ADD13R,0.500000X0.600000*%
%ADD14R,1.500000X1.250000*%
%ADD15R,2.500000X2.000000*%
%ADD16R,1.250000X1.500000*%
%ADD17R,1.200000X0.750000*%
%ADD18R,2.550000X2.770000*%
%ADD19R,2.000000X2.500000*%
%ADD20R,1.900000X0.800000*%
%ADD21R,1.700000X1.700000*%
%ADD22O,1.700000X1.700000*%
%ADD23R,0.400000X1.350000*%
%ADD24O,1.250000X0.950000*%
%ADD25O,1.000000X1.550000*%
%ADD26R,4.000000X5.500000*%
%ADD27R,3.000000X3.200000*%
%ADD28R,1.500000X1.300000*%
%ADD29R,1.000000X3.850000*%
%ADD30R,10.950000X9.600000*%
%ADD31R,1.560000X0.650000*%
%ADD32R,1.600000X2.400000*%
%ADD33O,1.600000X2.400000*%
%ADD34R,1.550000X0.600000*%
%ADD35C,2.700000*%
%ADD36R,1.500000X2.600000*%
%ADD37R,2.600000X1.500000*%
%ADD38R,0.400000X0.600000*%
G04 APERTURE END LIST*
D10*
D11*
X122600000Y-73300000D03*
X122600000Y-67900000D03*
D12*
X136100000Y-80600000D03*
X136100000Y-88600000D03*
D13*
X137100000Y-106550000D03*
X137100000Y-107650000D03*
D14*
X155350000Y-69600000D03*
X157850000Y-69600000D03*
D15*
X155600000Y-67100000D03*
X155600000Y-63100000D03*
X144100000Y-71600000D03*
X144100000Y-67600000D03*
D16*
X144600000Y-93850000D03*
X144600000Y-91350000D03*
D17*
X118650000Y-113100000D03*
X120550000Y-113100000D03*
D18*
X126100000Y-106320000D03*
X126100000Y-99880000D03*
D19*
X110100000Y-108600000D03*
X114100000Y-108600000D03*
D20*
X125600000Y-77650000D03*
X125600000Y-79550000D03*
X128600000Y-78600000D03*
D17*
X143050000Y-111100000D03*
X141150000Y-111100000D03*
X152850000Y-111200000D03*
X154750000Y-111200000D03*
D20*
X113100000Y-112150000D03*
X113100000Y-114050000D03*
X116100000Y-113100000D03*
D21*
X111600000Y-71600000D03*
D22*
X111600000Y-74140000D03*
D21*
X111600000Y-83100000D03*
D22*
X111600000Y-85640000D03*
D23*
X122300000Y-116250000D03*
X122950000Y-116250000D03*
X123600000Y-116250000D03*
X124250000Y-116250000D03*
X124900000Y-116250000D03*
D24*
X121100000Y-116250000D03*
X126100000Y-116250000D03*
D25*
X120100000Y-118950000D03*
X127100000Y-118950000D03*
D21*
X130600000Y-112100000D03*
D22*
X130600000Y-114640000D03*
D21*
X130600000Y-108100000D03*
D22*
X130600000Y-105560000D03*
D21*
X144100000Y-76100000D03*
D22*
X144100000Y-78640000D03*
D21*
X142600000Y-119600000D03*
D22*
X145140000Y-119600000D03*
X147680000Y-119600000D03*
X150220000Y-119600000D03*
X152760000Y-119600000D03*
X155300000Y-119600000D03*
D21*
X168600000Y-67100000D03*
D22*
X168600000Y-69640000D03*
D21*
X168600000Y-78100000D03*
D22*
X168600000Y-80640000D03*
D21*
X111100000Y-104600000D03*
D22*
X111100000Y-102060000D03*
X111100000Y-99520000D03*
D21*
X168600000Y-88600000D03*
D22*
X168600000Y-91140000D03*
X168600000Y-93680000D03*
X168600000Y-96220000D03*
X168600000Y-98760000D03*
X168600000Y-101300000D03*
X168600000Y-103840000D03*
X168600000Y-106380000D03*
D26*
X123600000Y-92850000D03*
X123600000Y-84350000D03*
D27*
X121550000Y-100775000D03*
X116650000Y-100600000D03*
D28*
X135250000Y-111100000D03*
X137950000Y-111100000D03*
X159450000Y-111100000D03*
X156750000Y-111100000D03*
D29*
X131200000Y-73800000D03*
D30*
X134600000Y-62900000D03*
D29*
X132900000Y-73800000D03*
X134600000Y-73800000D03*
X136300000Y-73800000D03*
X138000000Y-73800000D03*
D31*
X150250000Y-67150000D03*
X150250000Y-68100000D03*
X150250000Y-69050000D03*
X152950000Y-69050000D03*
X152950000Y-67150000D03*
D32*
X137100000Y-104600000D03*
D33*
X159960000Y-96980000D03*
X139640000Y-104600000D03*
X157420000Y-96980000D03*
X142180000Y-104600000D03*
X154880000Y-96980000D03*
X144720000Y-104600000D03*
X152340000Y-96980000D03*
X147260000Y-104600000D03*
X149800000Y-96980000D03*
X149800000Y-104600000D03*
X147260000Y-96980000D03*
X152340000Y-104600000D03*
X144720000Y-96980000D03*
X154880000Y-104600000D03*
X142180000Y-96980000D03*
X157420000Y-104600000D03*
X139640000Y-96980000D03*
X159960000Y-104600000D03*
X137100000Y-96980000D03*
D34*
X122300000Y-110005000D03*
X122300000Y-108735000D03*
X122300000Y-107465000D03*
X122300000Y-106195000D03*
X116900000Y-106195000D03*
X116900000Y-107465000D03*
X116900000Y-108735000D03*
X116900000Y-110005000D03*
D35*
X168000000Y-60200000D03*
X111200000Y-60200000D03*
X111200000Y-118400000D03*
X168000000Y-118600000D03*
D21*
X118200000Y-77800000D03*
D22*
X120740000Y-77800000D03*
D36*
X163700000Y-69600000D03*
X160700000Y-69600000D03*
D37*
X148600000Y-80500000D03*
X148600000Y-83500000D03*
D38*
X166250000Y-69600000D03*
X165350000Y-69600000D03*
X147750000Y-78600000D03*
X148650000Y-78600000D03*
M02*
