G04 #@! TF.FileFunction,Legend,Top*
%FSLAX46Y46*%
G04 Gerber Fmt 4.6, Leading zero omitted, Abs format (unit mm)*
G04 Created by KiCad (PCBNEW 4.0.7) date 03/26/18 17:29:43*
%MOMM*%
%LPD*%
G01*
G04 APERTURE LIST*
%ADD10C,0.100000*%
%ADD11C,0.160000*%
%ADD12C,0.200000*%
%ADD13C,0.300000*%
%ADD14C,0.120000*%
%ADD15C,0.228600*%
%ADD16C,0.381000*%
%ADD17C,0.350000*%
%ADD18C,0.150000*%
%ADD19C,0.002540*%
%ADD20C,0.254000*%
%ADD21R,1.600000X3.500000*%
%ADD22R,2.500000X4.000000*%
%ADD23R,0.500000X0.600000*%
%ADD24R,1.500000X1.250000*%
%ADD25R,2.500000X2.000000*%
%ADD26R,1.250000X1.500000*%
%ADD27R,1.200000X0.750000*%
%ADD28R,2.550000X2.770000*%
%ADD29R,2.000000X2.500000*%
%ADD30R,1.900000X0.800000*%
%ADD31R,1.700000X1.700000*%
%ADD32O,1.700000X1.700000*%
%ADD33R,0.400000X1.350000*%
%ADD34O,1.250000X0.950000*%
%ADD35O,1.000000X1.550000*%
%ADD36R,4.000000X5.500000*%
%ADD37R,3.000000X3.200000*%
%ADD38R,1.500000X1.300000*%
%ADD39R,1.000000X3.850000*%
%ADD40R,10.950000X9.600000*%
%ADD41R,1.560000X0.650000*%
%ADD42R,1.600000X2.400000*%
%ADD43O,1.600000X2.400000*%
%ADD44R,1.550000X0.600000*%
%ADD45C,2.700000*%
%ADD46R,1.500000X2.600000*%
%ADD47R,2.600000X1.500000*%
%ADD48R,0.400000X0.600000*%
G04 APERTURE END LIST*
D10*
D11*
X149314287Y-72742857D02*
X150114287Y-72742857D01*
X149314287Y-73942857D01*
X150114287Y-73942857D01*
X150514286Y-73600000D02*
X151085715Y-73600000D01*
X150400001Y-73942857D02*
X150800001Y-72742857D01*
X151200001Y-73942857D01*
X151428572Y-72742857D02*
X151828572Y-73942857D01*
X152228572Y-72742857D01*
X153314286Y-73942857D02*
X152914286Y-73371429D01*
X152628571Y-73942857D02*
X152628571Y-72742857D01*
X153085714Y-72742857D01*
X153200000Y-72800000D01*
X153257143Y-72857143D01*
X153314286Y-72971429D01*
X153314286Y-73142857D01*
X153257143Y-73257143D01*
X153200000Y-73314286D01*
X153085714Y-73371429D01*
X152628571Y-73371429D01*
X153771428Y-73885714D02*
X153942857Y-73942857D01*
X154228571Y-73942857D01*
X154342857Y-73885714D01*
X154400000Y-73828571D01*
X154457143Y-73714286D01*
X154457143Y-73600000D01*
X154400000Y-73485714D01*
X154342857Y-73428571D01*
X154228571Y-73371429D01*
X154000000Y-73314286D01*
X153885714Y-73257143D01*
X153828571Y-73200000D01*
X153771428Y-73085714D01*
X153771428Y-72971429D01*
X153828571Y-72857143D01*
X153885714Y-72800000D01*
X154000000Y-72742857D01*
X154285714Y-72742857D01*
X154457143Y-72800000D01*
X153885714Y-72285714D02*
X154114286Y-72457143D01*
X154342857Y-72285714D01*
X154971428Y-73942857D02*
X154971428Y-72742857D01*
X155657143Y-73942857D01*
X155657143Y-72742857D01*
X156228571Y-73942857D02*
X156228571Y-72742857D01*
X158400001Y-73942857D02*
X158000001Y-73371429D01*
X157714286Y-73942857D02*
X157714286Y-72742857D01*
X158171429Y-72742857D01*
X158285715Y-72800000D01*
X158342858Y-72857143D01*
X158400001Y-72971429D01*
X158400001Y-73142857D01*
X158342858Y-73257143D01*
X158285715Y-73314286D01*
X158171429Y-73371429D01*
X157714286Y-73371429D01*
X158857143Y-73600000D02*
X159428572Y-73600000D01*
X158742858Y-73942857D02*
X159142858Y-72742857D01*
X159542858Y-73942857D01*
X159942857Y-73942857D02*
X159942857Y-72742857D01*
X160228572Y-72742857D01*
X160400000Y-72800000D01*
X160514286Y-72914286D01*
X160571429Y-73028571D01*
X160628572Y-73257143D01*
X160628572Y-73428571D01*
X160571429Y-73657143D01*
X160514286Y-73771429D01*
X160400000Y-73885714D01*
X160228572Y-73942857D01*
X159942857Y-73942857D01*
D12*
X146885713Y-91600000D02*
X147457142Y-91600000D01*
X146771428Y-91942857D02*
X147171428Y-90742857D01*
X147571428Y-91942857D01*
X147971427Y-91828571D02*
X148028570Y-91885714D01*
X147971427Y-91942857D01*
X147914284Y-91885714D01*
X147971427Y-91828571D01*
X147971427Y-91942857D01*
X148942856Y-91314286D02*
X149114285Y-91371429D01*
X149171428Y-91428571D01*
X149228571Y-91542857D01*
X149228571Y-91714286D01*
X149171428Y-91828571D01*
X149114285Y-91885714D01*
X148999999Y-91942857D01*
X148542856Y-91942857D01*
X148542856Y-90742857D01*
X148942856Y-90742857D01*
X149057142Y-90800000D01*
X149114285Y-90857143D01*
X149171428Y-90971429D01*
X149171428Y-91085714D01*
X149114285Y-91200000D01*
X149057142Y-91257143D01*
X148942856Y-91314286D01*
X148542856Y-91314286D01*
X149685713Y-91600000D02*
X150257142Y-91600000D01*
X149571428Y-91942857D02*
X149971428Y-90742857D01*
X150371428Y-91942857D01*
X151457142Y-91942857D02*
X151057142Y-91371429D01*
X150771427Y-91942857D02*
X150771427Y-90742857D01*
X151228570Y-90742857D01*
X151342856Y-90800000D01*
X151399999Y-90857143D01*
X151457142Y-90971429D01*
X151457142Y-91142857D01*
X151399999Y-91257143D01*
X151342856Y-91314286D01*
X151228570Y-91371429D01*
X150771427Y-91371429D01*
X151971427Y-91942857D02*
X151971427Y-90742857D01*
X153228571Y-91828571D02*
X153171428Y-91885714D01*
X152999999Y-91942857D01*
X152885713Y-91942857D01*
X152714285Y-91885714D01*
X152599999Y-91771429D01*
X152542856Y-91657143D01*
X152485713Y-91428571D01*
X152485713Y-91257143D01*
X152542856Y-91028571D01*
X152599999Y-90914286D01*
X152714285Y-90800000D01*
X152885713Y-90742857D01*
X152999999Y-90742857D01*
X153171428Y-90800000D01*
X153228571Y-90857143D01*
X153057142Y-90285714D02*
X152885713Y-90457143D01*
X154657142Y-91942857D02*
X154657142Y-90742857D01*
X154657142Y-91314286D02*
X155342857Y-91314286D01*
X155342857Y-91942857D02*
X155342857Y-90742857D01*
X155914285Y-91828571D02*
X155971428Y-91885714D01*
X155914285Y-91942857D01*
X155857142Y-91885714D01*
X155914285Y-91828571D01*
X155914285Y-91942857D01*
X157342857Y-91885714D02*
X157514286Y-91942857D01*
X157800000Y-91942857D01*
X157914286Y-91885714D01*
X157971429Y-91828571D01*
X158028572Y-91714286D01*
X158028572Y-91600000D01*
X157971429Y-91485714D01*
X157914286Y-91428571D01*
X157800000Y-91371429D01*
X157571429Y-91314286D01*
X157457143Y-91257143D01*
X157400000Y-91200000D01*
X157342857Y-91085714D01*
X157342857Y-90971429D01*
X157400000Y-90857143D01*
X157457143Y-90800000D01*
X157571429Y-90742857D01*
X157857143Y-90742857D01*
X158028572Y-90800000D01*
X157457143Y-90285714D02*
X157685715Y-90457143D01*
X157914286Y-90285714D01*
X158371429Y-90742857D02*
X159057143Y-90742857D01*
X158714286Y-91942857D02*
X158714286Y-90742857D01*
X159457143Y-91942857D02*
X159457143Y-90742857D01*
X160028572Y-91942857D02*
X160028572Y-90742857D01*
X160428572Y-91600000D01*
X160828572Y-90742857D01*
X160828572Y-91942857D01*
X161342858Y-91600000D02*
X161914287Y-91600000D01*
X161228573Y-91942857D02*
X161628573Y-90742857D01*
X162028573Y-91942857D01*
X163114287Y-91828571D02*
X163057144Y-91885714D01*
X162885715Y-91942857D01*
X162771429Y-91942857D01*
X162600001Y-91885714D01*
X162485715Y-91771429D01*
X162428572Y-91657143D01*
X162371429Y-91428571D01*
X162371429Y-91257143D01*
X162428572Y-91028571D01*
X162485715Y-90914286D01*
X162600001Y-90800000D01*
X162771429Y-90742857D01*
X162885715Y-90742857D01*
X163057144Y-90800000D01*
X163114287Y-90857143D01*
D13*
X148892857Y-86403571D02*
X148892857Y-84903571D01*
X149250000Y-84903571D01*
X149464285Y-84975000D01*
X149607143Y-85117857D01*
X149678571Y-85260714D01*
X149750000Y-85546429D01*
X149750000Y-85760714D01*
X149678571Y-86046429D01*
X149607143Y-86189286D01*
X149464285Y-86332143D01*
X149250000Y-86403571D01*
X148892857Y-86403571D01*
X150392857Y-86403571D02*
X150392857Y-84903571D01*
X151107143Y-86403571D02*
X151107143Y-84903571D01*
X151964286Y-86403571D01*
X151964286Y-84903571D01*
X152964286Y-84903571D02*
X153250000Y-84903571D01*
X153392858Y-84975000D01*
X153535715Y-85117857D01*
X153607143Y-85403571D01*
X153607143Y-85903571D01*
X153535715Y-86189286D01*
X153392858Y-86332143D01*
X153250000Y-86403571D01*
X152964286Y-86403571D01*
X152821429Y-86332143D01*
X152678572Y-86189286D01*
X152607143Y-85903571D01*
X152607143Y-85403571D01*
X152678572Y-85117857D01*
X152821429Y-84975000D01*
X152964286Y-84903571D01*
X155321429Y-86332143D02*
X155535715Y-86403571D01*
X155892858Y-86403571D01*
X156035715Y-86332143D01*
X156107144Y-86260714D01*
X156178572Y-86117857D01*
X156178572Y-85975000D01*
X156107144Y-85832143D01*
X156035715Y-85760714D01*
X155892858Y-85689286D01*
X155607144Y-85617857D01*
X155464286Y-85546429D01*
X155392858Y-85475000D01*
X155321429Y-85332143D01*
X155321429Y-85189286D01*
X155392858Y-85046429D01*
X155464286Y-84975000D01*
X155607144Y-84903571D01*
X155964286Y-84903571D01*
X156178572Y-84975000D01*
X155464286Y-84332143D02*
X155750001Y-84546429D01*
X156035715Y-84332143D01*
X156750000Y-85975000D02*
X157464286Y-85975000D01*
X156607143Y-86403571D02*
X157107143Y-84903571D01*
X157607143Y-86403571D01*
X158964286Y-86403571D02*
X158464286Y-85689286D01*
X158107143Y-86403571D02*
X158107143Y-84903571D01*
X158678571Y-84903571D01*
X158821429Y-84975000D01*
X158892857Y-85046429D01*
X158964286Y-85189286D01*
X158964286Y-85403571D01*
X158892857Y-85546429D01*
X158821429Y-85617857D01*
X158678571Y-85689286D01*
X158107143Y-85689286D01*
X159607143Y-86403571D02*
X159607143Y-84903571D01*
X161178572Y-86260714D02*
X161107143Y-86332143D01*
X160892857Y-86403571D01*
X160750000Y-86403571D01*
X160535715Y-86332143D01*
X160392857Y-86189286D01*
X160321429Y-86046429D01*
X160250000Y-85760714D01*
X160250000Y-85546429D01*
X160321429Y-85260714D01*
X160392857Y-85117857D01*
X160535715Y-84975000D01*
X160750000Y-84903571D01*
X160892857Y-84903571D01*
X161107143Y-84975000D01*
X161178572Y-85046429D01*
X160964286Y-84332143D02*
X160750000Y-84546429D01*
X150785715Y-88953571D02*
X149928572Y-88953571D01*
X150357144Y-88953571D02*
X150357144Y-87453571D01*
X150214287Y-87667857D01*
X150071429Y-87810714D01*
X149928572Y-87882143D01*
X151642858Y-88096429D02*
X151500000Y-88025000D01*
X151428572Y-87953571D01*
X151357143Y-87810714D01*
X151357143Y-87739286D01*
X151428572Y-87596429D01*
X151500000Y-87525000D01*
X151642858Y-87453571D01*
X151928572Y-87453571D01*
X152071429Y-87525000D01*
X152142858Y-87596429D01*
X152214286Y-87739286D01*
X152214286Y-87810714D01*
X152142858Y-87953571D01*
X152071429Y-88025000D01*
X151928572Y-88096429D01*
X151642858Y-88096429D01*
X151500000Y-88167857D01*
X151428572Y-88239286D01*
X151357143Y-88382143D01*
X151357143Y-88667857D01*
X151428572Y-88810714D01*
X151500000Y-88882143D01*
X151642858Y-88953571D01*
X151928572Y-88953571D01*
X152071429Y-88882143D01*
X152142858Y-88810714D01*
X152214286Y-88667857D01*
X152214286Y-88382143D01*
X152142858Y-88239286D01*
X152071429Y-88167857D01*
X151928572Y-88096429D01*
X152857143Y-88810714D02*
X152928571Y-88882143D01*
X152857143Y-88953571D01*
X152785714Y-88882143D01*
X152857143Y-88810714D01*
X152857143Y-88953571D01*
X153857143Y-87453571D02*
X154000000Y-87453571D01*
X154142857Y-87525000D01*
X154214286Y-87596429D01*
X154285715Y-87739286D01*
X154357143Y-88025000D01*
X154357143Y-88382143D01*
X154285715Y-88667857D01*
X154214286Y-88810714D01*
X154142857Y-88882143D01*
X154000000Y-88953571D01*
X153857143Y-88953571D01*
X153714286Y-88882143D01*
X153642857Y-88810714D01*
X153571429Y-88667857D01*
X153500000Y-88382143D01*
X153500000Y-88025000D01*
X153571429Y-87739286D01*
X153642857Y-87596429D01*
X153714286Y-87525000D01*
X153857143Y-87453571D01*
X154857143Y-87453571D02*
X155785714Y-87453571D01*
X155285714Y-88025000D01*
X155500000Y-88025000D01*
X155642857Y-88096429D01*
X155714286Y-88167857D01*
X155785714Y-88310714D01*
X155785714Y-88667857D01*
X155714286Y-88810714D01*
X155642857Y-88882143D01*
X155500000Y-88953571D01*
X155071428Y-88953571D01*
X154928571Y-88882143D01*
X154857143Y-88810714D01*
X156428571Y-88810714D02*
X156499999Y-88882143D01*
X156428571Y-88953571D01*
X156357142Y-88882143D01*
X156428571Y-88810714D01*
X156428571Y-88953571D01*
X157214285Y-87453571D02*
X157071428Y-87739286D01*
X158642857Y-88953571D02*
X157785714Y-88953571D01*
X158214286Y-88953571D02*
X158214286Y-87453571D01*
X158071429Y-87667857D01*
X157928571Y-87810714D01*
X157785714Y-87882143D01*
X159500000Y-88096429D02*
X159357142Y-88025000D01*
X159285714Y-87953571D01*
X159214285Y-87810714D01*
X159214285Y-87739286D01*
X159285714Y-87596429D01*
X159357142Y-87525000D01*
X159500000Y-87453571D01*
X159785714Y-87453571D01*
X159928571Y-87525000D01*
X160000000Y-87596429D01*
X160071428Y-87739286D01*
X160071428Y-87810714D01*
X160000000Y-87953571D01*
X159928571Y-88025000D01*
X159785714Y-88096429D01*
X159500000Y-88096429D01*
X159357142Y-88167857D01*
X159285714Y-88239286D01*
X159214285Y-88382143D01*
X159214285Y-88667857D01*
X159285714Y-88810714D01*
X159357142Y-88882143D01*
X159500000Y-88953571D01*
X159785714Y-88953571D01*
X159928571Y-88882143D01*
X160000000Y-88810714D01*
X160071428Y-88667857D01*
X160071428Y-88382143D01*
X160000000Y-88239286D01*
X159928571Y-88167857D01*
X159785714Y-88096429D01*
D14*
X125140000Y-73900000D02*
X123720000Y-73900000D01*
X125900000Y-67300000D02*
X123720000Y-67300000D01*
X119300000Y-67300000D02*
X121480000Y-67300000D01*
X120060000Y-73900000D02*
X121480000Y-73900000D01*
X125900000Y-67300000D02*
X125900000Y-73140000D01*
X125900000Y-73140000D02*
X125140000Y-73900000D01*
X120060000Y-73900000D02*
X119300000Y-73140000D01*
X119300000Y-73140000D02*
X119300000Y-67300000D01*
X140550000Y-79390000D02*
X137660000Y-79390000D01*
X131650000Y-79390000D02*
X134540000Y-79390000D01*
X130890000Y-89810000D02*
X134540000Y-89810000D01*
X141310000Y-89810000D02*
X137660000Y-89810000D01*
X130890000Y-89810000D02*
X130890000Y-80150000D01*
X130890000Y-80150000D02*
X131650000Y-79390000D01*
X140550000Y-79390000D02*
X141310000Y-80150000D01*
X141310000Y-80150000D02*
X141310000Y-89810000D01*
X137570000Y-107350000D02*
X137570000Y-106850000D01*
X136630000Y-106850000D02*
X136630000Y-107350000D01*
X157100000Y-68750000D02*
X156100000Y-68750000D01*
X156100000Y-70450000D02*
X157100000Y-70450000D01*
X154120000Y-64100000D02*
X154120000Y-66100000D01*
X157080000Y-66100000D02*
X157080000Y-64100000D01*
X142620000Y-68600000D02*
X142620000Y-70600000D01*
X145580000Y-70600000D02*
X145580000Y-68600000D01*
X143750000Y-92100000D02*
X143750000Y-93100000D01*
X145450000Y-93100000D02*
X145450000Y-92100000D01*
X119250000Y-112500000D02*
X119950000Y-112500000D01*
X119950000Y-113700000D02*
X119250000Y-113700000D01*
D15*
X123941000Y-104624000D02*
X128259000Y-104624000D01*
X128259000Y-106783000D02*
X128259000Y-99417000D01*
X123941000Y-106783000D02*
X123941000Y-99417000D01*
D16*
X126608000Y-108434000D02*
X125592000Y-108434000D01*
X126100000Y-107926000D02*
X126100000Y-108942000D01*
D15*
X123941000Y-106783000D02*
X128259000Y-106783000D01*
X128259000Y-99417000D02*
X123941000Y-99417000D01*
D14*
X113100000Y-107120000D02*
X111100000Y-107120000D01*
X111100000Y-110080000D02*
X113100000Y-110080000D01*
X127860000Y-80180000D02*
X127860000Y-79250000D01*
X127860000Y-77020000D02*
X127860000Y-77950000D01*
X127860000Y-77020000D02*
X124700000Y-77020000D01*
X127860000Y-80180000D02*
X126400000Y-80180000D01*
X142450000Y-111700000D02*
X141750000Y-111700000D01*
X141750000Y-110500000D02*
X142450000Y-110500000D01*
X153450000Y-110600000D02*
X154150000Y-110600000D01*
X154150000Y-111800000D02*
X153450000Y-111800000D01*
X115360000Y-114680000D02*
X115360000Y-113750000D01*
X115360000Y-111520000D02*
X115360000Y-112450000D01*
X115360000Y-111520000D02*
X112200000Y-111520000D01*
X115360000Y-114680000D02*
X113900000Y-114680000D01*
X110270000Y-75470000D02*
X112930000Y-75470000D01*
X110270000Y-72870000D02*
X110270000Y-75470000D01*
X112930000Y-72870000D02*
X112930000Y-75470000D01*
X110270000Y-72870000D02*
X112930000Y-72870000D01*
X110270000Y-71600000D02*
X110270000Y-70270000D01*
X110270000Y-70270000D02*
X111600000Y-70270000D01*
X110270000Y-86970000D02*
X112930000Y-86970000D01*
X110270000Y-84370000D02*
X110270000Y-86970000D01*
X112930000Y-84370000D02*
X112930000Y-86970000D01*
X110270000Y-84370000D02*
X112930000Y-84370000D01*
X110270000Y-83100000D02*
X110270000Y-81770000D01*
X110270000Y-81770000D02*
X111600000Y-81770000D01*
X119250000Y-121630000D02*
X127950000Y-121630000D01*
X119250000Y-115220000D02*
X127950000Y-115220000D01*
X127950000Y-115220000D02*
X127950000Y-121630000D01*
X127950000Y-120400000D02*
X119250000Y-120400000D01*
X119250000Y-121630000D02*
X119250000Y-115220000D01*
X129270000Y-115970000D02*
X131930000Y-115970000D01*
X129270000Y-113370000D02*
X129270000Y-115970000D01*
X131930000Y-113370000D02*
X131930000Y-115970000D01*
X129270000Y-113370000D02*
X131930000Y-113370000D01*
X129270000Y-112100000D02*
X129270000Y-110770000D01*
X129270000Y-110770000D02*
X130600000Y-110770000D01*
X131930000Y-104230000D02*
X129270000Y-104230000D01*
X131930000Y-106830000D02*
X131930000Y-104230000D01*
X129270000Y-106830000D02*
X129270000Y-104230000D01*
X131930000Y-106830000D02*
X129270000Y-106830000D01*
X131930000Y-108100000D02*
X131930000Y-109430000D01*
X131930000Y-109430000D02*
X130600000Y-109430000D01*
X142770000Y-79970000D02*
X145430000Y-79970000D01*
X142770000Y-77370000D02*
X142770000Y-79970000D01*
X145430000Y-77370000D02*
X145430000Y-79970000D01*
X142770000Y-77370000D02*
X145430000Y-77370000D01*
X142770000Y-76100000D02*
X142770000Y-74770000D01*
X142770000Y-74770000D02*
X144100000Y-74770000D01*
X156630000Y-120930000D02*
X156630000Y-118270000D01*
X143870000Y-120930000D02*
X156630000Y-120930000D01*
X143870000Y-118270000D02*
X156630000Y-118270000D01*
X143870000Y-120930000D02*
X143870000Y-118270000D01*
X142600000Y-120930000D02*
X141270000Y-120930000D01*
X141270000Y-120930000D02*
X141270000Y-119600000D01*
X167270000Y-70970000D02*
X169930000Y-70970000D01*
X167270000Y-68370000D02*
X167270000Y-70970000D01*
X169930000Y-68370000D02*
X169930000Y-70970000D01*
X167270000Y-68370000D02*
X169930000Y-68370000D01*
X167270000Y-67100000D02*
X167270000Y-65770000D01*
X167270000Y-65770000D02*
X168600000Y-65770000D01*
X167270000Y-81970000D02*
X169930000Y-81970000D01*
X167270000Y-79370000D02*
X167270000Y-81970000D01*
X169930000Y-79370000D02*
X169930000Y-81970000D01*
X167270000Y-79370000D02*
X169930000Y-79370000D01*
X167270000Y-78100000D02*
X167270000Y-76770000D01*
X167270000Y-76770000D02*
X168600000Y-76770000D01*
X112430000Y-98190000D02*
X109770000Y-98190000D01*
X112430000Y-103330000D02*
X112430000Y-98190000D01*
X109770000Y-103330000D02*
X109770000Y-98190000D01*
X112430000Y-103330000D02*
X109770000Y-103330000D01*
X112430000Y-104600000D02*
X112430000Y-105930000D01*
X112430000Y-105930000D02*
X111100000Y-105930000D01*
X167270000Y-107710000D02*
X169930000Y-107710000D01*
X167270000Y-89870000D02*
X167270000Y-107710000D01*
X169930000Y-89870000D02*
X169930000Y-107710000D01*
X167270000Y-89870000D02*
X169930000Y-89870000D01*
X167270000Y-88600000D02*
X167270000Y-87270000D01*
X167270000Y-87270000D02*
X168600000Y-87270000D01*
X137200000Y-111980000D02*
X136000000Y-111980000D01*
X136000000Y-110220000D02*
X137200000Y-110220000D01*
X157500000Y-110220000D02*
X158700000Y-110220000D01*
X158700000Y-111980000D02*
X157500000Y-111980000D01*
D17*
X140100000Y-70600000D02*
X138600000Y-70600000D01*
X138600000Y-70600000D02*
X138600000Y-71100000D01*
X129100000Y-70600000D02*
X130600000Y-70600000D01*
X130600000Y-70600000D02*
X130600000Y-71100000D01*
X140100000Y-68600000D02*
X140100000Y-70600000D01*
X129100000Y-68600000D02*
X129100000Y-70600000D01*
D14*
X150700000Y-69710000D02*
X152500000Y-69710000D01*
X152500000Y-66490000D02*
X150050000Y-66490000D01*
X135770000Y-99790000D02*
G75*
G02X135770000Y-101790000I0J-1000000D01*
G01*
X135770000Y-101790000D02*
X135770000Y-103040000D01*
X135770000Y-103040000D02*
X161290000Y-103040000D01*
X161290000Y-103040000D02*
X161290000Y-98540000D01*
X161290000Y-98540000D02*
X135770000Y-98540000D01*
X135770000Y-98540000D02*
X135770000Y-99790000D01*
D18*
X121675000Y-110675000D02*
X121675000Y-110625000D01*
X117525000Y-110675000D02*
X117525000Y-110530000D01*
X117525000Y-105525000D02*
X117525000Y-105670000D01*
X121675000Y-105525000D02*
X121675000Y-105670000D01*
X121675000Y-110675000D02*
X117525000Y-110675000D01*
X121675000Y-105525000D02*
X117525000Y-105525000D01*
X121675000Y-110625000D02*
X123075000Y-110625000D01*
D19*
G36*
X153892560Y-80560220D02*
X153890020Y-80880260D01*
X153890020Y-81200300D01*
X153333760Y-81202840D01*
X152777500Y-81205380D01*
X152777500Y-81352700D01*
X152777500Y-81502560D01*
X153331220Y-81502560D01*
X153884940Y-81502560D01*
X153884940Y-81822600D01*
X153884940Y-82145180D01*
X153773180Y-82150260D01*
X153742700Y-82152800D01*
X153694440Y-82152800D01*
X153633480Y-82152800D01*
X153559820Y-82155340D01*
X153481080Y-82155340D01*
X153394720Y-82155340D01*
X153303280Y-82155340D01*
X153234700Y-82155340D01*
X152805440Y-82155340D01*
X152802900Y-82622700D01*
X152800360Y-83087520D01*
X152437140Y-83087520D01*
X152358400Y-83090060D01*
X152282200Y-83090060D01*
X152216160Y-83087520D01*
X152160280Y-83087520D01*
X152114560Y-83087520D01*
X152084080Y-83087520D01*
X152068840Y-83084980D01*
X152066300Y-83084980D01*
X152066300Y-83074820D01*
X152066300Y-83049420D01*
X152063760Y-83006240D01*
X152063760Y-82947820D01*
X152063760Y-82876700D01*
X152063760Y-82790340D01*
X152063760Y-82693820D01*
X152061220Y-82587140D01*
X152061220Y-82470300D01*
X152061220Y-82343300D01*
X152061220Y-82208680D01*
X152061220Y-82068980D01*
X152061220Y-81921660D01*
X152061220Y-81820060D01*
X152061220Y-80560220D01*
X152978160Y-80560220D01*
X153892560Y-80560220D01*
X153892560Y-80560220D01*
X153892560Y-80560220D01*
G37*
X153892560Y-80560220D02*
X153890020Y-80880260D01*
X153890020Y-81200300D01*
X153333760Y-81202840D01*
X152777500Y-81205380D01*
X152777500Y-81352700D01*
X152777500Y-81502560D01*
X153331220Y-81502560D01*
X153884940Y-81502560D01*
X153884940Y-81822600D01*
X153884940Y-82145180D01*
X153773180Y-82150260D01*
X153742700Y-82152800D01*
X153694440Y-82152800D01*
X153633480Y-82152800D01*
X153559820Y-82155340D01*
X153481080Y-82155340D01*
X153394720Y-82155340D01*
X153303280Y-82155340D01*
X153234700Y-82155340D01*
X152805440Y-82155340D01*
X152802900Y-82622700D01*
X152800360Y-83087520D01*
X152437140Y-83087520D01*
X152358400Y-83090060D01*
X152282200Y-83090060D01*
X152216160Y-83087520D01*
X152160280Y-83087520D01*
X152114560Y-83087520D01*
X152084080Y-83087520D01*
X152068840Y-83084980D01*
X152066300Y-83084980D01*
X152066300Y-83074820D01*
X152066300Y-83049420D01*
X152063760Y-83006240D01*
X152063760Y-82947820D01*
X152063760Y-82876700D01*
X152063760Y-82790340D01*
X152063760Y-82693820D01*
X152061220Y-82587140D01*
X152061220Y-82470300D01*
X152061220Y-82343300D01*
X152061220Y-82208680D01*
X152061220Y-82068980D01*
X152061220Y-81921660D01*
X152061220Y-81820060D01*
X152061220Y-80560220D01*
X152978160Y-80560220D01*
X153892560Y-80560220D01*
X153892560Y-80560220D01*
G36*
X157903220Y-81284120D02*
X157895600Y-81393340D01*
X157875280Y-81489860D01*
X157842260Y-81578760D01*
X157794000Y-81657500D01*
X157735580Y-81726080D01*
X157677160Y-81776880D01*
X157608580Y-81822600D01*
X157534920Y-81858160D01*
X157466340Y-81883560D01*
X157453640Y-81886100D01*
X157425700Y-81893720D01*
X157415540Y-81901340D01*
X157420620Y-81908960D01*
X157443480Y-81911500D01*
X157451100Y-81911500D01*
X157476500Y-81914040D01*
X157512060Y-81919120D01*
X157557780Y-81926740D01*
X157608580Y-81936900D01*
X157659380Y-81947060D01*
X157707640Y-81957220D01*
X157743200Y-81964840D01*
X157768600Y-81972460D01*
X157773680Y-81975000D01*
X157809240Y-82000400D01*
X157842260Y-82038500D01*
X157870200Y-82089300D01*
X157880360Y-82117240D01*
X157882900Y-82127400D01*
X157885440Y-82142640D01*
X157887980Y-82162960D01*
X157890520Y-82188360D01*
X157890520Y-82221380D01*
X157893060Y-82264560D01*
X157893060Y-82317900D01*
X157893060Y-82381400D01*
X157893060Y-82462680D01*
X157893060Y-82556660D01*
X157893060Y-82622700D01*
X157890520Y-83087520D01*
X157524760Y-83087520D01*
X157446020Y-83090060D01*
X157372360Y-83090060D01*
X157306320Y-83087520D01*
X157250440Y-83087520D01*
X157204720Y-83087520D01*
X157174240Y-83087520D01*
X157156460Y-83084980D01*
X157156460Y-83084980D01*
X157153920Y-83074820D01*
X157153920Y-83049420D01*
X157151380Y-83008780D01*
X157151380Y-82955440D01*
X157151380Y-82891940D01*
X157151380Y-82820820D01*
X157148840Y-82744620D01*
X157148840Y-82719220D01*
X157148840Y-82610000D01*
X157148840Y-82521100D01*
X157148840Y-82449980D01*
X157146300Y-82394100D01*
X157143760Y-82353460D01*
X157141220Y-82330600D01*
X157138680Y-82328060D01*
X157113280Y-82274720D01*
X157072640Y-82234080D01*
X157014220Y-82201060D01*
X156945640Y-82178200D01*
X156927860Y-82173120D01*
X156905000Y-82170580D01*
X156877060Y-82168040D01*
X156841500Y-82168040D01*
X156798320Y-82165500D01*
X156742440Y-82162960D01*
X156673860Y-82162960D01*
X156592580Y-82160420D01*
X156496060Y-82160420D01*
X156412240Y-82157880D01*
X155942340Y-82155340D01*
X155944880Y-81835300D01*
X155947420Y-81517800D01*
X156478280Y-81512720D01*
X156595120Y-81510180D01*
X156691640Y-81510180D01*
X156775460Y-81510180D01*
X156844040Y-81507640D01*
X156899920Y-81507640D01*
X156945640Y-81505100D01*
X156981200Y-81502560D01*
X157006600Y-81497480D01*
X157026920Y-81492400D01*
X157042160Y-81487320D01*
X157052320Y-81479700D01*
X157059940Y-81472080D01*
X157065020Y-81459380D01*
X157070100Y-81449220D01*
X157072640Y-81444140D01*
X157090420Y-81388260D01*
X157090420Y-81337460D01*
X157077720Y-81289200D01*
X157049780Y-81246020D01*
X157024380Y-81225700D01*
X156991360Y-81202840D01*
X156468120Y-81202840D01*
X155942340Y-81202840D01*
X155942340Y-80880260D01*
X155942340Y-80560220D01*
X156653540Y-80562760D01*
X157362200Y-80565300D01*
X157443480Y-80593240D01*
X157524760Y-80626260D01*
X157595880Y-80666900D01*
X157661920Y-80717700D01*
X157682240Y-80735480D01*
X157753360Y-80814220D01*
X157811780Y-80903120D01*
X157857500Y-81002180D01*
X157887980Y-81111400D01*
X157900680Y-81228240D01*
X157903220Y-81284120D01*
X157903220Y-81284120D01*
X157903220Y-81284120D01*
G37*
X157903220Y-81284120D02*
X157895600Y-81393340D01*
X157875280Y-81489860D01*
X157842260Y-81578760D01*
X157794000Y-81657500D01*
X157735580Y-81726080D01*
X157677160Y-81776880D01*
X157608580Y-81822600D01*
X157534920Y-81858160D01*
X157466340Y-81883560D01*
X157453640Y-81886100D01*
X157425700Y-81893720D01*
X157415540Y-81901340D01*
X157420620Y-81908960D01*
X157443480Y-81911500D01*
X157451100Y-81911500D01*
X157476500Y-81914040D01*
X157512060Y-81919120D01*
X157557780Y-81926740D01*
X157608580Y-81936900D01*
X157659380Y-81947060D01*
X157707640Y-81957220D01*
X157743200Y-81964840D01*
X157768600Y-81972460D01*
X157773680Y-81975000D01*
X157809240Y-82000400D01*
X157842260Y-82038500D01*
X157870200Y-82089300D01*
X157880360Y-82117240D01*
X157882900Y-82127400D01*
X157885440Y-82142640D01*
X157887980Y-82162960D01*
X157890520Y-82188360D01*
X157890520Y-82221380D01*
X157893060Y-82264560D01*
X157893060Y-82317900D01*
X157893060Y-82381400D01*
X157893060Y-82462680D01*
X157893060Y-82556660D01*
X157893060Y-82622700D01*
X157890520Y-83087520D01*
X157524760Y-83087520D01*
X157446020Y-83090060D01*
X157372360Y-83090060D01*
X157306320Y-83087520D01*
X157250440Y-83087520D01*
X157204720Y-83087520D01*
X157174240Y-83087520D01*
X157156460Y-83084980D01*
X157156460Y-83084980D01*
X157153920Y-83074820D01*
X157153920Y-83049420D01*
X157151380Y-83008780D01*
X157151380Y-82955440D01*
X157151380Y-82891940D01*
X157151380Y-82820820D01*
X157148840Y-82744620D01*
X157148840Y-82719220D01*
X157148840Y-82610000D01*
X157148840Y-82521100D01*
X157148840Y-82449980D01*
X157146300Y-82394100D01*
X157143760Y-82353460D01*
X157141220Y-82330600D01*
X157138680Y-82328060D01*
X157113280Y-82274720D01*
X157072640Y-82234080D01*
X157014220Y-82201060D01*
X156945640Y-82178200D01*
X156927860Y-82173120D01*
X156905000Y-82170580D01*
X156877060Y-82168040D01*
X156841500Y-82168040D01*
X156798320Y-82165500D01*
X156742440Y-82162960D01*
X156673860Y-82162960D01*
X156592580Y-82160420D01*
X156496060Y-82160420D01*
X156412240Y-82157880D01*
X155942340Y-82155340D01*
X155944880Y-81835300D01*
X155947420Y-81517800D01*
X156478280Y-81512720D01*
X156595120Y-81510180D01*
X156691640Y-81510180D01*
X156775460Y-81510180D01*
X156844040Y-81507640D01*
X156899920Y-81507640D01*
X156945640Y-81505100D01*
X156981200Y-81502560D01*
X157006600Y-81497480D01*
X157026920Y-81492400D01*
X157042160Y-81487320D01*
X157052320Y-81479700D01*
X157059940Y-81472080D01*
X157065020Y-81459380D01*
X157070100Y-81449220D01*
X157072640Y-81444140D01*
X157090420Y-81388260D01*
X157090420Y-81337460D01*
X157077720Y-81289200D01*
X157049780Y-81246020D01*
X157024380Y-81225700D01*
X156991360Y-81202840D01*
X156468120Y-81202840D01*
X155942340Y-81202840D01*
X155942340Y-80880260D01*
X155942340Y-80560220D01*
X156653540Y-80562760D01*
X157362200Y-80565300D01*
X157443480Y-80593240D01*
X157524760Y-80626260D01*
X157595880Y-80666900D01*
X157661920Y-80717700D01*
X157682240Y-80735480D01*
X157753360Y-80814220D01*
X157811780Y-80903120D01*
X157857500Y-81002180D01*
X157887980Y-81111400D01*
X157900680Y-81228240D01*
X157903220Y-81284120D01*
X157903220Y-81284120D01*
G36*
X155772160Y-83082440D02*
X154911100Y-83082440D01*
X154786640Y-83082440D01*
X154669800Y-83082440D01*
X154558040Y-83079900D01*
X154453900Y-83079900D01*
X154357380Y-83079900D01*
X154273560Y-83079900D01*
X154199900Y-83079900D01*
X154138940Y-83077360D01*
X154093220Y-83077360D01*
X154060200Y-83077360D01*
X154044960Y-83074820D01*
X154044960Y-83074820D01*
X154042420Y-83064660D01*
X154042420Y-83039260D01*
X154039880Y-82998620D01*
X154039880Y-82947820D01*
X154039880Y-82884320D01*
X154037340Y-82815740D01*
X154037340Y-82754780D01*
X154037340Y-82437280D01*
X154903480Y-82437280D01*
X155772160Y-82437280D01*
X155772160Y-82759860D01*
X155772160Y-83082440D01*
X155772160Y-83082440D01*
X155772160Y-83082440D01*
G37*
X155772160Y-83082440D02*
X154911100Y-83082440D01*
X154786640Y-83082440D01*
X154669800Y-83082440D01*
X154558040Y-83079900D01*
X154453900Y-83079900D01*
X154357380Y-83079900D01*
X154273560Y-83079900D01*
X154199900Y-83079900D01*
X154138940Y-83077360D01*
X154093220Y-83077360D01*
X154060200Y-83077360D01*
X154044960Y-83074820D01*
X154044960Y-83074820D01*
X154042420Y-83064660D01*
X154042420Y-83039260D01*
X154039880Y-82998620D01*
X154039880Y-82947820D01*
X154039880Y-82884320D01*
X154037340Y-82815740D01*
X154037340Y-82754780D01*
X154037340Y-82437280D01*
X154903480Y-82437280D01*
X155772160Y-82437280D01*
X155772160Y-82759860D01*
X155772160Y-83082440D01*
X155772160Y-83082440D01*
G36*
X155772160Y-82155340D02*
X154903480Y-82155340D01*
X154037340Y-82155340D01*
X154039880Y-81837840D01*
X154042420Y-81517800D01*
X154906020Y-81515260D01*
X155772160Y-81512720D01*
X155772160Y-81835300D01*
X155772160Y-82155340D01*
X155772160Y-82155340D01*
X155772160Y-82155340D01*
G37*
X155772160Y-82155340D02*
X154903480Y-82155340D01*
X154037340Y-82155340D01*
X154039880Y-81837840D01*
X154042420Y-81517800D01*
X154906020Y-81515260D01*
X155772160Y-81512720D01*
X155772160Y-81835300D01*
X155772160Y-82155340D01*
X155772160Y-82155340D01*
G36*
X155789940Y-81202840D02*
X154913640Y-81202840D01*
X154037340Y-81202840D01*
X154037340Y-80882800D01*
X154037340Y-80560220D01*
X154913640Y-80560220D01*
X155789940Y-80560220D01*
X155789940Y-80882800D01*
X155789940Y-81202840D01*
X155789940Y-81202840D01*
X155789940Y-81202840D01*
G37*
X155789940Y-81202840D02*
X154913640Y-81202840D01*
X154037340Y-81202840D01*
X154037340Y-80882800D01*
X154037340Y-80560220D01*
X154913640Y-80560220D01*
X155789940Y-80560220D01*
X155789940Y-80882800D01*
X155789940Y-81202840D01*
X155789940Y-81202840D01*
G36*
X157910840Y-77039780D02*
X157910840Y-77049940D01*
X157903220Y-77075340D01*
X157893060Y-77110900D01*
X157882900Y-77154080D01*
X157875280Y-77179480D01*
X157801620Y-77428400D01*
X157712720Y-77667160D01*
X157616200Y-77895760D01*
X157506980Y-78114200D01*
X157390140Y-78322480D01*
X157260600Y-78515520D01*
X157123440Y-78698400D01*
X156978660Y-78866040D01*
X156826260Y-79020980D01*
X156663700Y-79163220D01*
X156615440Y-79198780D01*
X156615440Y-77052480D01*
X156612900Y-77049940D01*
X156602740Y-77044860D01*
X156584960Y-77042320D01*
X156557020Y-77042320D01*
X156516380Y-77039780D01*
X156457960Y-77039780D01*
X156442720Y-77039780D01*
X156270000Y-77039780D01*
X156270000Y-77093120D01*
X156267460Y-77128680D01*
X156262380Y-77171860D01*
X156257300Y-77207420D01*
X156257300Y-77032160D01*
X156254760Y-76978820D01*
X156234440Y-76831500D01*
X156198880Y-76689260D01*
X156145540Y-76552100D01*
X156079500Y-76422560D01*
X155995680Y-76298100D01*
X155901700Y-76186340D01*
X155792480Y-76084740D01*
X155673100Y-75995840D01*
X155614680Y-75960280D01*
X155523240Y-75912020D01*
X155416560Y-75871380D01*
X155304800Y-75835820D01*
X155193040Y-75810420D01*
X155099060Y-75797720D01*
X155063500Y-75795180D01*
X155033020Y-75792640D01*
X155015240Y-75792640D01*
X155012700Y-75792640D01*
X155012700Y-75800260D01*
X155012700Y-75825660D01*
X155010160Y-75866300D01*
X155010160Y-75922180D01*
X155010160Y-75988220D01*
X155007620Y-76066960D01*
X155007620Y-76153320D01*
X155005080Y-76247300D01*
X155005080Y-76348900D01*
X155005080Y-76412400D01*
X154997460Y-77032160D01*
X155627380Y-77032160D01*
X156257300Y-77032160D01*
X156257300Y-77207420D01*
X156257300Y-77217580D01*
X156252220Y-77237900D01*
X156214120Y-77385220D01*
X156160780Y-77527460D01*
X156092200Y-77659540D01*
X156008380Y-77781460D01*
X155911860Y-77895760D01*
X155802640Y-77994820D01*
X155680720Y-78083720D01*
X155589280Y-78137060D01*
X155467360Y-78192940D01*
X155342900Y-78236120D01*
X155213360Y-78266600D01*
X155096520Y-78284380D01*
X155000000Y-78294540D01*
X155000000Y-78759360D01*
X155000000Y-79226720D01*
X155035560Y-79226720D01*
X155058420Y-79224180D01*
X155096520Y-79221640D01*
X155137160Y-79219100D01*
X155144780Y-79216560D01*
X155287020Y-79191160D01*
X155424180Y-79145440D01*
X155558800Y-79084480D01*
X155685800Y-79008280D01*
X155807720Y-78914300D01*
X155924560Y-78802540D01*
X156028700Y-78683160D01*
X156137920Y-78533300D01*
X156236980Y-78368200D01*
X156325880Y-78190400D01*
X156404620Y-77999900D01*
X156473200Y-77799240D01*
X156529080Y-77588420D01*
X156572260Y-77367440D01*
X156597660Y-77207420D01*
X156602740Y-77156620D01*
X156607820Y-77113440D01*
X156612900Y-77080420D01*
X156615440Y-77057560D01*
X156615440Y-77052480D01*
X156615440Y-79198780D01*
X156496060Y-79287680D01*
X156320800Y-79396900D01*
X156140460Y-79488340D01*
X156049020Y-79528980D01*
X155878840Y-79592480D01*
X155711200Y-79640740D01*
X155541020Y-79676300D01*
X155360680Y-79699160D01*
X155281940Y-79706780D01*
X155218440Y-79711860D01*
X155157480Y-79714400D01*
X155101600Y-79716940D01*
X155055880Y-79716940D01*
X155020320Y-79714400D01*
X155000000Y-79711860D01*
X154997460Y-79709320D01*
X154994920Y-79699160D01*
X154994920Y-79673760D01*
X154992380Y-79635660D01*
X154992380Y-79584860D01*
X154989840Y-79526440D01*
X154989840Y-79470560D01*
X154989840Y-79234340D01*
X154989840Y-75785020D01*
X154989840Y-75327820D01*
X154989840Y-75238920D01*
X154989840Y-75155100D01*
X154989840Y-75078900D01*
X154989840Y-75012860D01*
X154987300Y-74956980D01*
X154987300Y-74913800D01*
X154984760Y-74885860D01*
X154982220Y-74873160D01*
X154982220Y-74873160D01*
X154974600Y-74878240D01*
X154951740Y-74893480D01*
X154916180Y-74918880D01*
X154870460Y-74949360D01*
X154812040Y-74990000D01*
X154743460Y-75035720D01*
X154667260Y-75089060D01*
X154583440Y-75147480D01*
X154492000Y-75210980D01*
X154392940Y-75277020D01*
X154291340Y-75348140D01*
X154220220Y-75396400D01*
X153465840Y-75919640D01*
X153465840Y-76475900D01*
X153465840Y-77032160D01*
X153592840Y-77032160D01*
X153717300Y-77032160D01*
X153724920Y-76955960D01*
X153745240Y-76816260D01*
X153783340Y-76676560D01*
X153836680Y-76541940D01*
X153905260Y-76412400D01*
X153989080Y-76290480D01*
X154083060Y-76178720D01*
X154088140Y-76173640D01*
X154199900Y-76072040D01*
X154321820Y-75985680D01*
X154453900Y-75914560D01*
X154593600Y-75858680D01*
X154740920Y-75818040D01*
X154888240Y-75795180D01*
X154989840Y-75785020D01*
X154989840Y-79234340D01*
X154982220Y-79234340D01*
X154982220Y-77667160D01*
X154982220Y-77049940D01*
X154349760Y-77049940D01*
X153717300Y-77049940D01*
X153724920Y-77118520D01*
X153747780Y-77265840D01*
X153785880Y-77408080D01*
X153839220Y-77545240D01*
X153910340Y-77672240D01*
X153994160Y-77794160D01*
X154090680Y-77903380D01*
X154199900Y-77999900D01*
X154321820Y-78086260D01*
X154377700Y-78119280D01*
X154492000Y-78172620D01*
X154613920Y-78215800D01*
X154743460Y-78248820D01*
X154870460Y-78271680D01*
X154893320Y-78271680D01*
X154931420Y-78276760D01*
X154959360Y-78279300D01*
X154977140Y-78281840D01*
X154979680Y-78281840D01*
X154979680Y-78274220D01*
X154979680Y-78248820D01*
X154979680Y-78208180D01*
X154979680Y-78152300D01*
X154982220Y-78086260D01*
X154982220Y-78010060D01*
X154982220Y-77923700D01*
X154982220Y-77827180D01*
X154982220Y-77728120D01*
X154982220Y-77667160D01*
X154982220Y-79234340D01*
X154215140Y-79234340D01*
X153440440Y-79234340D01*
X153440440Y-78137060D01*
X153440440Y-77039780D01*
X152754640Y-77039780D01*
X152068840Y-77039780D01*
X152073920Y-77011840D01*
X152084080Y-76973740D01*
X152096780Y-76922940D01*
X152114560Y-76864520D01*
X152134880Y-76798480D01*
X152155200Y-76727360D01*
X152175520Y-76658780D01*
X152198380Y-76595280D01*
X152216160Y-76539400D01*
X152228860Y-76501300D01*
X152327920Y-76260000D01*
X152434600Y-76028860D01*
X152553980Y-75812960D01*
X152680980Y-75609760D01*
X152818140Y-75419260D01*
X152965460Y-75244000D01*
X153117860Y-75083980D01*
X153282960Y-74939200D01*
X153453140Y-74807120D01*
X153630940Y-74692820D01*
X153818900Y-74593760D01*
X154011940Y-74512480D01*
X154072900Y-74489620D01*
X154215140Y-74446440D01*
X154357380Y-74410880D01*
X154502160Y-74385480D01*
X154654560Y-74367700D01*
X154819660Y-74357540D01*
X154829820Y-74357540D01*
X155000000Y-74352460D01*
X155000000Y-74593760D01*
X155000000Y-74832520D01*
X155078740Y-74840140D01*
X155228600Y-74860460D01*
X155373380Y-74898560D01*
X155510540Y-74954440D01*
X155642620Y-75025560D01*
X155767080Y-75114460D01*
X155886460Y-75221140D01*
X156000760Y-75345600D01*
X156107440Y-75485300D01*
X156191260Y-75612300D01*
X156282700Y-75779940D01*
X156363980Y-75960280D01*
X156437640Y-76150780D01*
X156501140Y-76351440D01*
X156551940Y-76557180D01*
X156590040Y-76765460D01*
X156607820Y-76917860D01*
X156620520Y-77027080D01*
X157265680Y-77029620D01*
X157372360Y-77029620D01*
X157473960Y-77029620D01*
X157567940Y-77029620D01*
X157654300Y-77032160D01*
X157727960Y-77032160D01*
X157794000Y-77034700D01*
X157844800Y-77034700D01*
X157882900Y-77037240D01*
X157905760Y-77037240D01*
X157910840Y-77039780D01*
X157910840Y-77039780D01*
X157910840Y-77039780D01*
G37*
X157910840Y-77039780D02*
X157910840Y-77049940D01*
X157903220Y-77075340D01*
X157893060Y-77110900D01*
X157882900Y-77154080D01*
X157875280Y-77179480D01*
X157801620Y-77428400D01*
X157712720Y-77667160D01*
X157616200Y-77895760D01*
X157506980Y-78114200D01*
X157390140Y-78322480D01*
X157260600Y-78515520D01*
X157123440Y-78698400D01*
X156978660Y-78866040D01*
X156826260Y-79020980D01*
X156663700Y-79163220D01*
X156615440Y-79198780D01*
X156615440Y-77052480D01*
X156612900Y-77049940D01*
X156602740Y-77044860D01*
X156584960Y-77042320D01*
X156557020Y-77042320D01*
X156516380Y-77039780D01*
X156457960Y-77039780D01*
X156442720Y-77039780D01*
X156270000Y-77039780D01*
X156270000Y-77093120D01*
X156267460Y-77128680D01*
X156262380Y-77171860D01*
X156257300Y-77207420D01*
X156257300Y-77032160D01*
X156254760Y-76978820D01*
X156234440Y-76831500D01*
X156198880Y-76689260D01*
X156145540Y-76552100D01*
X156079500Y-76422560D01*
X155995680Y-76298100D01*
X155901700Y-76186340D01*
X155792480Y-76084740D01*
X155673100Y-75995840D01*
X155614680Y-75960280D01*
X155523240Y-75912020D01*
X155416560Y-75871380D01*
X155304800Y-75835820D01*
X155193040Y-75810420D01*
X155099060Y-75797720D01*
X155063500Y-75795180D01*
X155033020Y-75792640D01*
X155015240Y-75792640D01*
X155012700Y-75792640D01*
X155012700Y-75800260D01*
X155012700Y-75825660D01*
X155010160Y-75866300D01*
X155010160Y-75922180D01*
X155010160Y-75988220D01*
X155007620Y-76066960D01*
X155007620Y-76153320D01*
X155005080Y-76247300D01*
X155005080Y-76348900D01*
X155005080Y-76412400D01*
X154997460Y-77032160D01*
X155627380Y-77032160D01*
X156257300Y-77032160D01*
X156257300Y-77207420D01*
X156257300Y-77217580D01*
X156252220Y-77237900D01*
X156214120Y-77385220D01*
X156160780Y-77527460D01*
X156092200Y-77659540D01*
X156008380Y-77781460D01*
X155911860Y-77895760D01*
X155802640Y-77994820D01*
X155680720Y-78083720D01*
X155589280Y-78137060D01*
X155467360Y-78192940D01*
X155342900Y-78236120D01*
X155213360Y-78266600D01*
X155096520Y-78284380D01*
X155000000Y-78294540D01*
X155000000Y-78759360D01*
X155000000Y-79226720D01*
X155035560Y-79226720D01*
X155058420Y-79224180D01*
X155096520Y-79221640D01*
X155137160Y-79219100D01*
X155144780Y-79216560D01*
X155287020Y-79191160D01*
X155424180Y-79145440D01*
X155558800Y-79084480D01*
X155685800Y-79008280D01*
X155807720Y-78914300D01*
X155924560Y-78802540D01*
X156028700Y-78683160D01*
X156137920Y-78533300D01*
X156236980Y-78368200D01*
X156325880Y-78190400D01*
X156404620Y-77999900D01*
X156473200Y-77799240D01*
X156529080Y-77588420D01*
X156572260Y-77367440D01*
X156597660Y-77207420D01*
X156602740Y-77156620D01*
X156607820Y-77113440D01*
X156612900Y-77080420D01*
X156615440Y-77057560D01*
X156615440Y-77052480D01*
X156615440Y-79198780D01*
X156496060Y-79287680D01*
X156320800Y-79396900D01*
X156140460Y-79488340D01*
X156049020Y-79528980D01*
X155878840Y-79592480D01*
X155711200Y-79640740D01*
X155541020Y-79676300D01*
X155360680Y-79699160D01*
X155281940Y-79706780D01*
X155218440Y-79711860D01*
X155157480Y-79714400D01*
X155101600Y-79716940D01*
X155055880Y-79716940D01*
X155020320Y-79714400D01*
X155000000Y-79711860D01*
X154997460Y-79709320D01*
X154994920Y-79699160D01*
X154994920Y-79673760D01*
X154992380Y-79635660D01*
X154992380Y-79584860D01*
X154989840Y-79526440D01*
X154989840Y-79470560D01*
X154989840Y-79234340D01*
X154989840Y-75785020D01*
X154989840Y-75327820D01*
X154989840Y-75238920D01*
X154989840Y-75155100D01*
X154989840Y-75078900D01*
X154989840Y-75012860D01*
X154987300Y-74956980D01*
X154987300Y-74913800D01*
X154984760Y-74885860D01*
X154982220Y-74873160D01*
X154982220Y-74873160D01*
X154974600Y-74878240D01*
X154951740Y-74893480D01*
X154916180Y-74918880D01*
X154870460Y-74949360D01*
X154812040Y-74990000D01*
X154743460Y-75035720D01*
X154667260Y-75089060D01*
X154583440Y-75147480D01*
X154492000Y-75210980D01*
X154392940Y-75277020D01*
X154291340Y-75348140D01*
X154220220Y-75396400D01*
X153465840Y-75919640D01*
X153465840Y-76475900D01*
X153465840Y-77032160D01*
X153592840Y-77032160D01*
X153717300Y-77032160D01*
X153724920Y-76955960D01*
X153745240Y-76816260D01*
X153783340Y-76676560D01*
X153836680Y-76541940D01*
X153905260Y-76412400D01*
X153989080Y-76290480D01*
X154083060Y-76178720D01*
X154088140Y-76173640D01*
X154199900Y-76072040D01*
X154321820Y-75985680D01*
X154453900Y-75914560D01*
X154593600Y-75858680D01*
X154740920Y-75818040D01*
X154888240Y-75795180D01*
X154989840Y-75785020D01*
X154989840Y-79234340D01*
X154982220Y-79234340D01*
X154982220Y-77667160D01*
X154982220Y-77049940D01*
X154349760Y-77049940D01*
X153717300Y-77049940D01*
X153724920Y-77118520D01*
X153747780Y-77265840D01*
X153785880Y-77408080D01*
X153839220Y-77545240D01*
X153910340Y-77672240D01*
X153994160Y-77794160D01*
X154090680Y-77903380D01*
X154199900Y-77999900D01*
X154321820Y-78086260D01*
X154377700Y-78119280D01*
X154492000Y-78172620D01*
X154613920Y-78215800D01*
X154743460Y-78248820D01*
X154870460Y-78271680D01*
X154893320Y-78271680D01*
X154931420Y-78276760D01*
X154959360Y-78279300D01*
X154977140Y-78281840D01*
X154979680Y-78281840D01*
X154979680Y-78274220D01*
X154979680Y-78248820D01*
X154979680Y-78208180D01*
X154979680Y-78152300D01*
X154982220Y-78086260D01*
X154982220Y-78010060D01*
X154982220Y-77923700D01*
X154982220Y-77827180D01*
X154982220Y-77728120D01*
X154982220Y-77667160D01*
X154982220Y-79234340D01*
X154215140Y-79234340D01*
X153440440Y-79234340D01*
X153440440Y-78137060D01*
X153440440Y-77039780D01*
X152754640Y-77039780D01*
X152068840Y-77039780D01*
X152073920Y-77011840D01*
X152084080Y-76973740D01*
X152096780Y-76922940D01*
X152114560Y-76864520D01*
X152134880Y-76798480D01*
X152155200Y-76727360D01*
X152175520Y-76658780D01*
X152198380Y-76595280D01*
X152216160Y-76539400D01*
X152228860Y-76501300D01*
X152327920Y-76260000D01*
X152434600Y-76028860D01*
X152553980Y-75812960D01*
X152680980Y-75609760D01*
X152818140Y-75419260D01*
X152965460Y-75244000D01*
X153117860Y-75083980D01*
X153282960Y-74939200D01*
X153453140Y-74807120D01*
X153630940Y-74692820D01*
X153818900Y-74593760D01*
X154011940Y-74512480D01*
X154072900Y-74489620D01*
X154215140Y-74446440D01*
X154357380Y-74410880D01*
X154502160Y-74385480D01*
X154654560Y-74367700D01*
X154819660Y-74357540D01*
X154829820Y-74357540D01*
X155000000Y-74352460D01*
X155000000Y-74593760D01*
X155000000Y-74832520D01*
X155078740Y-74840140D01*
X155228600Y-74860460D01*
X155373380Y-74898560D01*
X155510540Y-74954440D01*
X155642620Y-75025560D01*
X155767080Y-75114460D01*
X155886460Y-75221140D01*
X156000760Y-75345600D01*
X156107440Y-75485300D01*
X156191260Y-75612300D01*
X156282700Y-75779940D01*
X156363980Y-75960280D01*
X156437640Y-76150780D01*
X156501140Y-76351440D01*
X156551940Y-76557180D01*
X156590040Y-76765460D01*
X156607820Y-76917860D01*
X156620520Y-77027080D01*
X157265680Y-77029620D01*
X157372360Y-77029620D01*
X157473960Y-77029620D01*
X157567940Y-77029620D01*
X157654300Y-77032160D01*
X157727960Y-77032160D01*
X157794000Y-77034700D01*
X157844800Y-77034700D01*
X157882900Y-77037240D01*
X157905760Y-77037240D01*
X157910840Y-77039780D01*
X157910840Y-77039780D01*
D14*
X122070000Y-79130000D02*
X122070000Y-76470000D01*
X119470000Y-79130000D02*
X122070000Y-79130000D01*
X119470000Y-76470000D02*
X122070000Y-76470000D01*
X119470000Y-79130000D02*
X119470000Y-76470000D01*
X118200000Y-79130000D02*
X116870000Y-79130000D01*
X116870000Y-79130000D02*
X116870000Y-77800000D01*
X165550000Y-70130000D02*
X166050000Y-70130000D01*
X166050000Y-69070000D02*
X165550000Y-69070000D01*
X148450000Y-78070000D02*
X147950000Y-78070000D01*
X147950000Y-79130000D02*
X148450000Y-79130000D01*
D18*
X118757143Y-70966666D02*
X118804762Y-71014285D01*
X118852381Y-71157142D01*
X118852381Y-71252380D01*
X118804762Y-71395238D01*
X118709524Y-71490476D01*
X118614286Y-71538095D01*
X118423810Y-71585714D01*
X118280952Y-71585714D01*
X118090476Y-71538095D01*
X117995238Y-71490476D01*
X117900000Y-71395238D01*
X117852381Y-71252380D01*
X117852381Y-71157142D01*
X117900000Y-71014285D01*
X117947619Y-70966666D01*
X118852381Y-70014285D02*
X118852381Y-70585714D01*
X118852381Y-70300000D02*
X117852381Y-70300000D01*
X117995238Y-70395238D01*
X118090476Y-70490476D01*
X118138095Y-70585714D01*
X125581429Y-75260952D02*
X125581429Y-74499047D01*
X125962381Y-74879999D02*
X125200476Y-74879999D01*
X129997143Y-84766666D02*
X130044762Y-84814285D01*
X130092381Y-84957142D01*
X130092381Y-85052380D01*
X130044762Y-85195238D01*
X129949524Y-85290476D01*
X129854286Y-85338095D01*
X129663810Y-85385714D01*
X129520952Y-85385714D01*
X129330476Y-85338095D01*
X129235238Y-85290476D01*
X129140000Y-85195238D01*
X129092381Y-85052380D01*
X129092381Y-84957142D01*
X129140000Y-84814285D01*
X129187619Y-84766666D01*
X129187619Y-84385714D02*
X129140000Y-84338095D01*
X129092381Y-84242857D01*
X129092381Y-84004761D01*
X129140000Y-83909523D01*
X129187619Y-83861904D01*
X129282857Y-83814285D01*
X129378095Y-83814285D01*
X129520952Y-83861904D01*
X130092381Y-84433333D01*
X130092381Y-83814285D01*
X131201429Y-79200952D02*
X131201429Y-78439047D01*
X131582381Y-78819999D02*
X130820476Y-78819999D01*
X138727143Y-107266666D02*
X138774762Y-107314285D01*
X138822381Y-107457142D01*
X138822381Y-107552380D01*
X138774762Y-107695238D01*
X138679524Y-107790476D01*
X138584286Y-107838095D01*
X138393810Y-107885714D01*
X138250952Y-107885714D01*
X138060476Y-107838095D01*
X137965238Y-107790476D01*
X137870000Y-107695238D01*
X137822381Y-107552380D01*
X137822381Y-107457142D01*
X137870000Y-107314285D01*
X137917619Y-107266666D01*
X137822381Y-106933333D02*
X137822381Y-106314285D01*
X138203333Y-106647619D01*
X138203333Y-106504761D01*
X138250952Y-106409523D01*
X138298571Y-106361904D01*
X138393810Y-106314285D01*
X138631905Y-106314285D01*
X138727143Y-106361904D01*
X138774762Y-106409523D01*
X138822381Y-106504761D01*
X138822381Y-106790476D01*
X138774762Y-106885714D01*
X138727143Y-106933333D01*
X156433334Y-71557143D02*
X156385715Y-71604762D01*
X156242858Y-71652381D01*
X156147620Y-71652381D01*
X156004762Y-71604762D01*
X155909524Y-71509524D01*
X155861905Y-71414286D01*
X155814286Y-71223810D01*
X155814286Y-71080952D01*
X155861905Y-70890476D01*
X155909524Y-70795238D01*
X156004762Y-70700000D01*
X156147620Y-70652381D01*
X156242858Y-70652381D01*
X156385715Y-70700000D01*
X156433334Y-70747619D01*
X157290477Y-70985714D02*
X157290477Y-71652381D01*
X157052381Y-70604762D02*
X156814286Y-71319048D01*
X157433334Y-71319048D01*
X153707143Y-65266666D02*
X153754762Y-65314285D01*
X153802381Y-65457142D01*
X153802381Y-65552380D01*
X153754762Y-65695238D01*
X153659524Y-65790476D01*
X153564286Y-65838095D01*
X153373810Y-65885714D01*
X153230952Y-65885714D01*
X153040476Y-65838095D01*
X152945238Y-65790476D01*
X152850000Y-65695238D01*
X152802381Y-65552380D01*
X152802381Y-65457142D01*
X152850000Y-65314285D01*
X152897619Y-65266666D01*
X152802381Y-64361904D02*
X152802381Y-64838095D01*
X153278571Y-64885714D01*
X153230952Y-64838095D01*
X153183333Y-64742857D01*
X153183333Y-64504761D01*
X153230952Y-64409523D01*
X153278571Y-64361904D01*
X153373810Y-64314285D01*
X153611905Y-64314285D01*
X153707143Y-64361904D01*
X153754762Y-64409523D01*
X153802381Y-64504761D01*
X153802381Y-64742857D01*
X153754762Y-64838095D01*
X153707143Y-64885714D01*
X142207143Y-69766666D02*
X142254762Y-69814285D01*
X142302381Y-69957142D01*
X142302381Y-70052380D01*
X142254762Y-70195238D01*
X142159524Y-70290476D01*
X142064286Y-70338095D01*
X141873810Y-70385714D01*
X141730952Y-70385714D01*
X141540476Y-70338095D01*
X141445238Y-70290476D01*
X141350000Y-70195238D01*
X141302381Y-70052380D01*
X141302381Y-69957142D01*
X141350000Y-69814285D01*
X141397619Y-69766666D01*
X141302381Y-68909523D02*
X141302381Y-69100000D01*
X141350000Y-69195238D01*
X141397619Y-69242857D01*
X141540476Y-69338095D01*
X141730952Y-69385714D01*
X142111905Y-69385714D01*
X142207143Y-69338095D01*
X142254762Y-69290476D01*
X142302381Y-69195238D01*
X142302381Y-69004761D01*
X142254762Y-68909523D01*
X142207143Y-68861904D01*
X142111905Y-68814285D01*
X141873810Y-68814285D01*
X141778571Y-68861904D01*
X141730952Y-68909523D01*
X141683333Y-69004761D01*
X141683333Y-69195238D01*
X141730952Y-69290476D01*
X141778571Y-69338095D01*
X141873810Y-69385714D01*
X143207143Y-92766666D02*
X143254762Y-92814285D01*
X143302381Y-92957142D01*
X143302381Y-93052380D01*
X143254762Y-93195238D01*
X143159524Y-93290476D01*
X143064286Y-93338095D01*
X142873810Y-93385714D01*
X142730952Y-93385714D01*
X142540476Y-93338095D01*
X142445238Y-93290476D01*
X142350000Y-93195238D01*
X142302381Y-93052380D01*
X142302381Y-92957142D01*
X142350000Y-92814285D01*
X142397619Y-92766666D01*
X142302381Y-92433333D02*
X142302381Y-91766666D01*
X143302381Y-92195238D01*
X119233334Y-111957143D02*
X119185715Y-112004762D01*
X119042858Y-112052381D01*
X118947620Y-112052381D01*
X118804762Y-112004762D01*
X118709524Y-111909524D01*
X118661905Y-111814286D01*
X118614286Y-111623810D01*
X118614286Y-111480952D01*
X118661905Y-111290476D01*
X118709524Y-111195238D01*
X118804762Y-111100000D01*
X118947620Y-111052381D01*
X119042858Y-111052381D01*
X119185715Y-111100000D01*
X119233334Y-111147619D01*
X119804762Y-111480952D02*
X119709524Y-111433333D01*
X119661905Y-111385714D01*
X119614286Y-111290476D01*
X119614286Y-111242857D01*
X119661905Y-111147619D01*
X119709524Y-111100000D01*
X119804762Y-111052381D01*
X119995239Y-111052381D01*
X120090477Y-111100000D01*
X120138096Y-111147619D01*
X120185715Y-111242857D01*
X120185715Y-111290476D01*
X120138096Y-111385714D01*
X120090477Y-111433333D01*
X119995239Y-111480952D01*
X119804762Y-111480952D01*
X119709524Y-111528571D01*
X119661905Y-111576190D01*
X119614286Y-111671429D01*
X119614286Y-111861905D01*
X119661905Y-111957143D01*
X119709524Y-112004762D01*
X119804762Y-112052381D01*
X119995239Y-112052381D01*
X120090477Y-112004762D01*
X120138096Y-111957143D01*
X120185715Y-111861905D01*
X120185715Y-111671429D01*
X120138096Y-111576190D01*
X120090477Y-111528571D01*
X119995239Y-111480952D01*
D20*
X125830667Y-97762857D02*
X125782286Y-97811238D01*
X125637143Y-97859619D01*
X125540381Y-97859619D01*
X125395239Y-97811238D01*
X125298477Y-97714476D01*
X125250096Y-97617714D01*
X125201715Y-97424190D01*
X125201715Y-97279048D01*
X125250096Y-97085524D01*
X125298477Y-96988762D01*
X125395239Y-96892000D01*
X125540381Y-96843619D01*
X125637143Y-96843619D01*
X125782286Y-96892000D01*
X125830667Y-96940381D01*
X126314477Y-97859619D02*
X126508001Y-97859619D01*
X126604762Y-97811238D01*
X126653143Y-97762857D01*
X126749905Y-97617714D01*
X126798286Y-97424190D01*
X126798286Y-97037143D01*
X126749905Y-96940381D01*
X126701524Y-96892000D01*
X126604762Y-96843619D01*
X126411239Y-96843619D01*
X126314477Y-96892000D01*
X126266096Y-96940381D01*
X126217715Y-97037143D01*
X126217715Y-97279048D01*
X126266096Y-97375810D01*
X126314477Y-97424190D01*
X126411239Y-97472571D01*
X126604762Y-97472571D01*
X126701524Y-97424190D01*
X126749905Y-97375810D01*
X126798286Y-97279048D01*
D18*
X111557143Y-111157143D02*
X111509524Y-111204762D01*
X111366667Y-111252381D01*
X111271429Y-111252381D01*
X111128571Y-111204762D01*
X111033333Y-111109524D01*
X110985714Y-111014286D01*
X110938095Y-110823810D01*
X110938095Y-110680952D01*
X110985714Y-110490476D01*
X111033333Y-110395238D01*
X111128571Y-110300000D01*
X111271429Y-110252381D01*
X111366667Y-110252381D01*
X111509524Y-110300000D01*
X111557143Y-110347619D01*
X112509524Y-111252381D02*
X111938095Y-111252381D01*
X112223809Y-111252381D02*
X112223809Y-110252381D01*
X112128571Y-110395238D01*
X112033333Y-110490476D01*
X111938095Y-110538095D01*
X113128571Y-110252381D02*
X113223810Y-110252381D01*
X113319048Y-110300000D01*
X113366667Y-110347619D01*
X113414286Y-110442857D01*
X113461905Y-110633333D01*
X113461905Y-110871429D01*
X113414286Y-111061905D01*
X113366667Y-111157143D01*
X113319048Y-111204762D01*
X113223810Y-111252381D01*
X113128571Y-111252381D01*
X113033333Y-111204762D01*
X112985714Y-111157143D01*
X112938095Y-111061905D01*
X112890476Y-110871429D01*
X112890476Y-110633333D01*
X112938095Y-110442857D01*
X112985714Y-110347619D01*
X113033333Y-110300000D01*
X113128571Y-110252381D01*
X126361905Y-76552381D02*
X126361905Y-75552381D01*
X126600000Y-75552381D01*
X126742858Y-75600000D01*
X126838096Y-75695238D01*
X126885715Y-75790476D01*
X126933334Y-75980952D01*
X126933334Y-76123810D01*
X126885715Y-76314286D01*
X126838096Y-76409524D01*
X126742858Y-76504762D01*
X126600000Y-76552381D01*
X126361905Y-76552381D01*
X127885715Y-76552381D02*
X127314286Y-76552381D01*
X127600000Y-76552381D02*
X127600000Y-75552381D01*
X127504762Y-75695238D01*
X127409524Y-75790476D01*
X127314286Y-75838095D01*
X141361905Y-112802381D02*
X141361905Y-111802381D01*
X141600000Y-111802381D01*
X141742858Y-111850000D01*
X141838096Y-111945238D01*
X141885715Y-112040476D01*
X141933334Y-112230952D01*
X141933334Y-112373810D01*
X141885715Y-112564286D01*
X141838096Y-112659524D01*
X141742858Y-112754762D01*
X141600000Y-112802381D01*
X141361905Y-112802381D01*
X142314286Y-111897619D02*
X142361905Y-111850000D01*
X142457143Y-111802381D01*
X142695239Y-111802381D01*
X142790477Y-111850000D01*
X142838096Y-111897619D01*
X142885715Y-111992857D01*
X142885715Y-112088095D01*
X142838096Y-112230952D01*
X142266667Y-112802381D01*
X142885715Y-112802381D01*
X153061905Y-110402381D02*
X153061905Y-109402381D01*
X153300000Y-109402381D01*
X153442858Y-109450000D01*
X153538096Y-109545238D01*
X153585715Y-109640476D01*
X153633334Y-109830952D01*
X153633334Y-109973810D01*
X153585715Y-110164286D01*
X153538096Y-110259524D01*
X153442858Y-110354762D01*
X153300000Y-110402381D01*
X153061905Y-110402381D01*
X153966667Y-109402381D02*
X154585715Y-109402381D01*
X154252381Y-109783333D01*
X154395239Y-109783333D01*
X154490477Y-109830952D01*
X154538096Y-109878571D01*
X154585715Y-109973810D01*
X154585715Y-110211905D01*
X154538096Y-110307143D01*
X154490477Y-110354762D01*
X154395239Y-110402381D01*
X154109524Y-110402381D01*
X154014286Y-110354762D01*
X153966667Y-110307143D01*
X114261905Y-115852381D02*
X114261905Y-114852381D01*
X114500000Y-114852381D01*
X114642858Y-114900000D01*
X114738096Y-114995238D01*
X114785715Y-115090476D01*
X114833334Y-115280952D01*
X114833334Y-115423810D01*
X114785715Y-115614286D01*
X114738096Y-115709524D01*
X114642858Y-115804762D01*
X114500000Y-115852381D01*
X114261905Y-115852381D01*
X115690477Y-115185714D02*
X115690477Y-115852381D01*
X115452381Y-114804762D02*
X115214286Y-115519048D01*
X115833334Y-115519048D01*
X111266667Y-68722381D02*
X111266667Y-69436667D01*
X111219047Y-69579524D01*
X111123809Y-69674762D01*
X110980952Y-69722381D01*
X110885714Y-69722381D01*
X112266667Y-69722381D02*
X111695238Y-69722381D01*
X111980952Y-69722381D02*
X111980952Y-68722381D01*
X111885714Y-68865238D01*
X111790476Y-68960476D01*
X111695238Y-69008095D01*
X111266667Y-80222381D02*
X111266667Y-80936667D01*
X111219047Y-81079524D01*
X111123809Y-81174762D01*
X110980952Y-81222381D01*
X110885714Y-81222381D01*
X111695238Y-80317619D02*
X111742857Y-80270000D01*
X111838095Y-80222381D01*
X112076191Y-80222381D01*
X112171429Y-80270000D01*
X112219048Y-80317619D01*
X112266667Y-80412857D01*
X112266667Y-80508095D01*
X112219048Y-80650952D01*
X111647619Y-81222381D01*
X112266667Y-81222381D01*
X123266667Y-113812381D02*
X123266667Y-114526667D01*
X123219047Y-114669524D01*
X123123809Y-114764762D01*
X122980952Y-114812381D01*
X122885714Y-114812381D01*
X123647619Y-113812381D02*
X124266667Y-113812381D01*
X123933333Y-114193333D01*
X124076191Y-114193333D01*
X124171429Y-114240952D01*
X124219048Y-114288571D01*
X124266667Y-114383810D01*
X124266667Y-114621905D01*
X124219048Y-114717143D01*
X124171429Y-114764762D01*
X124076191Y-114812381D01*
X123790476Y-114812381D01*
X123695238Y-114764762D01*
X123647619Y-114717143D01*
X130266667Y-116552381D02*
X130266667Y-117266667D01*
X130219047Y-117409524D01*
X130123809Y-117504762D01*
X129980952Y-117552381D01*
X129885714Y-117552381D01*
X131171429Y-116885714D02*
X131171429Y-117552381D01*
X130933333Y-116504762D02*
X130695238Y-117219048D01*
X131314286Y-117219048D01*
X130266667Y-103052381D02*
X130266667Y-103766667D01*
X130219047Y-103909524D01*
X130123809Y-104004762D01*
X129980952Y-104052381D01*
X129885714Y-104052381D01*
X131219048Y-103052381D02*
X130742857Y-103052381D01*
X130695238Y-103528571D01*
X130742857Y-103480952D01*
X130838095Y-103433333D01*
X131076191Y-103433333D01*
X131171429Y-103480952D01*
X131219048Y-103528571D01*
X131266667Y-103623810D01*
X131266667Y-103861905D01*
X131219048Y-103957143D01*
X131171429Y-104004762D01*
X131076191Y-104052381D01*
X130838095Y-104052381D01*
X130742857Y-104004762D01*
X130695238Y-103957143D01*
X143766667Y-73222381D02*
X143766667Y-73936667D01*
X143719047Y-74079524D01*
X143623809Y-74174762D01*
X143480952Y-74222381D01*
X143385714Y-74222381D01*
X144671429Y-73222381D02*
X144480952Y-73222381D01*
X144385714Y-73270000D01*
X144338095Y-73317619D01*
X144242857Y-73460476D01*
X144195238Y-73650952D01*
X144195238Y-74031905D01*
X144242857Y-74127143D01*
X144290476Y-74174762D01*
X144385714Y-74222381D01*
X144576191Y-74222381D01*
X144671429Y-74174762D01*
X144719048Y-74127143D01*
X144766667Y-74031905D01*
X144766667Y-73793810D01*
X144719048Y-73698571D01*
X144671429Y-73650952D01*
X144576191Y-73603333D01*
X144385714Y-73603333D01*
X144290476Y-73650952D01*
X144242857Y-73698571D01*
X144195238Y-73793810D01*
X139722381Y-119933333D02*
X140436667Y-119933333D01*
X140579524Y-119980953D01*
X140674762Y-120076191D01*
X140722381Y-120219048D01*
X140722381Y-120314286D01*
X140150952Y-119314286D02*
X140103333Y-119409524D01*
X140055714Y-119457143D01*
X139960476Y-119504762D01*
X139912857Y-119504762D01*
X139817619Y-119457143D01*
X139770000Y-119409524D01*
X139722381Y-119314286D01*
X139722381Y-119123809D01*
X139770000Y-119028571D01*
X139817619Y-118980952D01*
X139912857Y-118933333D01*
X139960476Y-118933333D01*
X140055714Y-118980952D01*
X140103333Y-119028571D01*
X140150952Y-119123809D01*
X140150952Y-119314286D01*
X140198571Y-119409524D01*
X140246190Y-119457143D01*
X140341429Y-119504762D01*
X140531905Y-119504762D01*
X140627143Y-119457143D01*
X140674762Y-119409524D01*
X140722381Y-119314286D01*
X140722381Y-119123809D01*
X140674762Y-119028571D01*
X140627143Y-118980952D01*
X140531905Y-118933333D01*
X140341429Y-118933333D01*
X140246190Y-118980952D01*
X140198571Y-119028571D01*
X140150952Y-119123809D01*
X168266667Y-64222381D02*
X168266667Y-64936667D01*
X168219047Y-65079524D01*
X168123809Y-65174762D01*
X167980952Y-65222381D01*
X167885714Y-65222381D01*
X168790476Y-65222381D02*
X168980952Y-65222381D01*
X169076191Y-65174762D01*
X169123810Y-65127143D01*
X169219048Y-64984286D01*
X169266667Y-64793810D01*
X169266667Y-64412857D01*
X169219048Y-64317619D01*
X169171429Y-64270000D01*
X169076191Y-64222381D01*
X168885714Y-64222381D01*
X168790476Y-64270000D01*
X168742857Y-64317619D01*
X168695238Y-64412857D01*
X168695238Y-64650952D01*
X168742857Y-64746190D01*
X168790476Y-64793810D01*
X168885714Y-64841429D01*
X169076191Y-64841429D01*
X169171429Y-64793810D01*
X169219048Y-64746190D01*
X169266667Y-64650952D01*
X167790477Y-75222381D02*
X167790477Y-75936667D01*
X167742857Y-76079524D01*
X167647619Y-76174762D01*
X167504762Y-76222381D01*
X167409524Y-76222381D01*
X168790477Y-76222381D02*
X168219048Y-76222381D01*
X168504762Y-76222381D02*
X168504762Y-75222381D01*
X168409524Y-75365238D01*
X168314286Y-75460476D01*
X168219048Y-75508095D01*
X169409524Y-75222381D02*
X169504763Y-75222381D01*
X169600001Y-75270000D01*
X169647620Y-75317619D01*
X169695239Y-75412857D01*
X169742858Y-75603333D01*
X169742858Y-75841429D01*
X169695239Y-76031905D01*
X169647620Y-76127143D01*
X169600001Y-76174762D01*
X169504763Y-76222381D01*
X169409524Y-76222381D01*
X169314286Y-76174762D01*
X169266667Y-76127143D01*
X169219048Y-76031905D01*
X169171429Y-75841429D01*
X169171429Y-75603333D01*
X169219048Y-75412857D01*
X169266667Y-75317619D01*
X169314286Y-75270000D01*
X169409524Y-75222381D01*
X110190477Y-96452381D02*
X110190477Y-97166667D01*
X110142857Y-97309524D01*
X110047619Y-97404762D01*
X109904762Y-97452381D01*
X109809524Y-97452381D01*
X111190477Y-97452381D02*
X110619048Y-97452381D01*
X110904762Y-97452381D02*
X110904762Y-96452381D01*
X110809524Y-96595238D01*
X110714286Y-96690476D01*
X110619048Y-96738095D01*
X112142858Y-97452381D02*
X111571429Y-97452381D01*
X111857143Y-97452381D02*
X111857143Y-96452381D01*
X111761905Y-96595238D01*
X111666667Y-96690476D01*
X111571429Y-96738095D01*
X167790477Y-85722381D02*
X167790477Y-86436667D01*
X167742857Y-86579524D01*
X167647619Y-86674762D01*
X167504762Y-86722381D01*
X167409524Y-86722381D01*
X168790477Y-86722381D02*
X168219048Y-86722381D01*
X168504762Y-86722381D02*
X168504762Y-85722381D01*
X168409524Y-85865238D01*
X168314286Y-85960476D01*
X168219048Y-86008095D01*
X169171429Y-85817619D02*
X169219048Y-85770000D01*
X169314286Y-85722381D01*
X169552382Y-85722381D01*
X169647620Y-85770000D01*
X169695239Y-85817619D01*
X169742858Y-85912857D01*
X169742858Y-86008095D01*
X169695239Y-86150952D01*
X169123810Y-86722381D01*
X169742858Y-86722381D01*
X120052381Y-88741666D02*
X120052381Y-89217857D01*
X119052381Y-89217857D01*
X120052381Y-87884523D02*
X120052381Y-88455952D01*
X120052381Y-88170238D02*
X119052381Y-88170238D01*
X119195238Y-88265476D01*
X119290476Y-88360714D01*
X119338095Y-88455952D01*
X118933334Y-97552381D02*
X118457143Y-97552381D01*
X118457143Y-96552381D01*
X119219048Y-96647619D02*
X119266667Y-96600000D01*
X119361905Y-96552381D01*
X119600001Y-96552381D01*
X119695239Y-96600000D01*
X119742858Y-96647619D01*
X119790477Y-96742857D01*
X119790477Y-96838095D01*
X119742858Y-96980952D01*
X119171429Y-97552381D01*
X119790477Y-97552381D01*
X136433334Y-113252381D02*
X136100000Y-112776190D01*
X135861905Y-113252381D02*
X135861905Y-112252381D01*
X136242858Y-112252381D01*
X136338096Y-112300000D01*
X136385715Y-112347619D01*
X136433334Y-112442857D01*
X136433334Y-112585714D01*
X136385715Y-112680952D01*
X136338096Y-112728571D01*
X136242858Y-112776190D01*
X135861905Y-112776190D01*
X137385715Y-113252381D02*
X136814286Y-113252381D01*
X137100000Y-113252381D02*
X137100000Y-112252381D01*
X137004762Y-112395238D01*
X136909524Y-112490476D01*
X136814286Y-112538095D01*
X157933334Y-113252381D02*
X157600000Y-112776190D01*
X157361905Y-113252381D02*
X157361905Y-112252381D01*
X157742858Y-112252381D01*
X157838096Y-112300000D01*
X157885715Y-112347619D01*
X157933334Y-112442857D01*
X157933334Y-112585714D01*
X157885715Y-112680952D01*
X157838096Y-112728571D01*
X157742858Y-112776190D01*
X157361905Y-112776190D01*
X158314286Y-112347619D02*
X158361905Y-112300000D01*
X158457143Y-112252381D01*
X158695239Y-112252381D01*
X158790477Y-112300000D01*
X158838096Y-112347619D01*
X158885715Y-112442857D01*
X158885715Y-112538095D01*
X158838096Y-112680952D01*
X158266667Y-113252381D01*
X158885715Y-113252381D01*
X127361905Y-68009524D02*
X128009524Y-68009524D01*
X128085714Y-67971429D01*
X128123810Y-67933333D01*
X128161905Y-67857143D01*
X128161905Y-67704762D01*
X128123810Y-67628571D01*
X128085714Y-67590476D01*
X128009524Y-67552381D01*
X127361905Y-67552381D01*
X128161905Y-66752381D02*
X128161905Y-67209524D01*
X128161905Y-66980953D02*
X127361905Y-66980953D01*
X127476190Y-67057143D01*
X127552381Y-67133334D01*
X127590476Y-67209524D01*
X150838095Y-70052381D02*
X150838095Y-70861905D01*
X150885714Y-70957143D01*
X150933333Y-71004762D01*
X151028571Y-71052381D01*
X151219048Y-71052381D01*
X151314286Y-71004762D01*
X151361905Y-70957143D01*
X151409524Y-70861905D01*
X151409524Y-70052381D01*
X151838095Y-70147619D02*
X151885714Y-70100000D01*
X151980952Y-70052381D01*
X152219048Y-70052381D01*
X152314286Y-70100000D01*
X152361905Y-70147619D01*
X152409524Y-70242857D01*
X152409524Y-70338095D01*
X152361905Y-70480952D01*
X151790476Y-71052381D01*
X152409524Y-71052381D01*
X134222381Y-101551905D02*
X135031905Y-101551905D01*
X135127143Y-101504286D01*
X135174762Y-101456667D01*
X135222381Y-101361429D01*
X135222381Y-101170952D01*
X135174762Y-101075714D01*
X135127143Y-101028095D01*
X135031905Y-100980476D01*
X134222381Y-100980476D01*
X134222381Y-100599524D02*
X134222381Y-99980476D01*
X134603333Y-100313810D01*
X134603333Y-100170952D01*
X134650952Y-100075714D01*
X134698571Y-100028095D01*
X134793810Y-99980476D01*
X135031905Y-99980476D01*
X135127143Y-100028095D01*
X135174762Y-100075714D01*
X135222381Y-100170952D01*
X135222381Y-100456667D01*
X135174762Y-100551905D01*
X135127143Y-100599524D01*
X118838095Y-104252381D02*
X118838095Y-105061905D01*
X118885714Y-105157143D01*
X118933333Y-105204762D01*
X119028571Y-105252381D01*
X119219048Y-105252381D01*
X119314286Y-105204762D01*
X119361905Y-105157143D01*
X119409524Y-105061905D01*
X119409524Y-104252381D01*
X120314286Y-104585714D02*
X120314286Y-105252381D01*
X120076190Y-104204762D02*
X119838095Y-104919048D01*
X120457143Y-104919048D01*
X119066667Y-79652381D02*
X119066667Y-80366667D01*
X119019047Y-80509524D01*
X118923809Y-80604762D01*
X118780952Y-80652381D01*
X118685714Y-80652381D01*
X119447619Y-79652381D02*
X120114286Y-79652381D01*
X119685714Y-80652381D01*
X161486905Y-76752381D02*
X161486905Y-75752381D01*
X161725000Y-75752381D01*
X161867858Y-75800000D01*
X161963096Y-75895238D01*
X162010715Y-75990476D01*
X162058334Y-76180952D01*
X162058334Y-76323810D01*
X162010715Y-76514286D01*
X161963096Y-76609524D01*
X161867858Y-76704762D01*
X161725000Y-76752381D01*
X161486905Y-76752381D01*
X162963096Y-75752381D02*
X162486905Y-75752381D01*
X162439286Y-76228571D01*
X162486905Y-76180952D01*
X162582143Y-76133333D01*
X162820239Y-76133333D01*
X162915477Y-76180952D01*
X162963096Y-76228571D01*
X163010715Y-76323810D01*
X163010715Y-76561905D01*
X162963096Y-76657143D01*
X162915477Y-76704762D01*
X162820239Y-76752381D01*
X162582143Y-76752381D01*
X162486905Y-76704762D01*
X162439286Y-76657143D01*
X155752381Y-82713095D02*
X154752381Y-82713095D01*
X154752381Y-82475000D01*
X154800000Y-82332142D01*
X154895238Y-82236904D01*
X154990476Y-82189285D01*
X155180952Y-82141666D01*
X155323810Y-82141666D01*
X155514286Y-82189285D01*
X155609524Y-82236904D01*
X155704762Y-82332142D01*
X155752381Y-82475000D01*
X155752381Y-82713095D01*
X154752381Y-81284523D02*
X154752381Y-81475000D01*
X154800000Y-81570238D01*
X154847619Y-81617857D01*
X154990476Y-81713095D01*
X155180952Y-81760714D01*
X155561905Y-81760714D01*
X155657143Y-81713095D01*
X155704762Y-81665476D01*
X155752381Y-81570238D01*
X155752381Y-81379761D01*
X155704762Y-81284523D01*
X155657143Y-81236904D01*
X155561905Y-81189285D01*
X155323810Y-81189285D01*
X155228571Y-81236904D01*
X155180952Y-81284523D01*
X155133333Y-81379761D01*
X155133333Y-81570238D01*
X155180952Y-81665476D01*
X155228571Y-81713095D01*
X155323810Y-81760714D01*
X165633334Y-71402381D02*
X165300000Y-70926190D01*
X165061905Y-71402381D02*
X165061905Y-70402381D01*
X165442858Y-70402381D01*
X165538096Y-70450000D01*
X165585715Y-70497619D01*
X165633334Y-70592857D01*
X165633334Y-70735714D01*
X165585715Y-70830952D01*
X165538096Y-70878571D01*
X165442858Y-70926190D01*
X165061905Y-70926190D01*
X165966667Y-70402381D02*
X166585715Y-70402381D01*
X166252381Y-70783333D01*
X166395239Y-70783333D01*
X166490477Y-70830952D01*
X166538096Y-70878571D01*
X166585715Y-70973810D01*
X166585715Y-71211905D01*
X166538096Y-71307143D01*
X166490477Y-71354762D01*
X166395239Y-71402381D01*
X166109524Y-71402381D01*
X166014286Y-71354762D01*
X165966667Y-71307143D01*
X148033334Y-77702381D02*
X147700000Y-77226190D01*
X147461905Y-77702381D02*
X147461905Y-76702381D01*
X147842858Y-76702381D01*
X147938096Y-76750000D01*
X147985715Y-76797619D01*
X148033334Y-76892857D01*
X148033334Y-77035714D01*
X147985715Y-77130952D01*
X147938096Y-77178571D01*
X147842858Y-77226190D01*
X147461905Y-77226190D01*
X148890477Y-77035714D02*
X148890477Y-77702381D01*
X148652381Y-76654762D02*
X148414286Y-77369048D01*
X149033334Y-77369048D01*
%LPC*%
D21*
X122600000Y-73300000D03*
X122600000Y-67900000D03*
D22*
X136100000Y-80600000D03*
X136100000Y-88600000D03*
D23*
X137100000Y-106550000D03*
X137100000Y-107650000D03*
D24*
X155350000Y-69600000D03*
X157850000Y-69600000D03*
D25*
X155600000Y-67100000D03*
X155600000Y-63100000D03*
X144100000Y-71600000D03*
X144100000Y-67600000D03*
D26*
X144600000Y-93850000D03*
X144600000Y-91350000D03*
D27*
X118650000Y-113100000D03*
X120550000Y-113100000D03*
D28*
X126100000Y-106320000D03*
X126100000Y-99880000D03*
D29*
X110100000Y-108600000D03*
X114100000Y-108600000D03*
D30*
X125600000Y-77650000D03*
X125600000Y-79550000D03*
X128600000Y-78600000D03*
D27*
X143050000Y-111100000D03*
X141150000Y-111100000D03*
X152850000Y-111200000D03*
X154750000Y-111200000D03*
D30*
X113100000Y-112150000D03*
X113100000Y-114050000D03*
X116100000Y-113100000D03*
D31*
X111600000Y-71600000D03*
D32*
X111600000Y-74140000D03*
D31*
X111600000Y-83100000D03*
D32*
X111600000Y-85640000D03*
D33*
X122300000Y-116250000D03*
X122950000Y-116250000D03*
X123600000Y-116250000D03*
X124250000Y-116250000D03*
X124900000Y-116250000D03*
D34*
X121100000Y-116250000D03*
X126100000Y-116250000D03*
D35*
X120100000Y-118950000D03*
X127100000Y-118950000D03*
D31*
X130600000Y-112100000D03*
D32*
X130600000Y-114640000D03*
D31*
X130600000Y-108100000D03*
D32*
X130600000Y-105560000D03*
D31*
X144100000Y-76100000D03*
D32*
X144100000Y-78640000D03*
D31*
X142600000Y-119600000D03*
D32*
X145140000Y-119600000D03*
X147680000Y-119600000D03*
X150220000Y-119600000D03*
X152760000Y-119600000D03*
X155300000Y-119600000D03*
D31*
X168600000Y-67100000D03*
D32*
X168600000Y-69640000D03*
D31*
X168600000Y-78100000D03*
D32*
X168600000Y-80640000D03*
D31*
X111100000Y-104600000D03*
D32*
X111100000Y-102060000D03*
X111100000Y-99520000D03*
D31*
X168600000Y-88600000D03*
D32*
X168600000Y-91140000D03*
X168600000Y-93680000D03*
X168600000Y-96220000D03*
X168600000Y-98760000D03*
X168600000Y-101300000D03*
X168600000Y-103840000D03*
X168600000Y-106380000D03*
D36*
X123600000Y-92850000D03*
X123600000Y-84350000D03*
D37*
X121550000Y-100775000D03*
X116650000Y-100600000D03*
D38*
X135250000Y-111100000D03*
X137950000Y-111100000D03*
X159450000Y-111100000D03*
X156750000Y-111100000D03*
D39*
X131200000Y-73800000D03*
D40*
X134600000Y-62900000D03*
D39*
X132900000Y-73800000D03*
X134600000Y-73800000D03*
X136300000Y-73800000D03*
X138000000Y-73800000D03*
D41*
X150250000Y-67150000D03*
X150250000Y-68100000D03*
X150250000Y-69050000D03*
X152950000Y-69050000D03*
X152950000Y-67150000D03*
D42*
X137100000Y-104600000D03*
D43*
X159960000Y-96980000D03*
X139640000Y-104600000D03*
X157420000Y-96980000D03*
X142180000Y-104600000D03*
X154880000Y-96980000D03*
X144720000Y-104600000D03*
X152340000Y-96980000D03*
X147260000Y-104600000D03*
X149800000Y-96980000D03*
X149800000Y-104600000D03*
X147260000Y-96980000D03*
X152340000Y-104600000D03*
X144720000Y-96980000D03*
X154880000Y-104600000D03*
X142180000Y-96980000D03*
X157420000Y-104600000D03*
X139640000Y-96980000D03*
X159960000Y-104600000D03*
X137100000Y-96980000D03*
D44*
X122300000Y-110005000D03*
X122300000Y-108735000D03*
X122300000Y-107465000D03*
X122300000Y-106195000D03*
X116900000Y-106195000D03*
X116900000Y-107465000D03*
X116900000Y-108735000D03*
X116900000Y-110005000D03*
D45*
X168000000Y-60200000D03*
X111200000Y-60200000D03*
X111200000Y-118400000D03*
X168000000Y-118600000D03*
D31*
X118200000Y-77800000D03*
D32*
X120740000Y-77800000D03*
D46*
X163700000Y-69600000D03*
X160700000Y-69600000D03*
D47*
X148600000Y-80500000D03*
X148600000Y-83500000D03*
D48*
X166250000Y-69600000D03*
X165350000Y-69600000D03*
X147750000Y-78600000D03*
X148650000Y-78600000D03*
M02*
