G04 #@! TF.FileFunction,Copper,L2,Bot,Signal*
%FSLAX46Y46*%
G04 Gerber Fmt 4.6, Leading zero omitted, Abs format (unit mm)*
G04 Created by KiCad (PCBNEW 4.0.7) date 03/26/18 17:29:43*
%MOMM*%
%LPD*%
G01*
G04 APERTURE LIST*
%ADD10C,0.100000*%
%ADD11R,1.700000X1.700000*%
%ADD12O,1.700000X1.700000*%
%ADD13O,1.250000X0.950000*%
%ADD14O,1.000000X1.550000*%
%ADD15R,1.600000X2.400000*%
%ADD16O,1.600000X2.400000*%
%ADD17C,0.600000*%
%ADD18C,0.250000*%
%ADD19C,0.450000*%
%ADD20C,0.254000*%
G04 APERTURE END LIST*
D10*
D11*
X111600000Y-71600000D03*
D12*
X111600000Y-74140000D03*
D11*
X111600000Y-83100000D03*
D12*
X111600000Y-85640000D03*
D13*
X121100000Y-116250000D03*
X126100000Y-116250000D03*
D14*
X120100000Y-118950000D03*
X127100000Y-118950000D03*
D11*
X130600000Y-112100000D03*
D12*
X130600000Y-114640000D03*
D11*
X130600000Y-108100000D03*
D12*
X130600000Y-105560000D03*
D11*
X144100000Y-76100000D03*
D12*
X144100000Y-78640000D03*
D11*
X142600000Y-119600000D03*
D12*
X145140000Y-119600000D03*
X147680000Y-119600000D03*
X150220000Y-119600000D03*
X152760000Y-119600000D03*
X155300000Y-119600000D03*
D11*
X168600000Y-67100000D03*
D12*
X168600000Y-69640000D03*
D11*
X168600000Y-78100000D03*
D12*
X168600000Y-80640000D03*
D11*
X111100000Y-104600000D03*
D12*
X111100000Y-102060000D03*
X111100000Y-99520000D03*
D11*
X168600000Y-88600000D03*
D12*
X168600000Y-91140000D03*
X168600000Y-93680000D03*
X168600000Y-96220000D03*
X168600000Y-98760000D03*
X168600000Y-101300000D03*
X168600000Y-103840000D03*
X168600000Y-106380000D03*
D15*
X137100000Y-104600000D03*
D16*
X159960000Y-96980000D03*
X139640000Y-104600000D03*
X157420000Y-96980000D03*
X142180000Y-104600000D03*
X154880000Y-96980000D03*
X144720000Y-104600000D03*
X152340000Y-96980000D03*
X147260000Y-104600000D03*
X149800000Y-96980000D03*
X149800000Y-104600000D03*
X147260000Y-96980000D03*
X152340000Y-104600000D03*
X144720000Y-96980000D03*
X154880000Y-104600000D03*
X142180000Y-96980000D03*
X157420000Y-104600000D03*
X139640000Y-96980000D03*
X159960000Y-104600000D03*
X137100000Y-96980000D03*
D11*
X118200000Y-77800000D03*
D12*
X120740000Y-77800000D03*
D17*
X115800000Y-104400000D03*
X115000000Y-74000000D03*
X115600000Y-64800000D03*
X122600000Y-64800000D03*
X117800000Y-88400000D03*
X117800000Y-80200000D03*
X144000000Y-62200000D03*
X151800000Y-62200000D03*
X162400000Y-62200000D03*
X162400000Y-71000000D03*
X162400000Y-79400000D03*
X162400000Y-88400000D03*
X156200000Y-88400000D03*
X145200000Y-88400000D03*
X139000000Y-93000000D03*
X130800000Y-96200000D03*
X117800000Y-96400000D03*
X123200000Y-119000000D03*
X114800000Y-117600000D03*
X110800000Y-114800000D03*
X110800000Y-112200000D03*
X126600000Y-113800000D03*
X153000000Y-114200000D03*
X149000000Y-114200000D03*
X148800000Y-108800000D03*
X143400000Y-109000000D03*
X137200000Y-108800000D03*
X146600000Y-68000000D03*
X149000000Y-68200000D03*
X112200000Y-108600000D03*
X116200000Y-107600000D03*
X140100000Y-80600000D03*
X129600000Y-100800000D03*
X126600000Y-109800000D03*
X123600000Y-114400000D03*
X115100000Y-106100000D03*
X156100000Y-101100000D03*
X149100000Y-106600000D03*
X161100000Y-98600000D03*
D18*
X122600000Y-64800000D02*
X115600000Y-64800000D01*
X144000000Y-62200000D02*
X151800000Y-62200000D01*
X162400000Y-62200000D02*
X162400000Y-71000000D01*
X162400000Y-79400000D02*
X162400000Y-88400000D01*
X156200000Y-88400000D02*
X145200000Y-88400000D01*
X139000000Y-93000000D02*
X134000000Y-93000000D01*
X134000000Y-93000000D02*
X130800000Y-96200000D01*
X117800000Y-96400000D02*
X117800000Y-88400000D01*
X117800000Y-88400000D02*
X117800000Y-88200000D01*
X127100000Y-118950000D02*
X127050000Y-119000000D01*
X127050000Y-119000000D02*
X123200000Y-119000000D01*
X114800000Y-117600000D02*
X112600000Y-116600000D01*
X112600000Y-116600000D02*
X110800000Y-114800000D01*
X110800000Y-112200000D02*
X112600000Y-112200000D01*
X112600000Y-112200000D02*
X112800000Y-112000000D01*
X126100000Y-116250000D02*
X126600000Y-115750000D01*
X126600000Y-115750000D02*
X126600000Y-113800000D01*
X153000000Y-114200000D02*
X149000000Y-114200000D01*
X148800000Y-108800000D02*
X143600000Y-108800000D01*
X143600000Y-108800000D02*
X143400000Y-109000000D01*
X137200000Y-108800000D02*
X137200000Y-108000000D01*
X137200000Y-108000000D02*
X137000000Y-107800000D01*
X146600000Y-68000000D02*
X148800000Y-68000000D01*
X148800000Y-68000000D02*
X149000000Y-68200000D01*
X112200000Y-108600000D02*
X113200000Y-107600000D01*
X113200000Y-107600000D02*
X116200000Y-107600000D01*
D19*
X142060000Y-78640000D02*
X144100000Y-78640000D01*
X140100000Y-80600000D02*
X142060000Y-78640000D01*
D18*
X137640000Y-112100000D02*
X130600000Y-112100000D01*
X145140000Y-119600000D02*
X137640000Y-112100000D01*
X126800000Y-103600000D02*
X129600000Y-100800000D01*
X126800000Y-109600000D02*
X126800000Y-103600000D01*
X126600000Y-109800000D02*
X126800000Y-109600000D01*
X136020000Y-100600000D02*
X139640000Y-96980000D01*
X131400000Y-100600000D02*
X136020000Y-100600000D01*
X128800000Y-103200000D02*
X131400000Y-100600000D01*
X128800000Y-109200000D02*
X128800000Y-103200000D01*
X123600000Y-114400000D02*
X128800000Y-109200000D01*
X111100000Y-102060000D02*
X115100000Y-106060000D01*
X115100000Y-106060000D02*
X115100000Y-106100000D01*
X156100000Y-101100000D02*
X168400000Y-101100000D01*
X168400000Y-101100000D02*
X168600000Y-101300000D01*
X149800000Y-104600000D02*
X151800000Y-102600000D01*
X167360000Y-102600000D02*
X168600000Y-103840000D01*
X151800000Y-102600000D02*
X167360000Y-102600000D01*
X168380000Y-106600000D02*
X149100000Y-106600000D01*
X168600000Y-106380000D02*
X168380000Y-106600000D01*
X161100000Y-98600000D02*
X168440000Y-98600000D01*
X168440000Y-98600000D02*
X168600000Y-98760000D01*
D20*
G36*
X166877057Y-58516218D02*
X166318181Y-59074120D01*
X166015346Y-59803427D01*
X166014657Y-60593109D01*
X166316218Y-61322943D01*
X166874120Y-61881819D01*
X167603427Y-62184654D01*
X168393109Y-62185343D01*
X169122943Y-61883782D01*
X169681819Y-61325880D01*
X169952402Y-60674244D01*
X169911422Y-65796736D01*
X169701890Y-65653569D01*
X169450000Y-65602560D01*
X167750000Y-65602560D01*
X167514683Y-65646838D01*
X167298559Y-65785910D01*
X167153569Y-65998110D01*
X167102560Y-66250000D01*
X167102560Y-67950000D01*
X167146838Y-68185317D01*
X167285910Y-68401441D01*
X167498110Y-68546431D01*
X167565541Y-68560086D01*
X167520853Y-68589946D01*
X167198946Y-69071715D01*
X167085907Y-69640000D01*
X167198946Y-70208285D01*
X167520853Y-70690054D01*
X168002622Y-71011961D01*
X168570907Y-71125000D01*
X168629093Y-71125000D01*
X169197378Y-71011961D01*
X169679147Y-70690054D01*
X169874616Y-70397513D01*
X169823988Y-76725963D01*
X169809698Y-76711673D01*
X169576309Y-76615000D01*
X168885750Y-76615000D01*
X168727000Y-76773750D01*
X168727000Y-77973000D01*
X168747000Y-77973000D01*
X168747000Y-78227000D01*
X168727000Y-78227000D01*
X168727000Y-80513000D01*
X168747000Y-80513000D01*
X168747000Y-80767000D01*
X168727000Y-80767000D01*
X168727000Y-81960819D01*
X168956892Y-82081486D01*
X169481358Y-81835183D01*
X169785787Y-81501135D01*
X169740332Y-87182941D01*
X169576309Y-87115000D01*
X168885750Y-87115000D01*
X168727000Y-87273750D01*
X168727000Y-88473000D01*
X168747000Y-88473000D01*
X168747000Y-88727000D01*
X168727000Y-88727000D01*
X168727000Y-88747000D01*
X168473000Y-88747000D01*
X168473000Y-88727000D01*
X167273750Y-88727000D01*
X167115000Y-88885750D01*
X167115000Y-89576310D01*
X167211673Y-89809699D01*
X167390302Y-89988327D01*
X167564777Y-90060597D01*
X167520853Y-90089946D01*
X167198946Y-90571715D01*
X167085907Y-91140000D01*
X167198946Y-91708285D01*
X167520853Y-92190054D01*
X167850026Y-92410000D01*
X167520853Y-92629946D01*
X167198946Y-93111715D01*
X167085907Y-93680000D01*
X167198946Y-94248285D01*
X167520853Y-94730054D01*
X167850026Y-94950000D01*
X167520853Y-95169946D01*
X167198946Y-95651715D01*
X167085907Y-96220000D01*
X167198946Y-96788285D01*
X167520853Y-97270054D01*
X167850026Y-97490000D01*
X167520853Y-97709946D01*
X167433954Y-97840000D01*
X161662463Y-97840000D01*
X161630327Y-97807808D01*
X161340956Y-97687650D01*
X161395000Y-97415950D01*
X161395000Y-96544050D01*
X161285767Y-95994899D01*
X160974698Y-95529352D01*
X160509151Y-95218283D01*
X159960000Y-95109050D01*
X159410849Y-95218283D01*
X158945302Y-95529352D01*
X158690000Y-95911438D01*
X158434698Y-95529352D01*
X157969151Y-95218283D01*
X157420000Y-95109050D01*
X156870849Y-95218283D01*
X156405302Y-95529352D01*
X156150000Y-95911438D01*
X155894698Y-95529352D01*
X155429151Y-95218283D01*
X154880000Y-95109050D01*
X154330849Y-95218283D01*
X153865302Y-95529352D01*
X153610000Y-95911438D01*
X153354698Y-95529352D01*
X152889151Y-95218283D01*
X152340000Y-95109050D01*
X151790849Y-95218283D01*
X151325302Y-95529352D01*
X151070000Y-95911438D01*
X150814698Y-95529352D01*
X150349151Y-95218283D01*
X149800000Y-95109050D01*
X149250849Y-95218283D01*
X148785302Y-95529352D01*
X148530000Y-95911438D01*
X148274698Y-95529352D01*
X147809151Y-95218283D01*
X147260000Y-95109050D01*
X146710849Y-95218283D01*
X146245302Y-95529352D01*
X145990000Y-95911438D01*
X145734698Y-95529352D01*
X145269151Y-95218283D01*
X144720000Y-95109050D01*
X144170849Y-95218283D01*
X143705302Y-95529352D01*
X143450000Y-95911438D01*
X143194698Y-95529352D01*
X142729151Y-95218283D01*
X142180000Y-95109050D01*
X141630849Y-95218283D01*
X141165302Y-95529352D01*
X140910000Y-95911438D01*
X140654698Y-95529352D01*
X140189151Y-95218283D01*
X139640000Y-95109050D01*
X139090849Y-95218283D01*
X138625302Y-95529352D01*
X138372493Y-95907707D01*
X138024896Y-95475500D01*
X137531819Y-95205633D01*
X137449039Y-95188096D01*
X137227000Y-95310085D01*
X137227000Y-96853000D01*
X137247000Y-96853000D01*
X137247000Y-97107000D01*
X137227000Y-97107000D01*
X137227000Y-97127000D01*
X136973000Y-97127000D01*
X136973000Y-97107000D01*
X135665000Y-97107000D01*
X135665000Y-97507000D01*
X135822834Y-98046483D01*
X136175104Y-98484500D01*
X136668181Y-98754367D01*
X136750961Y-98771904D01*
X136800524Y-98744674D01*
X135705198Y-99840000D01*
X131400000Y-99840000D01*
X131109160Y-99897852D01*
X130862599Y-100062599D01*
X130469436Y-100455762D01*
X130393117Y-100271057D01*
X130130327Y-100007808D01*
X129786799Y-99865162D01*
X129414833Y-99864838D01*
X129071057Y-100006883D01*
X128807808Y-100269673D01*
X128665162Y-100613201D01*
X128665121Y-100660077D01*
X126262599Y-103062599D01*
X126097852Y-103309161D01*
X126040000Y-103600000D01*
X126040000Y-109037886D01*
X125807808Y-109269673D01*
X125665162Y-109613201D01*
X125664838Y-109985167D01*
X125806883Y-110328943D01*
X126069673Y-110592192D01*
X126255743Y-110669455D01*
X123460320Y-113464878D01*
X123414833Y-113464838D01*
X123071057Y-113606883D01*
X122807808Y-113869673D01*
X122665162Y-114213201D01*
X122664838Y-114585167D01*
X122806883Y-114928943D01*
X123069673Y-115192192D01*
X123413201Y-115334838D01*
X123785167Y-115335162D01*
X124128943Y-115193117D01*
X124392192Y-114930327D01*
X124534838Y-114586799D01*
X124534879Y-114539923D01*
X129337401Y-109737401D01*
X129475380Y-109530900D01*
X129498110Y-109546431D01*
X129750000Y-109597440D01*
X131450000Y-109597440D01*
X131685317Y-109553162D01*
X131901441Y-109414090D01*
X132046431Y-109201890D01*
X132097440Y-108950000D01*
X132097440Y-107250000D01*
X132053162Y-107014683D01*
X131914090Y-106798559D01*
X131701890Y-106653569D01*
X131634459Y-106639914D01*
X131679147Y-106610054D01*
X132001054Y-106128285D01*
X132114093Y-105560000D01*
X132001054Y-104991715D01*
X131679147Y-104509946D01*
X131197378Y-104188039D01*
X130629093Y-104075000D01*
X130570907Y-104075000D01*
X130002622Y-104188039D01*
X129560000Y-104483789D01*
X129560000Y-103514802D01*
X131714802Y-101360000D01*
X136020000Y-101360000D01*
X136310839Y-101302148D01*
X136557401Y-101137401D01*
X139008266Y-98686536D01*
X139090849Y-98741717D01*
X139640000Y-98850950D01*
X140189151Y-98741717D01*
X140654698Y-98430648D01*
X140910000Y-98048562D01*
X141165302Y-98430648D01*
X141630849Y-98741717D01*
X142180000Y-98850950D01*
X142729151Y-98741717D01*
X143194698Y-98430648D01*
X143450000Y-98048562D01*
X143705302Y-98430648D01*
X144170849Y-98741717D01*
X144720000Y-98850950D01*
X145269151Y-98741717D01*
X145734698Y-98430648D01*
X145990000Y-98048562D01*
X146245302Y-98430648D01*
X146710849Y-98741717D01*
X147260000Y-98850950D01*
X147809151Y-98741717D01*
X148274698Y-98430648D01*
X148530000Y-98048562D01*
X148785302Y-98430648D01*
X149250849Y-98741717D01*
X149800000Y-98850950D01*
X150349151Y-98741717D01*
X150814698Y-98430648D01*
X151070000Y-98048562D01*
X151325302Y-98430648D01*
X151790849Y-98741717D01*
X152340000Y-98850950D01*
X152889151Y-98741717D01*
X153354698Y-98430648D01*
X153610000Y-98048562D01*
X153865302Y-98430648D01*
X154330849Y-98741717D01*
X154880000Y-98850950D01*
X155429151Y-98741717D01*
X155894698Y-98430648D01*
X156150000Y-98048562D01*
X156405302Y-98430648D01*
X156870849Y-98741717D01*
X157420000Y-98850950D01*
X157969151Y-98741717D01*
X158434698Y-98430648D01*
X158690000Y-98048562D01*
X158945302Y-98430648D01*
X159410849Y-98741717D01*
X159960000Y-98850950D01*
X160174398Y-98808304D01*
X160306883Y-99128943D01*
X160569673Y-99392192D01*
X160913201Y-99534838D01*
X161285167Y-99535162D01*
X161628943Y-99393117D01*
X161662118Y-99360000D01*
X167220137Y-99360000D01*
X167520853Y-99810054D01*
X167850026Y-100030000D01*
X167520853Y-100249946D01*
X167460681Y-100340000D01*
X156662463Y-100340000D01*
X156630327Y-100307808D01*
X156286799Y-100165162D01*
X155914833Y-100164838D01*
X155571057Y-100306883D01*
X155307808Y-100569673D01*
X155165162Y-100913201D01*
X155164838Y-101285167D01*
X155306883Y-101628943D01*
X155517572Y-101840000D01*
X151800000Y-101840000D01*
X151509161Y-101897852D01*
X151262599Y-102062599D01*
X150431734Y-102893464D01*
X150349151Y-102838283D01*
X149800000Y-102729050D01*
X149250849Y-102838283D01*
X148785302Y-103149352D01*
X148530000Y-103531438D01*
X148274698Y-103149352D01*
X147809151Y-102838283D01*
X147260000Y-102729050D01*
X146710849Y-102838283D01*
X146245302Y-103149352D01*
X145990000Y-103531438D01*
X145734698Y-103149352D01*
X145269151Y-102838283D01*
X144720000Y-102729050D01*
X144170849Y-102838283D01*
X143705302Y-103149352D01*
X143450000Y-103531438D01*
X143194698Y-103149352D01*
X142729151Y-102838283D01*
X142180000Y-102729050D01*
X141630849Y-102838283D01*
X141165302Y-103149352D01*
X140910000Y-103531438D01*
X140654698Y-103149352D01*
X140189151Y-102838283D01*
X139640000Y-102729050D01*
X139090849Y-102838283D01*
X138625302Y-103149352D01*
X138527749Y-103295350D01*
X138503162Y-103164683D01*
X138364090Y-102948559D01*
X138151890Y-102803569D01*
X137900000Y-102752560D01*
X136300000Y-102752560D01*
X136064683Y-102796838D01*
X135848559Y-102935910D01*
X135703569Y-103148110D01*
X135652560Y-103400000D01*
X135652560Y-105800000D01*
X135696838Y-106035317D01*
X135835910Y-106251441D01*
X136048110Y-106396431D01*
X136300000Y-106447440D01*
X137900000Y-106447440D01*
X138135317Y-106403162D01*
X138351441Y-106264090D01*
X138496431Y-106051890D01*
X138526597Y-105902926D01*
X138625302Y-106050648D01*
X139090849Y-106361717D01*
X139640000Y-106470950D01*
X140189151Y-106361717D01*
X140654698Y-106050648D01*
X140910000Y-105668562D01*
X141165302Y-106050648D01*
X141630849Y-106361717D01*
X142180000Y-106470950D01*
X142729151Y-106361717D01*
X143194698Y-106050648D01*
X143450000Y-105668562D01*
X143705302Y-106050648D01*
X144170849Y-106361717D01*
X144720000Y-106470950D01*
X145269151Y-106361717D01*
X145734698Y-106050648D01*
X145990000Y-105668562D01*
X146245302Y-106050648D01*
X146710849Y-106361717D01*
X147260000Y-106470950D01*
X147809151Y-106361717D01*
X148274698Y-106050648D01*
X148530000Y-105668562D01*
X148611310Y-105790251D01*
X148571057Y-105806883D01*
X148307808Y-106069673D01*
X148165162Y-106413201D01*
X148164838Y-106785167D01*
X148306883Y-107128943D01*
X148569673Y-107392192D01*
X148913201Y-107534838D01*
X149285167Y-107535162D01*
X149628943Y-107393117D01*
X149662118Y-107360000D01*
X167474045Y-107360000D01*
X167520853Y-107430054D01*
X168002622Y-107751961D01*
X168570907Y-107865000D01*
X168629093Y-107865000D01*
X169197378Y-107751961D01*
X169577814Y-107497762D01*
X169499457Y-117292410D01*
X169125880Y-116918181D01*
X168396573Y-116615346D01*
X167606891Y-116614657D01*
X166877057Y-116916218D01*
X166318181Y-117474120D01*
X166015346Y-118203427D01*
X166014657Y-118993109D01*
X166316218Y-119722943D01*
X166874120Y-120281819D01*
X167334535Y-120473000D01*
X156487797Y-120473000D01*
X156671961Y-120197378D01*
X156785000Y-119629093D01*
X156785000Y-119570907D01*
X156671961Y-119002622D01*
X156350054Y-118520853D01*
X155868285Y-118198946D01*
X155300000Y-118085907D01*
X154731715Y-118198946D01*
X154249946Y-118520853D01*
X154030000Y-118850026D01*
X153810054Y-118520853D01*
X153328285Y-118198946D01*
X152760000Y-118085907D01*
X152191715Y-118198946D01*
X151709946Y-118520853D01*
X151490000Y-118850026D01*
X151270054Y-118520853D01*
X150788285Y-118198946D01*
X150220000Y-118085907D01*
X149651715Y-118198946D01*
X149169946Y-118520853D01*
X148942298Y-118861553D01*
X148875183Y-118718642D01*
X148446924Y-118328355D01*
X148036890Y-118158524D01*
X147807000Y-118279845D01*
X147807000Y-119473000D01*
X147827000Y-119473000D01*
X147827000Y-119727000D01*
X147807000Y-119727000D01*
X147807000Y-119747000D01*
X147553000Y-119747000D01*
X147553000Y-119727000D01*
X147533000Y-119727000D01*
X147533000Y-119473000D01*
X147553000Y-119473000D01*
X147553000Y-118279845D01*
X147323110Y-118158524D01*
X146913076Y-118328355D01*
X146484817Y-118718642D01*
X146417702Y-118861553D01*
X146190054Y-118520853D01*
X145708285Y-118198946D01*
X145140000Y-118085907D01*
X144773592Y-118158790D01*
X138177401Y-111562599D01*
X137930839Y-111397852D01*
X137640000Y-111340000D01*
X132097440Y-111340000D01*
X132097440Y-111250000D01*
X132053162Y-111014683D01*
X131914090Y-110798559D01*
X131701890Y-110653569D01*
X131450000Y-110602560D01*
X129750000Y-110602560D01*
X129514683Y-110646838D01*
X129298559Y-110785910D01*
X129153569Y-110998110D01*
X129102560Y-111250000D01*
X129102560Y-112950000D01*
X129146838Y-113185317D01*
X129285910Y-113401441D01*
X129498110Y-113546431D01*
X129565541Y-113560086D01*
X129520853Y-113589946D01*
X129198946Y-114071715D01*
X129085907Y-114640000D01*
X129198946Y-115208285D01*
X129520853Y-115690054D01*
X130002622Y-116011961D01*
X130570907Y-116125000D01*
X130629093Y-116125000D01*
X131197378Y-116011961D01*
X131679147Y-115690054D01*
X132001054Y-115208285D01*
X132114093Y-114640000D01*
X132001054Y-114071715D01*
X131679147Y-113589946D01*
X131637548Y-113562150D01*
X131685317Y-113553162D01*
X131901441Y-113414090D01*
X132046431Y-113201890D01*
X132097440Y-112950000D01*
X132097440Y-112860000D01*
X137325198Y-112860000D01*
X142567758Y-118102560D01*
X141750000Y-118102560D01*
X141514683Y-118146838D01*
X141298559Y-118285910D01*
X141153569Y-118498110D01*
X141102560Y-118750000D01*
X141102560Y-120450000D01*
X141106888Y-120473000D01*
X109227000Y-120473000D01*
X109227000Y-118822981D01*
X109516218Y-119522943D01*
X110074120Y-120081819D01*
X110803427Y-120384654D01*
X111593109Y-120385343D01*
X112322943Y-120083782D01*
X112881819Y-119525880D01*
X113068210Y-119077000D01*
X118965000Y-119077000D01*
X118965000Y-119352000D01*
X119099998Y-119776678D01*
X119387237Y-120117368D01*
X119798126Y-120319119D01*
X119973000Y-120192954D01*
X119973000Y-119077000D01*
X120227000Y-119077000D01*
X120227000Y-120192954D01*
X120401874Y-120319119D01*
X120812763Y-120117368D01*
X121100002Y-119776678D01*
X121235000Y-119352000D01*
X121235000Y-119077000D01*
X125965000Y-119077000D01*
X125965000Y-119352000D01*
X126099998Y-119776678D01*
X126387237Y-120117368D01*
X126798126Y-120319119D01*
X126973000Y-120192954D01*
X126973000Y-119077000D01*
X127227000Y-119077000D01*
X127227000Y-120192954D01*
X127401874Y-120319119D01*
X127812763Y-120117368D01*
X128100002Y-119776678D01*
X128235000Y-119352000D01*
X128235000Y-119077000D01*
X127227000Y-119077000D01*
X126973000Y-119077000D01*
X125965000Y-119077000D01*
X121235000Y-119077000D01*
X120227000Y-119077000D01*
X119973000Y-119077000D01*
X118965000Y-119077000D01*
X113068210Y-119077000D01*
X113184654Y-118796573D01*
X113184870Y-118548000D01*
X118965000Y-118548000D01*
X118965000Y-118823000D01*
X119973000Y-118823000D01*
X119973000Y-117707046D01*
X120227000Y-117707046D01*
X120227000Y-118823000D01*
X121235000Y-118823000D01*
X121235000Y-118548000D01*
X125965000Y-118548000D01*
X125965000Y-118823000D01*
X126973000Y-118823000D01*
X126973000Y-117707046D01*
X127227000Y-117707046D01*
X127227000Y-118823000D01*
X128235000Y-118823000D01*
X128235000Y-118548000D01*
X128100002Y-118123322D01*
X127812763Y-117782632D01*
X127401874Y-117580881D01*
X127227000Y-117707046D01*
X126973000Y-117707046D01*
X126798126Y-117580881D01*
X126387237Y-117782632D01*
X126099998Y-118123322D01*
X125965000Y-118548000D01*
X121235000Y-118548000D01*
X121100002Y-118123322D01*
X120812763Y-117782632D01*
X120401874Y-117580881D01*
X120227000Y-117707046D01*
X119973000Y-117707046D01*
X119798126Y-117580881D01*
X119387237Y-117782632D01*
X119099998Y-118123322D01*
X118965000Y-118548000D01*
X113184870Y-118548000D01*
X113185343Y-118006891D01*
X112883782Y-117277057D01*
X112325880Y-116718181D01*
X111915890Y-116547938D01*
X119880732Y-116547938D01*
X120064448Y-116921821D01*
X120388951Y-117209568D01*
X120798869Y-117351229D01*
X120973000Y-117202563D01*
X120973000Y-116377000D01*
X121227000Y-116377000D01*
X121227000Y-117202563D01*
X121401131Y-117351229D01*
X121811049Y-117209568D01*
X122135552Y-116921821D01*
X122319268Y-116547938D01*
X124880732Y-116547938D01*
X125064448Y-116921821D01*
X125388951Y-117209568D01*
X125798869Y-117351229D01*
X125973000Y-117202563D01*
X125973000Y-116377000D01*
X126227000Y-116377000D01*
X126227000Y-117202563D01*
X126401131Y-117351229D01*
X126811049Y-117209568D01*
X127135552Y-116921821D01*
X127319268Y-116547938D01*
X127192734Y-116377000D01*
X126227000Y-116377000D01*
X125973000Y-116377000D01*
X125007266Y-116377000D01*
X124880732Y-116547938D01*
X122319268Y-116547938D01*
X122192734Y-116377000D01*
X121227000Y-116377000D01*
X120973000Y-116377000D01*
X120007266Y-116377000D01*
X119880732Y-116547938D01*
X111915890Y-116547938D01*
X111596573Y-116415346D01*
X110806891Y-116414657D01*
X110077057Y-116716218D01*
X109518181Y-117274120D01*
X109227000Y-117975361D01*
X109227000Y-115952062D01*
X119880732Y-115952062D01*
X120007266Y-116123000D01*
X120973000Y-116123000D01*
X120973000Y-115297437D01*
X121227000Y-115297437D01*
X121227000Y-116123000D01*
X122192734Y-116123000D01*
X122319268Y-115952062D01*
X124880732Y-115952062D01*
X125007266Y-116123000D01*
X125973000Y-116123000D01*
X125973000Y-115297437D01*
X126227000Y-115297437D01*
X126227000Y-116123000D01*
X127192734Y-116123000D01*
X127319268Y-115952062D01*
X127135552Y-115578179D01*
X126811049Y-115290432D01*
X126401131Y-115148771D01*
X126227000Y-115297437D01*
X125973000Y-115297437D01*
X125798869Y-115148771D01*
X125388951Y-115290432D01*
X125064448Y-115578179D01*
X124880732Y-115952062D01*
X122319268Y-115952062D01*
X122135552Y-115578179D01*
X121811049Y-115290432D01*
X121401131Y-115148771D01*
X121227000Y-115297437D01*
X120973000Y-115297437D01*
X120798869Y-115148771D01*
X120388951Y-115290432D01*
X120064448Y-115578179D01*
X119880732Y-115952062D01*
X109227000Y-115952062D01*
X109227000Y-102060000D01*
X109585907Y-102060000D01*
X109698946Y-102628285D01*
X110020853Y-103110054D01*
X110062452Y-103137850D01*
X110014683Y-103146838D01*
X109798559Y-103285910D01*
X109653569Y-103498110D01*
X109602560Y-103750000D01*
X109602560Y-105450000D01*
X109646838Y-105685317D01*
X109785910Y-105901441D01*
X109998110Y-106046431D01*
X110250000Y-106097440D01*
X111950000Y-106097440D01*
X112185317Y-106053162D01*
X112401441Y-105914090D01*
X112546431Y-105701890D01*
X112597440Y-105450000D01*
X112597440Y-104632242D01*
X114164912Y-106199714D01*
X114164838Y-106285167D01*
X114306883Y-106628943D01*
X114569673Y-106892192D01*
X114913201Y-107034838D01*
X115285167Y-107035162D01*
X115628943Y-106893117D01*
X115892192Y-106630327D01*
X116034838Y-106286799D01*
X116035162Y-105914833D01*
X115893117Y-105571057D01*
X115657348Y-105334876D01*
X115985167Y-105335162D01*
X116328943Y-105193117D01*
X116592192Y-104930327D01*
X116734838Y-104586799D01*
X116735162Y-104214833D01*
X116593117Y-103871057D01*
X116330327Y-103607808D01*
X115986799Y-103465162D01*
X115614833Y-103464838D01*
X115271057Y-103606883D01*
X115007808Y-103869673D01*
X114865162Y-104213201D01*
X114864838Y-104585167D01*
X114980927Y-104866125D01*
X112541210Y-102426408D01*
X112614093Y-102060000D01*
X112501054Y-101491715D01*
X112179147Y-101009946D01*
X111838447Y-100782298D01*
X111981358Y-100715183D01*
X112371645Y-100286924D01*
X112541476Y-99876890D01*
X112420155Y-99647000D01*
X111227000Y-99647000D01*
X111227000Y-99667000D01*
X110973000Y-99667000D01*
X110973000Y-99647000D01*
X109779845Y-99647000D01*
X109658524Y-99876890D01*
X109828355Y-100286924D01*
X110218642Y-100715183D01*
X110361553Y-100782298D01*
X110020853Y-101009946D01*
X109698946Y-101491715D01*
X109585907Y-102060000D01*
X109227000Y-102060000D01*
X109227000Y-99163110D01*
X109658524Y-99163110D01*
X109779845Y-99393000D01*
X110973000Y-99393000D01*
X110973000Y-98199181D01*
X111227000Y-98199181D01*
X111227000Y-99393000D01*
X112420155Y-99393000D01*
X112541476Y-99163110D01*
X112371645Y-98753076D01*
X111981358Y-98324817D01*
X111456892Y-98078514D01*
X111227000Y-98199181D01*
X110973000Y-98199181D01*
X110743108Y-98078514D01*
X110218642Y-98324817D01*
X109828355Y-98753076D01*
X109658524Y-99163110D01*
X109227000Y-99163110D01*
X109227000Y-96453000D01*
X135665000Y-96453000D01*
X135665000Y-96853000D01*
X136973000Y-96853000D01*
X136973000Y-95310085D01*
X136750961Y-95188096D01*
X136668181Y-95205633D01*
X136175104Y-95475500D01*
X135822834Y-95913517D01*
X135665000Y-96453000D01*
X109227000Y-96453000D01*
X109227000Y-87623690D01*
X167115000Y-87623690D01*
X167115000Y-88314250D01*
X167273750Y-88473000D01*
X168473000Y-88473000D01*
X168473000Y-87273750D01*
X168314250Y-87115000D01*
X167623691Y-87115000D01*
X167390302Y-87211673D01*
X167211673Y-87390301D01*
X167115000Y-87623690D01*
X109227000Y-87623690D01*
X109227000Y-85996890D01*
X110158524Y-85996890D01*
X110328355Y-86406924D01*
X110718642Y-86835183D01*
X111243108Y-87081486D01*
X111473000Y-86960819D01*
X111473000Y-85767000D01*
X111727000Y-85767000D01*
X111727000Y-86960819D01*
X111956892Y-87081486D01*
X112481358Y-86835183D01*
X112871645Y-86406924D01*
X113041476Y-85996890D01*
X112920155Y-85767000D01*
X111727000Y-85767000D01*
X111473000Y-85767000D01*
X110279845Y-85767000D01*
X110158524Y-85996890D01*
X109227000Y-85996890D01*
X109227000Y-83385750D01*
X110115000Y-83385750D01*
X110115000Y-84076310D01*
X110211673Y-84309699D01*
X110390302Y-84488327D01*
X110599878Y-84575136D01*
X110328355Y-84873076D01*
X110158524Y-85283110D01*
X110279845Y-85513000D01*
X111473000Y-85513000D01*
X111473000Y-83227000D01*
X111727000Y-83227000D01*
X111727000Y-85513000D01*
X112920155Y-85513000D01*
X113041476Y-85283110D01*
X112871645Y-84873076D01*
X112600122Y-84575136D01*
X112809698Y-84488327D01*
X112988327Y-84309699D01*
X113085000Y-84076310D01*
X113085000Y-83385750D01*
X112926250Y-83227000D01*
X111727000Y-83227000D01*
X111473000Y-83227000D01*
X110273750Y-83227000D01*
X110115000Y-83385750D01*
X109227000Y-83385750D01*
X109227000Y-82123690D01*
X110115000Y-82123690D01*
X110115000Y-82814250D01*
X110273750Y-82973000D01*
X111473000Y-82973000D01*
X111473000Y-81773750D01*
X111727000Y-81773750D01*
X111727000Y-82973000D01*
X112926250Y-82973000D01*
X113085000Y-82814250D01*
X113085000Y-82123690D01*
X112988327Y-81890301D01*
X112809698Y-81711673D01*
X112576309Y-81615000D01*
X111885750Y-81615000D01*
X111727000Y-81773750D01*
X111473000Y-81773750D01*
X111314250Y-81615000D01*
X110623691Y-81615000D01*
X110390302Y-81711673D01*
X110211673Y-81890301D01*
X110115000Y-82123690D01*
X109227000Y-82123690D01*
X109227000Y-80785167D01*
X139164838Y-80785167D01*
X139306883Y-81128943D01*
X139569673Y-81392192D01*
X139913201Y-81534838D01*
X140285167Y-81535162D01*
X140628943Y-81393117D01*
X140892192Y-81130327D01*
X140947600Y-80996890D01*
X167158524Y-80996890D01*
X167328355Y-81406924D01*
X167718642Y-81835183D01*
X168243108Y-82081486D01*
X168473000Y-81960819D01*
X168473000Y-80767000D01*
X167279845Y-80767000D01*
X167158524Y-80996890D01*
X140947600Y-80996890D01*
X140967672Y-80948552D01*
X142416224Y-79500000D01*
X142893863Y-79500000D01*
X143020853Y-79690054D01*
X143502622Y-80011961D01*
X144070907Y-80125000D01*
X144129093Y-80125000D01*
X144697378Y-80011961D01*
X145179147Y-79690054D01*
X145501054Y-79208285D01*
X145614093Y-78640000D01*
X145563520Y-78385750D01*
X167115000Y-78385750D01*
X167115000Y-79076310D01*
X167211673Y-79309699D01*
X167390302Y-79488327D01*
X167599878Y-79575136D01*
X167328355Y-79873076D01*
X167158524Y-80283110D01*
X167279845Y-80513000D01*
X168473000Y-80513000D01*
X168473000Y-78227000D01*
X167273750Y-78227000D01*
X167115000Y-78385750D01*
X145563520Y-78385750D01*
X145501054Y-78071715D01*
X145179147Y-77589946D01*
X145137548Y-77562150D01*
X145185317Y-77553162D01*
X145401441Y-77414090D01*
X145546431Y-77201890D01*
X145562266Y-77123690D01*
X167115000Y-77123690D01*
X167115000Y-77814250D01*
X167273750Y-77973000D01*
X168473000Y-77973000D01*
X168473000Y-76773750D01*
X168314250Y-76615000D01*
X167623691Y-76615000D01*
X167390302Y-76711673D01*
X167211673Y-76890301D01*
X167115000Y-77123690D01*
X145562266Y-77123690D01*
X145597440Y-76950000D01*
X145597440Y-75250000D01*
X145553162Y-75014683D01*
X145414090Y-74798559D01*
X145201890Y-74653569D01*
X144950000Y-74602560D01*
X143250000Y-74602560D01*
X143014683Y-74646838D01*
X142798559Y-74785910D01*
X142653569Y-74998110D01*
X142602560Y-75250000D01*
X142602560Y-76950000D01*
X142646838Y-77185317D01*
X142785910Y-77401441D01*
X142998110Y-77546431D01*
X143065541Y-77560086D01*
X143020853Y-77589946D01*
X142893863Y-77780000D01*
X142060005Y-77780000D01*
X142060000Y-77779999D01*
X141730893Y-77845463D01*
X141451888Y-78031888D01*
X139751415Y-79732361D01*
X139571057Y-79806883D01*
X139307808Y-80069673D01*
X139165162Y-80413201D01*
X139164838Y-80785167D01*
X109227000Y-80785167D01*
X109227000Y-76950000D01*
X116702560Y-76950000D01*
X116702560Y-78650000D01*
X116746838Y-78885317D01*
X116885910Y-79101441D01*
X117098110Y-79246431D01*
X117350000Y-79297440D01*
X119050000Y-79297440D01*
X119285317Y-79253162D01*
X119501441Y-79114090D01*
X119646431Y-78901890D01*
X119660086Y-78834459D01*
X119689946Y-78879147D01*
X120171715Y-79201054D01*
X120740000Y-79314093D01*
X121308285Y-79201054D01*
X121790054Y-78879147D01*
X122111961Y-78397378D01*
X122225000Y-77829093D01*
X122225000Y-77770907D01*
X122111961Y-77202622D01*
X121790054Y-76720853D01*
X121308285Y-76398946D01*
X120740000Y-76285907D01*
X120171715Y-76398946D01*
X119689946Y-76720853D01*
X119662150Y-76762452D01*
X119653162Y-76714683D01*
X119514090Y-76498559D01*
X119301890Y-76353569D01*
X119050000Y-76302560D01*
X117350000Y-76302560D01*
X117114683Y-76346838D01*
X116898559Y-76485910D01*
X116753569Y-76698110D01*
X116702560Y-76950000D01*
X109227000Y-76950000D01*
X109227000Y-74140000D01*
X110085907Y-74140000D01*
X110198946Y-74708285D01*
X110520853Y-75190054D01*
X111002622Y-75511961D01*
X111570907Y-75625000D01*
X111629093Y-75625000D01*
X112197378Y-75511961D01*
X112679147Y-75190054D01*
X113001054Y-74708285D01*
X113114093Y-74140000D01*
X113001054Y-73571715D01*
X112679147Y-73089946D01*
X112637548Y-73062150D01*
X112685317Y-73053162D01*
X112901441Y-72914090D01*
X113046431Y-72701890D01*
X113097440Y-72450000D01*
X113097440Y-70750000D01*
X113053162Y-70514683D01*
X112914090Y-70298559D01*
X112701890Y-70153569D01*
X112450000Y-70102560D01*
X110750000Y-70102560D01*
X110514683Y-70146838D01*
X110298559Y-70285910D01*
X110153569Y-70498110D01*
X110102560Y-70750000D01*
X110102560Y-72450000D01*
X110146838Y-72685317D01*
X110285910Y-72901441D01*
X110498110Y-73046431D01*
X110565541Y-73060086D01*
X110520853Y-73089946D01*
X110198946Y-73571715D01*
X110085907Y-74140000D01*
X109227000Y-74140000D01*
X109227000Y-60622981D01*
X109516218Y-61322943D01*
X110074120Y-61881819D01*
X110803427Y-62184654D01*
X111593109Y-62185343D01*
X112322943Y-61883782D01*
X112881819Y-61325880D01*
X113184654Y-60596573D01*
X113185343Y-59806891D01*
X112883782Y-59077057D01*
X112325880Y-58518181D01*
X111624639Y-58227000D01*
X167577019Y-58227000D01*
X166877057Y-58516218D01*
X166877057Y-58516218D01*
G37*
X166877057Y-58516218D02*
X166318181Y-59074120D01*
X166015346Y-59803427D01*
X166014657Y-60593109D01*
X166316218Y-61322943D01*
X166874120Y-61881819D01*
X167603427Y-62184654D01*
X168393109Y-62185343D01*
X169122943Y-61883782D01*
X169681819Y-61325880D01*
X169952402Y-60674244D01*
X169911422Y-65796736D01*
X169701890Y-65653569D01*
X169450000Y-65602560D01*
X167750000Y-65602560D01*
X167514683Y-65646838D01*
X167298559Y-65785910D01*
X167153569Y-65998110D01*
X167102560Y-66250000D01*
X167102560Y-67950000D01*
X167146838Y-68185317D01*
X167285910Y-68401441D01*
X167498110Y-68546431D01*
X167565541Y-68560086D01*
X167520853Y-68589946D01*
X167198946Y-69071715D01*
X167085907Y-69640000D01*
X167198946Y-70208285D01*
X167520853Y-70690054D01*
X168002622Y-71011961D01*
X168570907Y-71125000D01*
X168629093Y-71125000D01*
X169197378Y-71011961D01*
X169679147Y-70690054D01*
X169874616Y-70397513D01*
X169823988Y-76725963D01*
X169809698Y-76711673D01*
X169576309Y-76615000D01*
X168885750Y-76615000D01*
X168727000Y-76773750D01*
X168727000Y-77973000D01*
X168747000Y-77973000D01*
X168747000Y-78227000D01*
X168727000Y-78227000D01*
X168727000Y-80513000D01*
X168747000Y-80513000D01*
X168747000Y-80767000D01*
X168727000Y-80767000D01*
X168727000Y-81960819D01*
X168956892Y-82081486D01*
X169481358Y-81835183D01*
X169785787Y-81501135D01*
X169740332Y-87182941D01*
X169576309Y-87115000D01*
X168885750Y-87115000D01*
X168727000Y-87273750D01*
X168727000Y-88473000D01*
X168747000Y-88473000D01*
X168747000Y-88727000D01*
X168727000Y-88727000D01*
X168727000Y-88747000D01*
X168473000Y-88747000D01*
X168473000Y-88727000D01*
X167273750Y-88727000D01*
X167115000Y-88885750D01*
X167115000Y-89576310D01*
X167211673Y-89809699D01*
X167390302Y-89988327D01*
X167564777Y-90060597D01*
X167520853Y-90089946D01*
X167198946Y-90571715D01*
X167085907Y-91140000D01*
X167198946Y-91708285D01*
X167520853Y-92190054D01*
X167850026Y-92410000D01*
X167520853Y-92629946D01*
X167198946Y-93111715D01*
X167085907Y-93680000D01*
X167198946Y-94248285D01*
X167520853Y-94730054D01*
X167850026Y-94950000D01*
X167520853Y-95169946D01*
X167198946Y-95651715D01*
X167085907Y-96220000D01*
X167198946Y-96788285D01*
X167520853Y-97270054D01*
X167850026Y-97490000D01*
X167520853Y-97709946D01*
X167433954Y-97840000D01*
X161662463Y-97840000D01*
X161630327Y-97807808D01*
X161340956Y-97687650D01*
X161395000Y-97415950D01*
X161395000Y-96544050D01*
X161285767Y-95994899D01*
X160974698Y-95529352D01*
X160509151Y-95218283D01*
X159960000Y-95109050D01*
X159410849Y-95218283D01*
X158945302Y-95529352D01*
X158690000Y-95911438D01*
X158434698Y-95529352D01*
X157969151Y-95218283D01*
X157420000Y-95109050D01*
X156870849Y-95218283D01*
X156405302Y-95529352D01*
X156150000Y-95911438D01*
X155894698Y-95529352D01*
X155429151Y-95218283D01*
X154880000Y-95109050D01*
X154330849Y-95218283D01*
X153865302Y-95529352D01*
X153610000Y-95911438D01*
X153354698Y-95529352D01*
X152889151Y-95218283D01*
X152340000Y-95109050D01*
X151790849Y-95218283D01*
X151325302Y-95529352D01*
X151070000Y-95911438D01*
X150814698Y-95529352D01*
X150349151Y-95218283D01*
X149800000Y-95109050D01*
X149250849Y-95218283D01*
X148785302Y-95529352D01*
X148530000Y-95911438D01*
X148274698Y-95529352D01*
X147809151Y-95218283D01*
X147260000Y-95109050D01*
X146710849Y-95218283D01*
X146245302Y-95529352D01*
X145990000Y-95911438D01*
X145734698Y-95529352D01*
X145269151Y-95218283D01*
X144720000Y-95109050D01*
X144170849Y-95218283D01*
X143705302Y-95529352D01*
X143450000Y-95911438D01*
X143194698Y-95529352D01*
X142729151Y-95218283D01*
X142180000Y-95109050D01*
X141630849Y-95218283D01*
X141165302Y-95529352D01*
X140910000Y-95911438D01*
X140654698Y-95529352D01*
X140189151Y-95218283D01*
X139640000Y-95109050D01*
X139090849Y-95218283D01*
X138625302Y-95529352D01*
X138372493Y-95907707D01*
X138024896Y-95475500D01*
X137531819Y-95205633D01*
X137449039Y-95188096D01*
X137227000Y-95310085D01*
X137227000Y-96853000D01*
X137247000Y-96853000D01*
X137247000Y-97107000D01*
X137227000Y-97107000D01*
X137227000Y-97127000D01*
X136973000Y-97127000D01*
X136973000Y-97107000D01*
X135665000Y-97107000D01*
X135665000Y-97507000D01*
X135822834Y-98046483D01*
X136175104Y-98484500D01*
X136668181Y-98754367D01*
X136750961Y-98771904D01*
X136800524Y-98744674D01*
X135705198Y-99840000D01*
X131400000Y-99840000D01*
X131109160Y-99897852D01*
X130862599Y-100062599D01*
X130469436Y-100455762D01*
X130393117Y-100271057D01*
X130130327Y-100007808D01*
X129786799Y-99865162D01*
X129414833Y-99864838D01*
X129071057Y-100006883D01*
X128807808Y-100269673D01*
X128665162Y-100613201D01*
X128665121Y-100660077D01*
X126262599Y-103062599D01*
X126097852Y-103309161D01*
X126040000Y-103600000D01*
X126040000Y-109037886D01*
X125807808Y-109269673D01*
X125665162Y-109613201D01*
X125664838Y-109985167D01*
X125806883Y-110328943D01*
X126069673Y-110592192D01*
X126255743Y-110669455D01*
X123460320Y-113464878D01*
X123414833Y-113464838D01*
X123071057Y-113606883D01*
X122807808Y-113869673D01*
X122665162Y-114213201D01*
X122664838Y-114585167D01*
X122806883Y-114928943D01*
X123069673Y-115192192D01*
X123413201Y-115334838D01*
X123785167Y-115335162D01*
X124128943Y-115193117D01*
X124392192Y-114930327D01*
X124534838Y-114586799D01*
X124534879Y-114539923D01*
X129337401Y-109737401D01*
X129475380Y-109530900D01*
X129498110Y-109546431D01*
X129750000Y-109597440D01*
X131450000Y-109597440D01*
X131685317Y-109553162D01*
X131901441Y-109414090D01*
X132046431Y-109201890D01*
X132097440Y-108950000D01*
X132097440Y-107250000D01*
X132053162Y-107014683D01*
X131914090Y-106798559D01*
X131701890Y-106653569D01*
X131634459Y-106639914D01*
X131679147Y-106610054D01*
X132001054Y-106128285D01*
X132114093Y-105560000D01*
X132001054Y-104991715D01*
X131679147Y-104509946D01*
X131197378Y-104188039D01*
X130629093Y-104075000D01*
X130570907Y-104075000D01*
X130002622Y-104188039D01*
X129560000Y-104483789D01*
X129560000Y-103514802D01*
X131714802Y-101360000D01*
X136020000Y-101360000D01*
X136310839Y-101302148D01*
X136557401Y-101137401D01*
X139008266Y-98686536D01*
X139090849Y-98741717D01*
X139640000Y-98850950D01*
X140189151Y-98741717D01*
X140654698Y-98430648D01*
X140910000Y-98048562D01*
X141165302Y-98430648D01*
X141630849Y-98741717D01*
X142180000Y-98850950D01*
X142729151Y-98741717D01*
X143194698Y-98430648D01*
X143450000Y-98048562D01*
X143705302Y-98430648D01*
X144170849Y-98741717D01*
X144720000Y-98850950D01*
X145269151Y-98741717D01*
X145734698Y-98430648D01*
X145990000Y-98048562D01*
X146245302Y-98430648D01*
X146710849Y-98741717D01*
X147260000Y-98850950D01*
X147809151Y-98741717D01*
X148274698Y-98430648D01*
X148530000Y-98048562D01*
X148785302Y-98430648D01*
X149250849Y-98741717D01*
X149800000Y-98850950D01*
X150349151Y-98741717D01*
X150814698Y-98430648D01*
X151070000Y-98048562D01*
X151325302Y-98430648D01*
X151790849Y-98741717D01*
X152340000Y-98850950D01*
X152889151Y-98741717D01*
X153354698Y-98430648D01*
X153610000Y-98048562D01*
X153865302Y-98430648D01*
X154330849Y-98741717D01*
X154880000Y-98850950D01*
X155429151Y-98741717D01*
X155894698Y-98430648D01*
X156150000Y-98048562D01*
X156405302Y-98430648D01*
X156870849Y-98741717D01*
X157420000Y-98850950D01*
X157969151Y-98741717D01*
X158434698Y-98430648D01*
X158690000Y-98048562D01*
X158945302Y-98430648D01*
X159410849Y-98741717D01*
X159960000Y-98850950D01*
X160174398Y-98808304D01*
X160306883Y-99128943D01*
X160569673Y-99392192D01*
X160913201Y-99534838D01*
X161285167Y-99535162D01*
X161628943Y-99393117D01*
X161662118Y-99360000D01*
X167220137Y-99360000D01*
X167520853Y-99810054D01*
X167850026Y-100030000D01*
X167520853Y-100249946D01*
X167460681Y-100340000D01*
X156662463Y-100340000D01*
X156630327Y-100307808D01*
X156286799Y-100165162D01*
X155914833Y-100164838D01*
X155571057Y-100306883D01*
X155307808Y-100569673D01*
X155165162Y-100913201D01*
X155164838Y-101285167D01*
X155306883Y-101628943D01*
X155517572Y-101840000D01*
X151800000Y-101840000D01*
X151509161Y-101897852D01*
X151262599Y-102062599D01*
X150431734Y-102893464D01*
X150349151Y-102838283D01*
X149800000Y-102729050D01*
X149250849Y-102838283D01*
X148785302Y-103149352D01*
X148530000Y-103531438D01*
X148274698Y-103149352D01*
X147809151Y-102838283D01*
X147260000Y-102729050D01*
X146710849Y-102838283D01*
X146245302Y-103149352D01*
X145990000Y-103531438D01*
X145734698Y-103149352D01*
X145269151Y-102838283D01*
X144720000Y-102729050D01*
X144170849Y-102838283D01*
X143705302Y-103149352D01*
X143450000Y-103531438D01*
X143194698Y-103149352D01*
X142729151Y-102838283D01*
X142180000Y-102729050D01*
X141630849Y-102838283D01*
X141165302Y-103149352D01*
X140910000Y-103531438D01*
X140654698Y-103149352D01*
X140189151Y-102838283D01*
X139640000Y-102729050D01*
X139090849Y-102838283D01*
X138625302Y-103149352D01*
X138527749Y-103295350D01*
X138503162Y-103164683D01*
X138364090Y-102948559D01*
X138151890Y-102803569D01*
X137900000Y-102752560D01*
X136300000Y-102752560D01*
X136064683Y-102796838D01*
X135848559Y-102935910D01*
X135703569Y-103148110D01*
X135652560Y-103400000D01*
X135652560Y-105800000D01*
X135696838Y-106035317D01*
X135835910Y-106251441D01*
X136048110Y-106396431D01*
X136300000Y-106447440D01*
X137900000Y-106447440D01*
X138135317Y-106403162D01*
X138351441Y-106264090D01*
X138496431Y-106051890D01*
X138526597Y-105902926D01*
X138625302Y-106050648D01*
X139090849Y-106361717D01*
X139640000Y-106470950D01*
X140189151Y-106361717D01*
X140654698Y-106050648D01*
X140910000Y-105668562D01*
X141165302Y-106050648D01*
X141630849Y-106361717D01*
X142180000Y-106470950D01*
X142729151Y-106361717D01*
X143194698Y-106050648D01*
X143450000Y-105668562D01*
X143705302Y-106050648D01*
X144170849Y-106361717D01*
X144720000Y-106470950D01*
X145269151Y-106361717D01*
X145734698Y-106050648D01*
X145990000Y-105668562D01*
X146245302Y-106050648D01*
X146710849Y-106361717D01*
X147260000Y-106470950D01*
X147809151Y-106361717D01*
X148274698Y-106050648D01*
X148530000Y-105668562D01*
X148611310Y-105790251D01*
X148571057Y-105806883D01*
X148307808Y-106069673D01*
X148165162Y-106413201D01*
X148164838Y-106785167D01*
X148306883Y-107128943D01*
X148569673Y-107392192D01*
X148913201Y-107534838D01*
X149285167Y-107535162D01*
X149628943Y-107393117D01*
X149662118Y-107360000D01*
X167474045Y-107360000D01*
X167520853Y-107430054D01*
X168002622Y-107751961D01*
X168570907Y-107865000D01*
X168629093Y-107865000D01*
X169197378Y-107751961D01*
X169577814Y-107497762D01*
X169499457Y-117292410D01*
X169125880Y-116918181D01*
X168396573Y-116615346D01*
X167606891Y-116614657D01*
X166877057Y-116916218D01*
X166318181Y-117474120D01*
X166015346Y-118203427D01*
X166014657Y-118993109D01*
X166316218Y-119722943D01*
X166874120Y-120281819D01*
X167334535Y-120473000D01*
X156487797Y-120473000D01*
X156671961Y-120197378D01*
X156785000Y-119629093D01*
X156785000Y-119570907D01*
X156671961Y-119002622D01*
X156350054Y-118520853D01*
X155868285Y-118198946D01*
X155300000Y-118085907D01*
X154731715Y-118198946D01*
X154249946Y-118520853D01*
X154030000Y-118850026D01*
X153810054Y-118520853D01*
X153328285Y-118198946D01*
X152760000Y-118085907D01*
X152191715Y-118198946D01*
X151709946Y-118520853D01*
X151490000Y-118850026D01*
X151270054Y-118520853D01*
X150788285Y-118198946D01*
X150220000Y-118085907D01*
X149651715Y-118198946D01*
X149169946Y-118520853D01*
X148942298Y-118861553D01*
X148875183Y-118718642D01*
X148446924Y-118328355D01*
X148036890Y-118158524D01*
X147807000Y-118279845D01*
X147807000Y-119473000D01*
X147827000Y-119473000D01*
X147827000Y-119727000D01*
X147807000Y-119727000D01*
X147807000Y-119747000D01*
X147553000Y-119747000D01*
X147553000Y-119727000D01*
X147533000Y-119727000D01*
X147533000Y-119473000D01*
X147553000Y-119473000D01*
X147553000Y-118279845D01*
X147323110Y-118158524D01*
X146913076Y-118328355D01*
X146484817Y-118718642D01*
X146417702Y-118861553D01*
X146190054Y-118520853D01*
X145708285Y-118198946D01*
X145140000Y-118085907D01*
X144773592Y-118158790D01*
X138177401Y-111562599D01*
X137930839Y-111397852D01*
X137640000Y-111340000D01*
X132097440Y-111340000D01*
X132097440Y-111250000D01*
X132053162Y-111014683D01*
X131914090Y-110798559D01*
X131701890Y-110653569D01*
X131450000Y-110602560D01*
X129750000Y-110602560D01*
X129514683Y-110646838D01*
X129298559Y-110785910D01*
X129153569Y-110998110D01*
X129102560Y-111250000D01*
X129102560Y-112950000D01*
X129146838Y-113185317D01*
X129285910Y-113401441D01*
X129498110Y-113546431D01*
X129565541Y-113560086D01*
X129520853Y-113589946D01*
X129198946Y-114071715D01*
X129085907Y-114640000D01*
X129198946Y-115208285D01*
X129520853Y-115690054D01*
X130002622Y-116011961D01*
X130570907Y-116125000D01*
X130629093Y-116125000D01*
X131197378Y-116011961D01*
X131679147Y-115690054D01*
X132001054Y-115208285D01*
X132114093Y-114640000D01*
X132001054Y-114071715D01*
X131679147Y-113589946D01*
X131637548Y-113562150D01*
X131685317Y-113553162D01*
X131901441Y-113414090D01*
X132046431Y-113201890D01*
X132097440Y-112950000D01*
X132097440Y-112860000D01*
X137325198Y-112860000D01*
X142567758Y-118102560D01*
X141750000Y-118102560D01*
X141514683Y-118146838D01*
X141298559Y-118285910D01*
X141153569Y-118498110D01*
X141102560Y-118750000D01*
X141102560Y-120450000D01*
X141106888Y-120473000D01*
X109227000Y-120473000D01*
X109227000Y-118822981D01*
X109516218Y-119522943D01*
X110074120Y-120081819D01*
X110803427Y-120384654D01*
X111593109Y-120385343D01*
X112322943Y-120083782D01*
X112881819Y-119525880D01*
X113068210Y-119077000D01*
X118965000Y-119077000D01*
X118965000Y-119352000D01*
X119099998Y-119776678D01*
X119387237Y-120117368D01*
X119798126Y-120319119D01*
X119973000Y-120192954D01*
X119973000Y-119077000D01*
X120227000Y-119077000D01*
X120227000Y-120192954D01*
X120401874Y-120319119D01*
X120812763Y-120117368D01*
X121100002Y-119776678D01*
X121235000Y-119352000D01*
X121235000Y-119077000D01*
X125965000Y-119077000D01*
X125965000Y-119352000D01*
X126099998Y-119776678D01*
X126387237Y-120117368D01*
X126798126Y-120319119D01*
X126973000Y-120192954D01*
X126973000Y-119077000D01*
X127227000Y-119077000D01*
X127227000Y-120192954D01*
X127401874Y-120319119D01*
X127812763Y-120117368D01*
X128100002Y-119776678D01*
X128235000Y-119352000D01*
X128235000Y-119077000D01*
X127227000Y-119077000D01*
X126973000Y-119077000D01*
X125965000Y-119077000D01*
X121235000Y-119077000D01*
X120227000Y-119077000D01*
X119973000Y-119077000D01*
X118965000Y-119077000D01*
X113068210Y-119077000D01*
X113184654Y-118796573D01*
X113184870Y-118548000D01*
X118965000Y-118548000D01*
X118965000Y-118823000D01*
X119973000Y-118823000D01*
X119973000Y-117707046D01*
X120227000Y-117707046D01*
X120227000Y-118823000D01*
X121235000Y-118823000D01*
X121235000Y-118548000D01*
X125965000Y-118548000D01*
X125965000Y-118823000D01*
X126973000Y-118823000D01*
X126973000Y-117707046D01*
X127227000Y-117707046D01*
X127227000Y-118823000D01*
X128235000Y-118823000D01*
X128235000Y-118548000D01*
X128100002Y-118123322D01*
X127812763Y-117782632D01*
X127401874Y-117580881D01*
X127227000Y-117707046D01*
X126973000Y-117707046D01*
X126798126Y-117580881D01*
X126387237Y-117782632D01*
X126099998Y-118123322D01*
X125965000Y-118548000D01*
X121235000Y-118548000D01*
X121100002Y-118123322D01*
X120812763Y-117782632D01*
X120401874Y-117580881D01*
X120227000Y-117707046D01*
X119973000Y-117707046D01*
X119798126Y-117580881D01*
X119387237Y-117782632D01*
X119099998Y-118123322D01*
X118965000Y-118548000D01*
X113184870Y-118548000D01*
X113185343Y-118006891D01*
X112883782Y-117277057D01*
X112325880Y-116718181D01*
X111915890Y-116547938D01*
X119880732Y-116547938D01*
X120064448Y-116921821D01*
X120388951Y-117209568D01*
X120798869Y-117351229D01*
X120973000Y-117202563D01*
X120973000Y-116377000D01*
X121227000Y-116377000D01*
X121227000Y-117202563D01*
X121401131Y-117351229D01*
X121811049Y-117209568D01*
X122135552Y-116921821D01*
X122319268Y-116547938D01*
X124880732Y-116547938D01*
X125064448Y-116921821D01*
X125388951Y-117209568D01*
X125798869Y-117351229D01*
X125973000Y-117202563D01*
X125973000Y-116377000D01*
X126227000Y-116377000D01*
X126227000Y-117202563D01*
X126401131Y-117351229D01*
X126811049Y-117209568D01*
X127135552Y-116921821D01*
X127319268Y-116547938D01*
X127192734Y-116377000D01*
X126227000Y-116377000D01*
X125973000Y-116377000D01*
X125007266Y-116377000D01*
X124880732Y-116547938D01*
X122319268Y-116547938D01*
X122192734Y-116377000D01*
X121227000Y-116377000D01*
X120973000Y-116377000D01*
X120007266Y-116377000D01*
X119880732Y-116547938D01*
X111915890Y-116547938D01*
X111596573Y-116415346D01*
X110806891Y-116414657D01*
X110077057Y-116716218D01*
X109518181Y-117274120D01*
X109227000Y-117975361D01*
X109227000Y-115952062D01*
X119880732Y-115952062D01*
X120007266Y-116123000D01*
X120973000Y-116123000D01*
X120973000Y-115297437D01*
X121227000Y-115297437D01*
X121227000Y-116123000D01*
X122192734Y-116123000D01*
X122319268Y-115952062D01*
X124880732Y-115952062D01*
X125007266Y-116123000D01*
X125973000Y-116123000D01*
X125973000Y-115297437D01*
X126227000Y-115297437D01*
X126227000Y-116123000D01*
X127192734Y-116123000D01*
X127319268Y-115952062D01*
X127135552Y-115578179D01*
X126811049Y-115290432D01*
X126401131Y-115148771D01*
X126227000Y-115297437D01*
X125973000Y-115297437D01*
X125798869Y-115148771D01*
X125388951Y-115290432D01*
X125064448Y-115578179D01*
X124880732Y-115952062D01*
X122319268Y-115952062D01*
X122135552Y-115578179D01*
X121811049Y-115290432D01*
X121401131Y-115148771D01*
X121227000Y-115297437D01*
X120973000Y-115297437D01*
X120798869Y-115148771D01*
X120388951Y-115290432D01*
X120064448Y-115578179D01*
X119880732Y-115952062D01*
X109227000Y-115952062D01*
X109227000Y-102060000D01*
X109585907Y-102060000D01*
X109698946Y-102628285D01*
X110020853Y-103110054D01*
X110062452Y-103137850D01*
X110014683Y-103146838D01*
X109798559Y-103285910D01*
X109653569Y-103498110D01*
X109602560Y-103750000D01*
X109602560Y-105450000D01*
X109646838Y-105685317D01*
X109785910Y-105901441D01*
X109998110Y-106046431D01*
X110250000Y-106097440D01*
X111950000Y-106097440D01*
X112185317Y-106053162D01*
X112401441Y-105914090D01*
X112546431Y-105701890D01*
X112597440Y-105450000D01*
X112597440Y-104632242D01*
X114164912Y-106199714D01*
X114164838Y-106285167D01*
X114306883Y-106628943D01*
X114569673Y-106892192D01*
X114913201Y-107034838D01*
X115285167Y-107035162D01*
X115628943Y-106893117D01*
X115892192Y-106630327D01*
X116034838Y-106286799D01*
X116035162Y-105914833D01*
X115893117Y-105571057D01*
X115657348Y-105334876D01*
X115985167Y-105335162D01*
X116328943Y-105193117D01*
X116592192Y-104930327D01*
X116734838Y-104586799D01*
X116735162Y-104214833D01*
X116593117Y-103871057D01*
X116330327Y-103607808D01*
X115986799Y-103465162D01*
X115614833Y-103464838D01*
X115271057Y-103606883D01*
X115007808Y-103869673D01*
X114865162Y-104213201D01*
X114864838Y-104585167D01*
X114980927Y-104866125D01*
X112541210Y-102426408D01*
X112614093Y-102060000D01*
X112501054Y-101491715D01*
X112179147Y-101009946D01*
X111838447Y-100782298D01*
X111981358Y-100715183D01*
X112371645Y-100286924D01*
X112541476Y-99876890D01*
X112420155Y-99647000D01*
X111227000Y-99647000D01*
X111227000Y-99667000D01*
X110973000Y-99667000D01*
X110973000Y-99647000D01*
X109779845Y-99647000D01*
X109658524Y-99876890D01*
X109828355Y-100286924D01*
X110218642Y-100715183D01*
X110361553Y-100782298D01*
X110020853Y-101009946D01*
X109698946Y-101491715D01*
X109585907Y-102060000D01*
X109227000Y-102060000D01*
X109227000Y-99163110D01*
X109658524Y-99163110D01*
X109779845Y-99393000D01*
X110973000Y-99393000D01*
X110973000Y-98199181D01*
X111227000Y-98199181D01*
X111227000Y-99393000D01*
X112420155Y-99393000D01*
X112541476Y-99163110D01*
X112371645Y-98753076D01*
X111981358Y-98324817D01*
X111456892Y-98078514D01*
X111227000Y-98199181D01*
X110973000Y-98199181D01*
X110743108Y-98078514D01*
X110218642Y-98324817D01*
X109828355Y-98753076D01*
X109658524Y-99163110D01*
X109227000Y-99163110D01*
X109227000Y-96453000D01*
X135665000Y-96453000D01*
X135665000Y-96853000D01*
X136973000Y-96853000D01*
X136973000Y-95310085D01*
X136750961Y-95188096D01*
X136668181Y-95205633D01*
X136175104Y-95475500D01*
X135822834Y-95913517D01*
X135665000Y-96453000D01*
X109227000Y-96453000D01*
X109227000Y-87623690D01*
X167115000Y-87623690D01*
X167115000Y-88314250D01*
X167273750Y-88473000D01*
X168473000Y-88473000D01*
X168473000Y-87273750D01*
X168314250Y-87115000D01*
X167623691Y-87115000D01*
X167390302Y-87211673D01*
X167211673Y-87390301D01*
X167115000Y-87623690D01*
X109227000Y-87623690D01*
X109227000Y-85996890D01*
X110158524Y-85996890D01*
X110328355Y-86406924D01*
X110718642Y-86835183D01*
X111243108Y-87081486D01*
X111473000Y-86960819D01*
X111473000Y-85767000D01*
X111727000Y-85767000D01*
X111727000Y-86960819D01*
X111956892Y-87081486D01*
X112481358Y-86835183D01*
X112871645Y-86406924D01*
X113041476Y-85996890D01*
X112920155Y-85767000D01*
X111727000Y-85767000D01*
X111473000Y-85767000D01*
X110279845Y-85767000D01*
X110158524Y-85996890D01*
X109227000Y-85996890D01*
X109227000Y-83385750D01*
X110115000Y-83385750D01*
X110115000Y-84076310D01*
X110211673Y-84309699D01*
X110390302Y-84488327D01*
X110599878Y-84575136D01*
X110328355Y-84873076D01*
X110158524Y-85283110D01*
X110279845Y-85513000D01*
X111473000Y-85513000D01*
X111473000Y-83227000D01*
X111727000Y-83227000D01*
X111727000Y-85513000D01*
X112920155Y-85513000D01*
X113041476Y-85283110D01*
X112871645Y-84873076D01*
X112600122Y-84575136D01*
X112809698Y-84488327D01*
X112988327Y-84309699D01*
X113085000Y-84076310D01*
X113085000Y-83385750D01*
X112926250Y-83227000D01*
X111727000Y-83227000D01*
X111473000Y-83227000D01*
X110273750Y-83227000D01*
X110115000Y-83385750D01*
X109227000Y-83385750D01*
X109227000Y-82123690D01*
X110115000Y-82123690D01*
X110115000Y-82814250D01*
X110273750Y-82973000D01*
X111473000Y-82973000D01*
X111473000Y-81773750D01*
X111727000Y-81773750D01*
X111727000Y-82973000D01*
X112926250Y-82973000D01*
X113085000Y-82814250D01*
X113085000Y-82123690D01*
X112988327Y-81890301D01*
X112809698Y-81711673D01*
X112576309Y-81615000D01*
X111885750Y-81615000D01*
X111727000Y-81773750D01*
X111473000Y-81773750D01*
X111314250Y-81615000D01*
X110623691Y-81615000D01*
X110390302Y-81711673D01*
X110211673Y-81890301D01*
X110115000Y-82123690D01*
X109227000Y-82123690D01*
X109227000Y-80785167D01*
X139164838Y-80785167D01*
X139306883Y-81128943D01*
X139569673Y-81392192D01*
X139913201Y-81534838D01*
X140285167Y-81535162D01*
X140628943Y-81393117D01*
X140892192Y-81130327D01*
X140947600Y-80996890D01*
X167158524Y-80996890D01*
X167328355Y-81406924D01*
X167718642Y-81835183D01*
X168243108Y-82081486D01*
X168473000Y-81960819D01*
X168473000Y-80767000D01*
X167279845Y-80767000D01*
X167158524Y-80996890D01*
X140947600Y-80996890D01*
X140967672Y-80948552D01*
X142416224Y-79500000D01*
X142893863Y-79500000D01*
X143020853Y-79690054D01*
X143502622Y-80011961D01*
X144070907Y-80125000D01*
X144129093Y-80125000D01*
X144697378Y-80011961D01*
X145179147Y-79690054D01*
X145501054Y-79208285D01*
X145614093Y-78640000D01*
X145563520Y-78385750D01*
X167115000Y-78385750D01*
X167115000Y-79076310D01*
X167211673Y-79309699D01*
X167390302Y-79488327D01*
X167599878Y-79575136D01*
X167328355Y-79873076D01*
X167158524Y-80283110D01*
X167279845Y-80513000D01*
X168473000Y-80513000D01*
X168473000Y-78227000D01*
X167273750Y-78227000D01*
X167115000Y-78385750D01*
X145563520Y-78385750D01*
X145501054Y-78071715D01*
X145179147Y-77589946D01*
X145137548Y-77562150D01*
X145185317Y-77553162D01*
X145401441Y-77414090D01*
X145546431Y-77201890D01*
X145562266Y-77123690D01*
X167115000Y-77123690D01*
X167115000Y-77814250D01*
X167273750Y-77973000D01*
X168473000Y-77973000D01*
X168473000Y-76773750D01*
X168314250Y-76615000D01*
X167623691Y-76615000D01*
X167390302Y-76711673D01*
X167211673Y-76890301D01*
X167115000Y-77123690D01*
X145562266Y-77123690D01*
X145597440Y-76950000D01*
X145597440Y-75250000D01*
X145553162Y-75014683D01*
X145414090Y-74798559D01*
X145201890Y-74653569D01*
X144950000Y-74602560D01*
X143250000Y-74602560D01*
X143014683Y-74646838D01*
X142798559Y-74785910D01*
X142653569Y-74998110D01*
X142602560Y-75250000D01*
X142602560Y-76950000D01*
X142646838Y-77185317D01*
X142785910Y-77401441D01*
X142998110Y-77546431D01*
X143065541Y-77560086D01*
X143020853Y-77589946D01*
X142893863Y-77780000D01*
X142060005Y-77780000D01*
X142060000Y-77779999D01*
X141730893Y-77845463D01*
X141451888Y-78031888D01*
X139751415Y-79732361D01*
X139571057Y-79806883D01*
X139307808Y-80069673D01*
X139165162Y-80413201D01*
X139164838Y-80785167D01*
X109227000Y-80785167D01*
X109227000Y-76950000D01*
X116702560Y-76950000D01*
X116702560Y-78650000D01*
X116746838Y-78885317D01*
X116885910Y-79101441D01*
X117098110Y-79246431D01*
X117350000Y-79297440D01*
X119050000Y-79297440D01*
X119285317Y-79253162D01*
X119501441Y-79114090D01*
X119646431Y-78901890D01*
X119660086Y-78834459D01*
X119689946Y-78879147D01*
X120171715Y-79201054D01*
X120740000Y-79314093D01*
X121308285Y-79201054D01*
X121790054Y-78879147D01*
X122111961Y-78397378D01*
X122225000Y-77829093D01*
X122225000Y-77770907D01*
X122111961Y-77202622D01*
X121790054Y-76720853D01*
X121308285Y-76398946D01*
X120740000Y-76285907D01*
X120171715Y-76398946D01*
X119689946Y-76720853D01*
X119662150Y-76762452D01*
X119653162Y-76714683D01*
X119514090Y-76498559D01*
X119301890Y-76353569D01*
X119050000Y-76302560D01*
X117350000Y-76302560D01*
X117114683Y-76346838D01*
X116898559Y-76485910D01*
X116753569Y-76698110D01*
X116702560Y-76950000D01*
X109227000Y-76950000D01*
X109227000Y-74140000D01*
X110085907Y-74140000D01*
X110198946Y-74708285D01*
X110520853Y-75190054D01*
X111002622Y-75511961D01*
X111570907Y-75625000D01*
X111629093Y-75625000D01*
X112197378Y-75511961D01*
X112679147Y-75190054D01*
X113001054Y-74708285D01*
X113114093Y-74140000D01*
X113001054Y-73571715D01*
X112679147Y-73089946D01*
X112637548Y-73062150D01*
X112685317Y-73053162D01*
X112901441Y-72914090D01*
X113046431Y-72701890D01*
X113097440Y-72450000D01*
X113097440Y-70750000D01*
X113053162Y-70514683D01*
X112914090Y-70298559D01*
X112701890Y-70153569D01*
X112450000Y-70102560D01*
X110750000Y-70102560D01*
X110514683Y-70146838D01*
X110298559Y-70285910D01*
X110153569Y-70498110D01*
X110102560Y-70750000D01*
X110102560Y-72450000D01*
X110146838Y-72685317D01*
X110285910Y-72901441D01*
X110498110Y-73046431D01*
X110565541Y-73060086D01*
X110520853Y-73089946D01*
X110198946Y-73571715D01*
X110085907Y-74140000D01*
X109227000Y-74140000D01*
X109227000Y-60622981D01*
X109516218Y-61322943D01*
X110074120Y-61881819D01*
X110803427Y-62184654D01*
X111593109Y-62185343D01*
X112322943Y-61883782D01*
X112881819Y-61325880D01*
X113184654Y-60596573D01*
X113185343Y-59806891D01*
X112883782Y-59077057D01*
X112325880Y-58518181D01*
X111624639Y-58227000D01*
X167577019Y-58227000D01*
X166877057Y-58516218D01*
M02*
